Merritest-BoldItalic.ufo
<glyph name="exclam" format="1">
  <advance width="701"/>
  <unicode hex="0021"/>
  <outline>
    <contour>
      <point x="248" y="508" type="line"/>
      <point x="379" y="1778" type="line"/>
      <point x="669" y="1778" type="line"/>
      <point x="419" y="508" type="line"/>
    </contour>
    <contour>
      <point x="123" y="122" type="curve" smooth="yes"/>
      <point x="129" y="226"/>
      <point x="224" y="296"/>
      <point x="307" y="296" type="curve" smooth="yes"/>
      <point x="404" y="296"/>
      <point x="445" y="228"/>
      <point x="441" y="153" type="curve" smooth="yes"/>
      <point x="435" y="40"/>
      <point x="338" y="-21"/>
      <point x="251" y="-21" type="curve" smooth="yes"/>
      <point x="179" y="-21"/>
      <point x="118" y="37"/>
    </contour>
  </outline>
</glyph>
<glyph name="quotedbl" format="1">
  <advance width="1057"/>
  <unicode hex="0022"/>
  <outline>
    <contour>
      <point x="224" y="966" type="line"/>
      <point x="303" y="1687" type="line"/>
      <point x="560" y="1687" type="line"/>
      <point x="394" y="966" type="line"/>
    </contour>
    <contour>
      <point x="723" y="966" type="line"/>
      <point x="802" y="1687" type="line"/>
      <point x="1059" y="1687" type="line"/>
      <point x="893" y="966" type="line"/>
    </contour>
  </outline>
</glyph>
<glyph name="dollar" format="1">
  <advance width="1205"/>
  <unicode hex="0024"/>
  <outline>
    <contour>
      <point x="63" y="70" type="curve"/>
      <point x="117" y="368" type="line"/>
      <point x="282" y="368" type="line"/>
      <point x="297" y="171" type="line"/>
      <point x="354" y="128"/>
      <point x="433" y="94"/>
      <point x="526" y="94" type="curve" smooth="yes"/>
      <point x="690" y="94"/>
      <point x="802" y="183"/>
      <point x="809" y="330" type="curve" smooth="yes"/>
      <point x="815" y="475"/>
      <point x="708" y="555"/>
      <point x="545" y="658" type="curve" smooth="yes"/>
      <point x="374" y="766"/>
      <point x="209" y="893"/>
      <point x="209" y="1110" type="curve" smooth="yes"/>
      <point x="209" y="1367"/>
      <point x="410" y="1525"/>
      <point x="674" y="1547" type="curve"/>
      <point x="703" y="1729" type="line"/>
      <point x="884" y="1729" type="line"/>
      <point x="854" y="1545" type="line"/>
      <point x="991" y="1532"/>
      <point x="1080" y="1499"/>
      <point x="1127" y="1470" type="curve"/>
      <point x="1076" y="1197" type="line"/>
      <point x="923" y="1197" type="line"/>
      <point x="892" y="1377" type="line"/>
      <point x="841" y="1413"/>
      <point x="771" y="1433"/>
      <point x="697" y="1433" type="curve" smooth="yes"/>
      <point x="572" y="1433"/>
      <point x="464" y="1362"/>
      <point x="458" y="1216" type="curve"/>
      <point x="453" y="1061"/>
      <point x="568" y="973"/>
      <point x="738" y="868" type="curve" smooth="yes"/>
      <point x="904" y="766"/>
      <point x="1066" y="648"/>
      <point x="1066" y="437" type="curve" smooth="yes"/>
      <point x="1066" y="192"/>
      <point x="889" y="9"/>
      <point x="587" y="-19" type="curve"/>
      <point x="553" y="-230" type="line"/>
      <point x="373" y="-230" type="line"/>
      <point x="407" y="-19" type="line"/>
      <point x="242" y="-5"/>
      <point x="101" y="39"/>
    </contour>
  </outline>
</glyph>
<glyph name="parenleft" format="1">
  <advance width="869"/>
  <unicode hex="0028"/>
  <outline>
    <contour>
      <point x="190" y="505" type="curve" smooth="yes"/>
      <point x="190" y="574"/>
      <point x="195" y="647"/>
      <point x="205" y="724" type="curve" smooth="yes"/>
      <point x="283" y="1311"/>
      <point x="732" y="1703"/>
      <point x="830" y="1756" type="curve"/>
      <point x="937" y="1682" type="line"/>
      <point x="853" y="1628"/>
      <point x="540" y="1300"/>
      <point x="454" y="773" type="curve"/>
      <point x="442" y="690"/>
      <point x="434" y="586"/>
      <point x="434" y="512" type="curve" smooth="yes"/>
      <point x="434" y="71"/>
      <point x="620" y="-200"/>
      <point x="691" y="-260" type="curve"/>
      <point x="568" y="-334" type="line"/>
      <point x="551" y="-334" type="line"/>
      <point x="477" y="-284"/>
      <point x="190" y="-8"/>
    </contour>
  </outline>
</glyph>
<glyph name="plus" format="1">
  <advance width="1346"/>
  <unicode hex="002B"/>
  <outline>
    <contour>
      <point x="548" y="285" type="line"/>
      <point x="575" y="526" type="line"/>
      <point x="601" y="690" type="line"/>
      <point x="460" y="683" type="line"/>
      <point x="250" y="683" type="line"/>
      <point x="268" y="861" type="line"/>
      <point x="489" y="861" type="line"/>
      <point x="627" y="850" type="line"/>
      <point x="640" y="1015" type="line"/>
      <point x="667" y="1245" type="line"/>
      <point x="865" y="1245" type="line"/>
      <point x="839" y="1015" type="line"/>
      <point x="810" y="851" type="line"/>
      <point x="925" y="861" type="line"/>
      <point x="1165" y="861" type="line"/>
      <point x="1147" y="683" type="line"/>
      <point x="897" y="683" type="line"/>
      <point x="785" y="690" type="line"/>
      <point x="783" y="635"/>
      <point x="778" y="581"/>
      <point x="775" y="526" type="curve"/>
      <point x="747" y="285" type="line"/>
    </contour>
  </outline>
</glyph>
<glyph name="slash" format="1">
  <advance width="854"/>
  <unicode hex="002F"/>
  <outline>
    <contour>
      <point x="75" y="-362" type="line"/>
      <point x="-127" y="-362" type="line"/>
      <point x="734" y="1597" type="line"/>
      <point x="938" y="1597" type="line"/>
    </contour>
  </outline>
</glyph>
<glyph name="two" format="1">
  <advance width="1249"/>
  <unicode hex="0032"/>
  <outline>
    <contour>
      <point x="85" y="0" type="line"/>
      <point x="60" y="108" type="line"/>
      <point x="423" y="305"/>
      <point x="768" y="566"/>
      <point x="768" y="781" type="curve" smooth="yes"/>
      <point x="768" y="900"/>
      <point x="712" y="991"/>
      <point x="579" y="991" type="curve" smooth="yes"/>
      <point x="441" y="991"/>
      <point x="307" y="908"/>
      <point x="223" y="823" type="curve"/>
      <point x="159" y="932" type="line"/>
      <point x="244" y="1033"/>
      <point x="417" y="1162"/>
      <point x="651" y="1162" type="curve" smooth="yes"/>
      <point x="948" y="1162"/>
      <point x="1054" y="986"/>
      <point x="1054" y="826" type="curve" smooth="yes"/>
      <point x="1054" y="552"/>
      <point x="701" y="303"/>
      <point x="367" y="138" type="curve"/>
      <point x="905" y="179" type="line"/>
      <point x="1029" y="353" type="line"/>
      <point x="1153" y="312" type="line"/>
      <point x="1053" y="0" type="line"/>
    </contour>
  </outline>
</glyph>
<glyph name="four" format="1">
  <advance width="1264"/>
  <unicode hex="0034"/>
  <outline>
    <contour>
      <point x="52" y="0" type="line"/>
      <point x="1" y="89" type="line"/>
      <point x="243" y="455"/>
      <point x="438" y="801"/>
      <point x="693" y="1256" type="curve"/>
      <point x="895" y="1256" type="line"/>
      <point x="977" y="1167" type="line"/>
      <point x="340" y="219" type="line"/>
      <point x="279" y="137" type="line"/>
      <point x="695" y="165" type="line"/>
      <point x="746" y="541" type="line"/>
      <point x="994" y="599" type="line"/>
      <point x="942" y="172" type="line"/>
      <point x="1159" y="187" type="line"/>
      <point x="1135" y="0" type="line"/>
      <point x="915" y="0" type="line"/>
      <point x="868" y="-375" type="line"/>
      <point x="624" y="-375" type="line"/>
      <point x="673" y="0" type="line"/>
    </contour>
  </outline>
</glyph>
<glyph name="five" format="1">
  <advance width="1116"/>
  <unicode hex="0035"/>
  <outline>
    <contour>
      <point x="60" y="-212" type="line"/>
      <point x="86" y="-218"/>
      <point x="124" y="-223"/>
      <point x="154" y="-223" type="curve" smooth="yes"/>
      <point x="474" y="-223"/>
      <point x="681" y="-31"/>
      <point x="681" y="182" type="curve" smooth="yes"/>
      <point x="681" y="350"/>
      <point x="591" y="442"/>
      <point x="412" y="442" type="curve" smooth="yes"/>
      <point x="325" y="442"/>
      <point x="251" y="418"/>
      <point x="178" y="389" type="curve"/>
      <point x="123" y="431" type="line"/>
      <point x="299" y="1146" type="line"/>
      <point x="836" y="1146" type="line"/>
      <point x="858" y="1162" type="line"/>
      <point x="1051" y="1162" type="line"/>
      <point x="995" y="956" type="line"/>
      <point x="495" y="956" type="line"/>
      <point x="385" y="560" type="line"/>
      <point x="432" y="575"/>
      <point x="512" y="588"/>
      <point x="602" y="588" type="curve" smooth="yes"/>
      <point x="822" y="588"/>
      <point x="973" y="454"/>
      <point x="973" y="218" type="curve" smooth="yes"/>
      <point x="973" y="-131"/>
      <point x="602" y="-350"/>
      <point x="193" y="-350" type="curve" smooth="yes"/>
      <point x="151" y="-350"/>
      <point x="74" y="-340"/>
      <point x="41" y="-329" type="curve"/>
    </contour>
  </outline>
</glyph>
<glyph name="six" format="1">
  <advance width="1238"/>
  <unicode hex="0036"/>
  <outline>
    <contour>
      <point x="115" y="499" type="curve" smooth="yes"/>
      <point x="115" y="983"/>
      <point x="488" y="1434"/>
      <point x="987" y="1571" type="curve"/>
      <point x="1028" y="1462" type="line"/>
      <point x="749" y="1366"/>
      <point x="529" y="1123"/>
      <point x="441" y="860" type="curve"/>
      <point x="501" y="921"/>
      <point x="613" y="985"/>
      <point x="766" y="985" type="curve" smooth="yes"/>
      <point x="1009" y="985"/>
      <point x="1115" y="811"/>
      <point x="1115" y="606" type="curve" smooth="yes"/>
      <point x="1115" y="292"/>
      <point x="882" y="-20"/>
      <point x="543" y="-20" type="curve" smooth="yes"/>
      <point x="274" y="-20"/>
      <point x="115" y="169"/>
    </contour>
    <contour>
      <point x="377" y="450" type="curve" smooth="yes"/>
      <point x="377" y="253"/>
      <point x="424" y="102"/>
      <point x="589" y="102" type="curve" smooth="yes"/>
      <point x="782" y="102"/>
      <point x="851" y="360"/>
      <point x="851" y="551" type="curve" smooth="yes"/>
      <point x="851" y="750"/>
      <point x="778" y="832"/>
      <point x="683" y="832" type="curve" smooth="yes"/>
      <point x="532" y="832"/>
      <point x="442" y="736"/>
      <point x="404" y="683" type="curve"/>
      <point x="385" y="598"/>
      <point x="377" y="522"/>
    </contour>
  </outline>
</glyph>
<glyph name="nine" format="1">
  <advance width="1247"/>
  <unicode hex="0039"/>
  <outline>
    <contour>
      <point x="199" y="-320" type="line"/>
      <point x="504" y="-215"/>
      <point x="699" y="17"/>
      <point x="795" y="273" type="curve"/>
      <point x="733" y="213"/>
      <point x="649" y="152"/>
      <point x="484" y="152" type="curve" smooth="yes"/>
      <point x="211" y="152"/>
      <point x="113" y="347"/>
      <point x="113" y="542" type="curve" smooth="yes"/>
      <point x="113" y="851"/>
      <point x="335" y="1161"/>
      <point x="685" y="1162" type="curve" smooth="yes"/>
      <point x="953" y="1162"/>
      <point x="1113" y="987"/>
      <point x="1113" y="660" type="curve" smooth="yes"/>
      <point x="1113" y="152"/>
      <point x="727" y="-317"/>
      <point x="243" y="-431" type="curve"/>
    </contour>
    <contour>
      <point x="545" y="305" type="curve" smooth="yes"/>
      <point x="700" y="305"/>
      <point x="783" y="403"/>
      <point x="825" y="459" type="curve"/>
      <point x="843" y="534"/>
      <point x="851" y="624"/>
      <point x="851" y="699" type="curve" smooth="yes"/>
      <point x="851" y="876"/>
      <point x="807" y="1041"/>
      <point x="638" y="1041" type="curve" smooth="yes"/>
      <point x="446" y="1041"/>
      <point x="377" y="779"/>
      <point x="377" y="599" type="curve" smooth="yes"/>
      <point x="377" y="392"/>
      <point x="452" y="305"/>
    </contour>
  </outline>
</glyph>
<glyph name="colon" format="1">
  <advance width="541"/>
  <unicode hex="003A"/>
  <outline>
    <contour>
      <point x="163" y="931" type="curve" smooth="yes"/>
      <point x="169" y="1035"/>
      <point x="255" y="1105"/>
      <point x="338" y="1105" type="curve" smooth="yes"/>
      <point x="435" y="1105"/>
      <point x="476" y="1037"/>
      <point x="472" y="962" type="curve" smooth="yes"/>
      <point x="466" y="849"/>
      <point x="374" y="788"/>
      <point x="287" y="788" type="curve" smooth="yes"/>
      <point x="214" y="788"/>
      <point x="158" y="846"/>
    </contour>
    <contour>
      <point x="64" y="122" type="curve" smooth="yes"/>
      <point x="70" y="226"/>
      <point x="156" y="296"/>
      <point x="239" y="296" type="curve" smooth="yes"/>
      <point x="336" y="296"/>
      <point x="377" y="228"/>
      <point x="373" y="153" type="curve" smooth="yes"/>
      <point x="367" y="40"/>
      <point x="275" y="-21"/>
      <point x="188" y="-21" type="curve" smooth="yes"/>
      <point x="115" y="-21"/>
      <point x="59" y="37"/>
    </contour>
  </outline>
</glyph>
<glyph name="semicolon" format="1">
  <advance width="541"/>
  <unicode hex="003B"/>
  <outline>
    <contour>
      <point x="77" y="78" type="curve"/>
      <point x="84" y="137" type="line"/>
      <point x="208" y="280" type="line"/>
      <point x="366" y="242"/>
      <point x="410" y="108"/>
      <point x="410" y="-4" type="curve" smooth="yes"/>
      <point x="410" y="-228"/>
      <point x="253" y="-417"/>
      <point x="27" y="-511" type="curve"/>
      <point x="-27" y="-432" type="line"/>
      <point x="-24" y="-411" type="line"/>
      <point x="87" y="-362"/>
      <point x="183" y="-213"/>
      <point x="183" y="-88" type="curve" smooth="yes"/>
      <point x="183" y="0"/>
      <point x="135" y="80"/>
    </contour>
    <contour>
      <point x="164" y="931" type="curve" smooth="yes"/>
      <point x="170" y="1035"/>
      <point x="256" y="1105"/>
      <point x="339" y="1105" type="curve" smooth="yes"/>
      <point x="436" y="1105"/>
      <point x="477" y="1037"/>
      <point x="473" y="962" type="curve" smooth="yes"/>
      <point x="467" y="849"/>
      <point x="375" y="788"/>
      <point x="288" y="788" type="curve" smooth="yes"/>
      <point x="215" y="788"/>
      <point x="159" y="846"/>
    </contour>
  </outline>
</glyph>
<glyph name="equal" format="1">
  <advance width="1063"/>
  <unicode hex="003D"/>
  <outline>
    <contour>
      <point x="150" y="843" type="line"/>
      <point x="170" y="1020" type="line"/>
      <point x="985" y="1020" type="line"/>
      <point x="965" y="843" type="line"/>
    </contour>
    <contour>
      <point x="78" y="324" type="line"/>
      <point x="99" y="501" type="line"/>
      <point x="914" y="501" type="line"/>
      <point x="893" y="324" type="line"/>
    </contour>
  </outline>
</glyph>
<glyph name="question" format="1">
  <advance width="986"/>
  <unicode hex="003F"/>
  <outline>
    <contour>
      <point x="329" y="473" type="line"/>
      <point x="284" y="518"/>
      <point x="253" y="617"/>
      <point x="253" y="715" type="curve" smooth="yes"/>
      <point x="253" y="849"/>
      <point x="380" y="934"/>
      <point x="537" y="1024" type="curve"/>
      <point x="649" y="1085"/>
      <point x="736" y="1146"/>
      <point x="770" y="1202" type="curve"/>
      <point x="780" y="1230"/>
      <point x="789" y="1271"/>
      <point x="790" y="1303" type="curve" smooth="yes"/>
      <point x="794" y="1489"/>
      <point x="641" y="1626"/>
      <point x="431" y="1626" type="curve" smooth="yes"/>
      <point x="372" y="1626"/>
      <point x="292" y="1608"/>
      <point x="235" y="1580" type="curve"/>
      <point x="279" y="1760" type="line"/>
      <point x="309" y="1790"/>
      <point x="440" y="1823"/>
      <point x="524" y="1823" type="curve" smooth="yes"/>
      <point x="902" y="1823"/>
      <point x="1009" y="1603"/>
      <point x="1009" y="1397" type="curve" smooth="yes"/>
      <point x="1009" y="907"/>
      <point x="477" y="953"/>
      <point x="463" y="688" type="curve" smooth="yes"/>
      <point x="460" y="620"/>
      <point x="485" y="556"/>
      <point x="494" y="521" type="curve"/>
      <point x="344" y="472" type="line"/>
    </contour>
    <contour>
      <point x="292" y="113" type="curve" smooth="yes"/>
      <point x="292" y="220"/>
      <point x="395" y="296"/>
      <point x="478" y="296" type="curve" smooth="yes"/>
      <point x="568" y="296"/>
      <point x="611" y="235"/>
      <point x="611" y="167" type="curve" smooth="yes"/>
      <point x="611" y="46"/>
      <point x="506" y="-21"/>
      <point x="417" y="-21" type="curve" smooth="yes"/>
      <point x="348" y="-21"/>
      <point x="292" y="35"/>
    </contour>
  </outline>
</glyph>
<glyph name="A" format="1">
  <advance width="1359"/>
  <unicode hex="0041"/>
  <outline>
    <contour>
      <point x="7" y="125" type="line"/>
      <point x="687" y="1530" type="line"/>
      <point x="960" y="1530" type="line"/>
      <point x="1210" y="128" type="line"/>
      <point x="1368" y="96" type="line"/>
      <point x="1362" y="0" type="line"/>
      <point x="773" y="0" type="line"/>
      <point x="779" y="96" type="line"/>
      <point x="925" y="125" type="line"/>
      <point x="880" y="426" type="line"/>
      <point x="349" y="426" type="line"/>
      <point x="213" y="126" type="line"/>
      <point x="381" y="96" type="line"/>
      <point x="374" y="0" type="line"/>
      <point x="-141" y="0" type="line"/>
      <point x="-132" y="96" type="line"/>
    </contour>
    <contour>
      <point x="410" y="562" type="line"/>
      <point x="860" y="562" type="line"/>
      <point x="768" y="1177" type="line"/>
      <point x="758" y="1330" type="line"/>
    </contour>
  </outline>
</glyph>
<glyph name="B" format="1">
  <advance width="1343"/>
  <unicode hex="0042"/>
  <outline>
    <contour>
      <point x="4" y="0" type="line"/>
      <point x="13" y="96" type="line"/>
      <point x="157" y="126" type="line"/>
      <point x="321" y="1400" type="line"/>
      <point x="182" y="1425" type="line"/>
      <point x="195" y="1530" type="line"/>
      <point x="483" y="1530" type="line"/>
      <point x="588" y="1531"/>
      <point x="690" y="1546"/>
      <point x="806" y="1546" type="curve" smooth="yes"/>
      <point x="1157" y="1546"/>
      <point x="1262" y="1383"/>
      <point x="1267" y="1218" type="curve" smooth="yes"/>
      <point x="1273" y="1000"/>
      <point x="1150" y="869"/>
      <point x="930" y="807" type="curve"/>
      <point x="1127" y="797"/>
      <point x="1257" y="662"/>
      <point x="1259" y="495" type="curve" smooth="yes"/>
      <point x="1262" y="126"/>
      <point x="976" y="-17"/>
      <point x="558" y="-17" type="curve" smooth="yes"/>
      <point x="471" y="-17"/>
      <point x="351" y="0"/>
      <point x="270" y="0" type="curve" smooth="yes"/>
    </contour>
    <contour>
      <point x="517" y="855" type="line"/>
      <point x="566" y="852"/>
      <point x="615" y="854"/>
      <point x="667" y="854" type="curve" smooth="yes"/>
      <point x="853" y="854"/>
      <point x="1010" y="954"/>
      <point x="1004" y="1192" type="curve"/>
      <point x="999" y="1344"/>
      <point x="922" y="1424"/>
      <point x="744" y="1424" type="curve" smooth="yes"/>
      <point x="714" y="1424"/>
      <point x="636" y="1421"/>
      <point x="589" y="1412" type="curve"/>
    </contour>
    <contour>
      <point x="424" y="127" type="line"/>
      <point x="470" y="114"/>
      <point x="559" y="106"/>
      <point x="601" y="106" type="curve" smooth="yes"/>
      <point x="835" y="106"/>
      <point x="977" y="210"/>
      <point x="970" y="467" type="curve" smooth="yes"/>
      <point x="965" y="639"/>
      <point x="880" y="722"/>
      <point x="676" y="722" type="curve" smooth="yes"/>
      <point x="584" y="722"/>
      <point x="536" y="719"/>
      <point x="499" y="716" type="curve"/>
    </contour>
  </outline>
</glyph>
<glyph name="C" format="1">
  <advance width="1281"/>
  <unicode hex="0043"/>
  <outline>
    <contour>
      <point x="635" y="-16" type="curve" smooth="yes"/>
      <point x="232" y="-16"/>
      <point x="79" y="302"/>
      <point x="77" y="632" type="curve" smooth="yes"/>
      <point x="72" y="1192"/>
      <point x="422" y="1548"/>
      <point x="889" y="1548" type="curve" smooth="yes"/>
      <point x="1090" y="1548"/>
      <point x="1178" y="1518"/>
      <point x="1246" y="1501" type="curve"/>
      <point x="1282" y="1491" type="line"/>
      <point x="1217" y="1107" type="line"/>
      <point x="1032" y="1107" type="line"/>
      <point x="1001" y="1392" type="line"/>
      <point x="963" y="1410"/>
      <point x="914" y="1424"/>
      <point x="849" y="1424" type="curve" smooth="yes"/>
      <point x="498" y="1424"/>
      <point x="370" y="969"/>
      <point x="377" y="653" type="curve" smooth="yes"/>
      <point x="384" y="353"/>
      <point x="470" y="123"/>
      <point x="686" y="123" type="curve" smooth="yes"/>
      <point x="755" y="123"/>
      <point x="870" y="138"/>
      <point x="928" y="212" type="curve"/>
      <point x="946" y="233"/>
      <point x="991" y="373"/>
      <point x="1002" y="411" type="curve"/>
      <point x="1163" y="411" type="line"/>
      <point x="1122" y="103" type="line"/>
      <point x="1049" y="61"/>
      <point x="895" y="-16"/>
    </contour>
  </outline>
</glyph>
<glyph name="E" format="1">
  <advance width="1279"/>
  <unicode hex="0045"/>
  <outline>
    <contour>
      <point x="-9" y="0" type="line"/>
      <point x="3" y="96" type="line"/>
      <point x="158" y="126" type="line"/>
      <point x="320" y="1400" type="line"/>
      <point x="181" y="1425" type="line"/>
      <point x="192" y="1530" type="line"/>
      <point x="1215" y="1530" type="line"/>
      <point x="1193" y="1190" type="line"/>
      <point x="1029" y="1190" type="line"/>
      <point x="988" y="1396" type="line"/>
      <point x="598" y="1416" type="line"/>
      <point x="526" y="868" type="line"/>
      <point x="967" y="883" type="line"/>
      <point x="949" y="696" type="line"/>
      <point x="510" y="717" type="line"/>
      <point x="430" y="126" type="line"/>
      <point x="940" y="156" type="line"/>
      <point x="1058" y="408" type="line"/>
      <point x="1216" y="385" type="line"/>
      <point x="1137" y="0" type="line"/>
    </contour>
  </outline>
</glyph>
<glyph name="F" format="1">
  <advance width="1189"/>
  <unicode hex="0046"/>
  <outline>
    <contour>
      <point x="5" y="0" type="line"/>
      <point x="14" y="97" type="line"/>
      <point x="158" y="126" type="line"/>
      <point x="320" y="1400" type="line"/>
      <point x="181" y="1425" type="line"/>
      <point x="194" y="1530" type="line"/>
      <point x="1247" y="1530" type="line"/>
      <point x="1213" y="1184" type="line"/>
      <point x="1042" y="1184" type="line"/>
      <point x="1018" y="1396" type="line"/>
      <point x="597" y="1415" type="line"/>
      <point x="526" y="857" type="line"/>
      <point x="1002" y="880" type="line"/>
      <point x="983" y="683" type="line"/>
      <point x="510" y="711" type="line"/>
      <point x="433" y="127" type="line"/>
      <point x="731" y="97" type="line"/>
      <point x="723" y="0" type="line"/>
    </contour>
  </outline>
</glyph>
<glyph name="J" format="1">
  <advance width="740"/>
  <unicode hex="004A"/>
  <outline>
    <contour>
      <point x="161" y="86" type="curve" smooth="yes"/>
      <point x="241" y="476"/>
      <point x="283" y="965"/>
      <point x="333" y="1400" type="curve"/>
      <point x="186" y="1425" type="line"/>
      <point x="200" y="1530" type="line"/>
      <point x="775" y="1530" type="line"/>
      <point x="764" y="1425" type="line"/>
      <point x="603" y="1401" type="line"/>
      <point x="532" y="785"/>
      <point x="464" y="170"/>
      <point x="432" y="75" type="curve" smooth="yes"/>
      <point x="348" y="-179"/>
      <point x="106" y="-309"/>
      <point x="-134" y="-345" type="curve"/>
      <point x="-178" y="-247" type="line"/>
      <point x="21" y="-188"/>
      <point x="134" y="-45"/>
    </contour>
  </outline>
</glyph>
<glyph name="K" format="1">
  <advance width="1419"/>
  <unicode hex="004B"/>
  <outline>
    <contour>
      <point x="-1" y="0" type="line"/>
      <point x="11" y="96" type="line"/>
      <point x="158" y="126" type="line"/>
      <point x="321" y="1400" type="line"/>
      <point x="182" y="1425" type="line"/>
      <point x="195" y="1530" type="line"/>
      <point x="774" y="1530" type="line"/>
      <point x="762" y="1425" type="line"/>
      <point x="596" y="1400" type="line"/>
      <point x="507" y="705" type="line"/>
      <point x="1124" y="1400" type="line"/>
      <point x="993" y="1425" type="line"/>
      <point x="1004" y="1530" type="line"/>
      <point x="1471" y="1530" type="line"/>
      <point x="1460" y="1425" type="line"/>
      <point x="1340" y="1401" type="line"/>
      <point x="835" y="870" type="line"/>
      <point x="900" y="769"/>
      <point x="1018" y="552"/>
      <point x="1071" y="453" type="curve" smooth="yes"/>
      <point x="1175" y="257"/>
      <point x="1228" y="164"/>
      <point x="1272" y="139" type="curve"/>
      <point x="1401" y="100" type="line"/>
      <point x="1388" y="0" type="line"/>
      <point x="1035" y="0" type="line"/>
      <point x="979" y="7"/>
      <point x="942" y="99"/>
      <point x="859" y="281" type="curve" smooth="yes"/>
      <point x="808" y="394"/>
      <point x="726" y="575"/>
      <point x="665" y="691" type="curve"/>
      <point x="480" y="497" type="line"/>
      <point x="433" y="126" type="line"/>
      <point x="598" y="97" type="line"/>
      <point x="590" y="0" type="line"/>
    </contour>
  </outline>
</glyph>
<glyph name="L" format="1">
  <advance width="1225"/>
  <unicode hex="004C"/>
  <outline>
    <contour>
      <point x="5" y="0" type="line"/>
      <point x="15" y="97" type="line"/>
      <point x="158" y="126" type="line"/>
      <point x="321" y="1400" type="line"/>
      <point x="181" y="1425" type="line"/>
      <point x="194" y="1530" type="line"/>
      <point x="792" y="1530" type="line"/>
      <point x="781" y="1425" type="line"/>
      <point x="596" y="1400" type="line"/>
      <point x="432" y="123" type="line"/>
      <point x="841" y="138" type="line"/>
      <point x="1004" y="527" type="line"/>
      <point x="1153" y="504" type="line"/>
      <point x="1063" y="0" type="line"/>
    </contour>
  </outline>
</glyph>
<glyph name="M" format="1">
  <advance width="1970"/>
  <unicode hex="004D"/>
  <outline>
    <contour>
      <point x="-69" y="0" type="line"/>
      <point x="-58" y="97" type="line"/>
      <point x="113" y="126" type="line"/>
      <point x="429" y="1400" type="line"/>
      <point x="252" y="1425" type="line"/>
      <point x="266" y="1530" type="line"/>
      <point x="828" y="1530" type="line"/>
      <point x="968" y="575" type="line"/>
      <point x="986" y="406" type="line"/>
      <point x="1039" y="575" type="line"/>
      <point x="1112" y="750"/>
      <point x="1370" y="1356"/>
      <point x="1443" y="1530" type="curve"/>
      <point x="1961" y="1530" type="line"/>
      <point x="1949" y="1425" type="line"/>
      <point x="1774" y="1400" type="line"/>
      <point x="1742" y="127" type="line"/>
      <point x="1920" y="97" type="line"/>
      <point x="1912" y="0" type="line"/>
      <point x="1281" y="0" type="line"/>
      <point x="1290" y="98" type="line"/>
      <point x="1462" y="126" type="line"/>
      <point x="1517" y="1011" type="line"/>
      <point x="1535" y="1381" type="line"/>
      <point x="1407" y="1059" type="line"/>
      <point x="948" y="-3" type="line"/>
      <point x="809" y="-18" type="line"/>
      <point x="640" y="1035" type="line"/>
      <point x="591" y="1382" type="line"/>
      <point x="517" y="1025" type="line"/>
      <point x="319" y="126" type="line"/>
      <point x="517" y="97" type="line"/>
      <point x="507" y="0" type="line"/>
    </contour>
  </outline>
</glyph>
<glyph name="R" format="1">
  <advance width="1399"/>
  <unicode hex="0052"/>
  <outline>
    <contour>
      <point x="14" y="0" type="line"/>
      <point x="23" y="96" type="line"/>
      <point x="158" y="126" type="line"/>
      <point x="321" y="1400" type="line"/>
      <point x="182" y="1425" type="line"/>
      <point x="194" y="1530" type="line"/>
      <point x="443" y="1530" type="line" smooth="yes"/>
      <point x="557" y="1530"/>
      <point x="634" y="1546"/>
      <point x="772" y="1546" type="curve" smooth="yes"/>
      <point x="1127" y="1546"/>
      <point x="1283" y="1418"/>
      <point x="1285" y="1181" type="curve"/>
      <point x="1288" y="954"/>
      <point x="1164" y="774"/>
      <point x="941" y="700" type="curve"/>
      <point x="1009" y="645"/>
      <point x="1062" y="494"/>
      <point x="1094" y="409" type="curve"/>
      <point x="1186" y="180"/>
      <point x="1224" y="101"/>
      <point x="1355" y="102" type="curve"/>
      <point x="1348" y="-1" type="line"/>
      <point x="1027" y="1" type="line"/>
      <point x="991" y="0"/>
      <point x="946" y="83"/>
      <point x="887" y="247" type="curve"/>
      <point x="825" y="427"/>
      <point x="751" y="649"/>
      <point x="677" y="667" type="curve"/>
      <point x="677" y="667"/>
      <point x="552" y="666"/>
      <point x="491" y="666" type="curve"/>
      <point x="427" y="126" type="line"/>
      <point x="611" y="97" type="line"/>
      <point x="604" y="0" type="line"/>
    </contour>
    <contour>
      <point x="508" y="795" type="line"/>
      <point x="549" y="792"/>
      <point x="659" y="790"/>
      <point x="692" y="792" type="curve" smooth="yes"/>
      <point x="907" y="800"/>
      <point x="1017" y="945"/>
      <point x="1009" y="1186" type="curve" smooth="yes"/>
      <point x="1004" y="1343"/>
      <point x="926" y="1424"/>
      <point x="723" y="1424" type="curve" smooth="yes"/>
      <point x="697" y="1424"/>
      <point x="629" y="1417"/>
      <point x="590" y="1409" type="curve"/>
    </contour>
  </outline>
</glyph>
<glyph name="S" format="1">
  <advance width="1126"/>
  <unicode hex="0053"/>
  <outline>
    <contour>
      <point x="35" y="70" type="curve"/>
      <point x="85" y="368" type="line"/>
      <point x="246" y="368" type="line"/>
      <point x="264" y="167" type="line"/>
      <point x="317" y="129"/>
      <point x="392" y="99"/>
      <point x="481" y="99" type="curve" smooth="yes"/>
      <point x="643" y="99"/>
      <point x="761" y="176"/>
      <point x="766" y="322" type="curve" smooth="yes"/>
      <point x="770" y="468"/>
      <point x="674" y="555"/>
      <point x="513" y="658" type="curve" smooth="yes"/>
      <point x="344" y="766"/>
      <point x="182" y="899"/>
      <point x="180" y="1112" type="curve" smooth="yes"/>
      <point x="178" y="1389"/>
      <point x="405" y="1550"/>
      <point x="699" y="1550" type="curve" smooth="yes"/>
      <point x="903" y="1550"/>
      <point x="1026" y="1507"/>
      <point x="1085" y="1470" type="curve"/>
      <point x="1035" y="1188" type="line"/>
      <point x="887" y="1188" type="line"/>
      <point x="858" y="1375" type="line"/>
      <point x="811" y="1409"/>
      <point x="749" y="1428"/>
      <point x="673" y="1428" type="curve" smooth="yes"/>
      <point x="541" y="1428"/>
      <point x="441" y="1367"/>
      <point x="437" y="1221" type="curve"/>
      <point x="434" y="1066"/>
      <point x="539" y="975"/>
      <point x="707" y="869" type="curve" smooth="yes"/>
      <point x="871" y="766"/>
      <point x="1027" y="642"/>
      <point x="1029" y="436" type="curve" smooth="yes"/>
      <point x="1031" y="172"/>
      <point x="824" y="-23"/>
      <point x="475" y="-23" type="curve" smooth="yes"/>
      <point x="271" y="-23"/>
      <point x="81" y="33"/>
    </contour>
  </outline>
</glyph>
<glyph name="V" format="1">
  <advance width="1235"/>
  <unicode hex="0056"/>
  <outline>
    <contour>
      <point x="387" y="-16" type="line"/>
      <point x="152" y="1400" type="line"/>
      <point x="26" y="1425" type="line"/>
      <point x="38" y="1530" type="line"/>
      <point x="605" y="1530" type="line"/>
      <point x="595" y="1425" type="line"/>
      <point x="438" y="1400" type="line"/>
      <point x="568" y="480" type="line"/>
      <point x="592" y="236" type="line"/>
      <point x="677" y="480" type="line"/>
      <point x="1088" y="1400" type="line"/>
      <point x="926" y="1425" type="line"/>
      <point x="936" y="1530" type="line"/>
      <point x="1428" y="1530" type="line"/>
      <point x="1414" y="1425" type="line"/>
      <point x="1277" y="1401" type="line"/>
      <point x="634" y="-10" type="line"/>
    </contour>
  </outline>
</glyph>
<glyph name="W" format="1">
  <advance width="1887"/>
  <unicode hex="0057"/>
  <outline>
    <contour>
      <point x="352" y="-10" type="line"/>
      <point x="137" y="1400" type="line"/>
      <point x="5" y="1425" type="line"/>
      <point x="18" y="1530" type="line"/>
      <point x="569" y="1530" type="line"/>
      <point x="559" y="1425" type="line"/>
      <point x="418" y="1400" type="line"/>
      <point x="535" y="473" type="line"/>
      <point x="564" y="236" type="line"/>
      <point x="629" y="439" type="line"/>
      <point x="956" y="1268" type="line"/>
      <point x="943" y="1402" type="line"/>
      <point x="804" y="1425" type="line"/>
      <point x="814" y="1530" type="line"/>
      <point x="1374" y="1530" type="line"/>
      <point x="1359" y="1425" type="line"/>
      <point x="1215" y="1401" type="line"/>
      <point x="1314" y="473" type="line"/>
      <point x="1323" y="236" type="line"/>
      <point x="1400" y="454" type="line"/>
      <point x="1793" y="1399" type="line"/>
      <point x="1615" y="1425" type="line"/>
      <point x="1625" y="1530" type="line"/>
      <point x="2133" y="1530" type="line"/>
      <point x="2120" y="1425" type="line"/>
      <point x="1981" y="1400" type="line"/>
      <point x="1361" y="-10" type="line"/>
      <point x="1100" y="-10" type="line"/>
      <point x="998" y="967" type="line"/>
      <point x="614" y="-10" type="line"/>
    </contour>
  </outline>
</glyph>
<glyph name="X" format="1">
  <advance width="1342"/>
  <unicode hex="0058"/>
  <outline>
    <contour>
      <point x="-69" y="0" type="line"/>
      <point x="-58" y="97" type="line"/>
      <point x="60" y="126" type="line"/>
      <point x="549" y="759" type="line"/>
      <point x="246" y="1399" type="line"/>
      <point x="117" y="1425" type="line"/>
      <point x="127" y="1530" type="line"/>
      <point x="716" y="1530" type="line"/>
      <point x="706" y="1425" type="line"/>
      <point x="562" y="1401" type="line"/>
      <point x="747" y="925" type="line"/>
      <point x="1064" y="1400" type="line"/>
      <point x="927" y="1425" type="line"/>
      <point x="936" y="1530" type="line"/>
      <point x="1432" y="1530" type="line"/>
      <point x="1422" y="1425" type="line"/>
      <point x="1285" y="1401" type="line"/>
      <point x="815" y="793" type="line"/>
      <point x="1144" y="126" type="line"/>
      <point x="1284" y="97" type="line"/>
      <point x="1275" y="0" type="line"/>
      <point x="661" y="0" type="line"/>
      <point x="669" y="97" type="line"/>
      <point x="823" y="126" type="line"/>
      <point x="620" y="618" type="line"/>
      <point x="287" y="126" type="line"/>
      <point x="437" y="96" type="line"/>
      <point x="428" y="0" type="line"/>
    </contour>
  </outline>
</glyph>
<glyph name="Y" format="1">
  <advance width="1227"/>
  <unicode hex="0059"/>
  <outline>
    <contour>
      <point x="202" y="0" type="line"/>
      <point x="212" y="97" type="line"/>
      <point x="425" y="126" type="line"/>
      <point x="485" y="598" type="line"/>
      <point x="137" y="1400" type="line"/>
      <point x="30" y="1425" type="line"/>
      <point x="41" y="1530" type="line"/>
      <point x="627" y="1530" type="line"/>
      <point x="613" y="1425" type="line"/>
      <point x="442" y="1400" type="line"/>
      <point x="642" y="873" type="line"/>
      <point x="687" y="749" type="line"/>
      <point x="749" y="860" type="line"/>
      <point x="1066" y="1400" type="line"/>
      <point x="920" y="1425" type="line"/>
      <point x="930" y="1530" type="line"/>
      <point x="1403" y="1530" type="line"/>
      <point x="1390" y="1425" type="line"/>
      <point x="1277" y="1401" type="line"/>
      <point x="756" y="598" type="line"/>
      <point x="695" y="126" type="line"/>
      <point x="924" y="97" type="line"/>
      <point x="915" y="0" type="line"/>
    </contour>
  </outline>
</glyph>
<glyph name="b" format="1">
  <advance width="1190"/>
  <unicode hex="0062"/>
  <outline>
    <contour>
      <point x="93" y="-20" type="line"/>
      <point x="285" y="1484" type="line"/>
      <point x="186" y="1527" type="line"/>
      <point x="207" y="1611" type="line"/>
      <point x="508" y="1650" type="line"/>
      <point x="560" y="1623" type="line"/>
      <point x="482" y="1033" type="line"/>
      <point x="547" y="1101"/>
      <point x="647" y="1163"/>
      <point x="774" y="1163" type="curve" smooth="yes"/>
      <point x="1005" y="1163"/>
      <point x="1116" y="993"/>
      <point x="1116" y="730" type="curve" smooth="yes"/>
      <point x="1116" y="367"/>
      <point x="869" y="-20"/>
      <point x="456" y="-20" type="curve" smooth="yes"/>
      <point x="374" y="-20"/>
      <point x="277" y="3"/>
      <point x="215" y="24" type="curve"/>
    </contour>
    <contour>
      <point x="362" y="132" type="line"/>
      <point x="396" y="116"/>
      <point x="436" y="110"/>
      <point x="484" y="110" type="curve" smooth="yes"/>
      <point x="739" y="110"/>
      <point x="843" y="449"/>
      <point x="843" y="723" type="curve" smooth="yes"/>
      <point x="843" y="889"/>
      <point x="788" y="1004"/>
      <point x="687" y="1004" type="curve" smooth="yes"/>
      <point x="593" y="1004"/>
      <point x="511" y="933"/>
      <point x="459" y="864" type="curve"/>
    </contour>
  </outline>
</glyph>
<glyph name="d" format="1">
  <advance width="1217"/>
  <unicode hex="0064"/>
  <outline>
    <contour>
      <point x="409" y="-20" type="curve" smooth="yes"/>
      <point x="172" y="-20"/>
      <point x="72" y="167"/>
      <point x="72" y="407" type="curve" smooth="yes"/>
      <point x="72" y="755"/>
      <point x="297" y="1163"/>
      <point x="734" y="1163" type="curve" smooth="yes"/>
      <point x="772" y="1163"/>
      <point x="814" y="1157"/>
      <point x="854" y="1149" type="curve"/>
      <point x="904" y="1482" type="line"/>
      <point x="764" y="1525" type="line"/>
      <point x="784" y="1608" type="line"/>
      <point x="1132" y="1650" type="line"/>
      <point x="1187" y="1623" type="line"/>
      <point x="982" y="208" type="line" smooth="yes"/>
      <point x="975" y="160"/>
      <point x="984" y="131"/>
      <point x="1010" y="131" type="curve" smooth="yes"/>
      <point x="1028" y="131"/>
      <point x="1051" y="140"/>
      <point x="1099" y="177" type="curve"/>
      <point x="1129" y="115" type="line"/>
      <point x="1109" y="89"/>
      <point x="1016" y="-20"/>
      <point x="878" y="-20" type="curve" smooth="yes"/>
      <point x="775" y="-20"/>
      <point x="729" y="33"/>
      <point x="730" y="144" type="curve"/>
      <point x="668" y="64"/>
      <point x="559" y="-20"/>
    </contour>
    <contour>
      <point x="496" y="138" type="curve" smooth="yes"/>
      <point x="590" y="138"/>
      <point x="674" y="212"/>
      <point x="724" y="281" type="curve"/>
      <point x="833" y="1006" type="line"/>
      <point x="797" y="1025"/>
      <point x="754" y="1032"/>
      <point x="707" y="1032" type="curve" smooth="yes"/>
      <point x="442" y="1032"/>
      <point x="345" y="675"/>
      <point x="345" y="420" type="curve" smooth="yes"/>
      <point x="345" y="240"/>
      <point x="402" y="138"/>
    </contour>
  </outline>
</glyph>
<glyph name="f" format="1">
  <advance width="705"/>
  <unicode hex="0066"/>
  <outline>
    <contour>
      <point x="109" y="-145" type="curve"/>
      <point x="247" y="998" type="line"/>
      <point x="115" y="998" type="line"/>
      <point x="133" y="1087" type="line"/>
      <point x="275" y="1150" type="line"/>
      <point x="290" y="1237" type="line" smooth="yes"/>
      <point x="333" y="1484"/>
      <point x="507" y="1670"/>
      <point x="733" y="1670" type="curve" smooth="yes"/>
      <point x="787" y="1670"/>
      <point x="848" y="1666"/>
      <point x="901" y="1644" type="curve"/>
      <point x="840" y="1471" type="line"/>
      <point x="815" y="1489"/>
      <point x="772" y="1520"/>
      <point x="702" y="1519" type="curve" smooth="yes"/>
      <point x="598" y="1518"/>
      <point x="568" y="1436"/>
      <point x="545" y="1274" type="curve"/>
      <point x="529" y="1155" type="line"/>
      <point x="762" y="1155" type="line"/>
      <point x="743" y="998" type="line"/>
      <point x="508" y="998" type="line"/>
      <point x="383" y="-25" type="line"/>
      <point x="348" y="-296"/>
      <point x="201" y="-512"/>
      <point x="-53" y="-513" type="curve" smooth="yes"/>
      <point x="-124" y="-514"/>
      <point x="-199" y="-503"/>
      <point x="-230" y="-495" type="curve"/>
      <point x="-175" y="-319" type="line"/>
      <point x="-161" y="-325"/>
      <point x="-63" y="-363"/>
      <point x="-14" y="-362" type="curve"/>
      <point x="51" y="-362"/>
      <point x="91" y="-281"/>
    </contour>
  </outline>
</glyph>
<glyph name="g" format="1">
  <advance width="1186"/>
  <unicode hex="0067"/>
  <outline>
    <contour>
      <point x="161" y="-273" type="line"/>
      <point x="199" y="-296"/>
      <point x="321" y="-350"/>
      <point x="431" y="-350" type="curve" smooth="yes"/>
      <point x="584" y="-350"/>
      <point x="639" y="-319"/>
      <point x="663" y="-145" type="curve" smooth="yes"/>
      <point x="697" y="98" type="line"/>
      <point x="631" y="35"/>
      <point x="535" y="-20"/>
      <point x="413" y="-20" type="curve" smooth="yes"/>
      <point x="176" y="-20"/>
      <point x="72" y="167"/>
      <point x="72" y="407" type="curve" smooth="yes"/>
      <point x="72" y="755"/>
      <point x="307" y="1163"/>
      <point x="739" y="1163" type="curve" smooth="yes"/>
      <point x="822" y="1163"/>
      <point x="913" y="1140"/>
      <point x="971" y="1119" type="curve"/>
      <point x="1112" y="1163" type="line"/>
      <point x="932" y="-77" type="line"/>
      <point x="886" y="-411"/>
      <point x="587" y="-513"/>
      <point x="354" y="-513" type="curve" smooth="yes"/>
      <point x="261" y="-513"/>
      <point x="151" y="-491"/>
      <point x="111" y="-473" type="curve"/>
    </contour>
    <contour>
      <point x="500" y="138" type="curve" smooth="yes"/>
      <point x="587" y="138"/>
      <point x="668" y="201"/>
      <point x="720" y="265" type="curve"/>
      <point x="829" y="1010" type="line"/>
      <point x="794" y="1026"/>
      <point x="754" y="1032"/>
      <point x="711" y="1032" type="curve" smooth="yes"/>
      <point x="447" y="1032"/>
      <point x="347" y="675"/>
      <point x="347" y="420" type="curve" smooth="yes"/>
      <point x="347" y="240"/>
      <point x="406" y="138"/>
    </contour>
  </outline>
</glyph>
<glyph name="h" format="1">
  <advance width="1268"/>
  <unicode hex="0068"/>
  <outline>
    <contour>
      <point x="95" y="0" type="line"/>
      <point x="281" y="1482" type="line"/>
      <point x="159" y="1525" type="line"/>
      <point x="175" y="1608" type="line"/>
      <point x="513" y="1650" type="line"/>
      <point x="566" y="1623" type="line"/>
      <point x="476" y="916" type="line"/>
      <point x="572" y="1057"/>
      <point x="713" y="1163"/>
      <point x="873" y="1163" type="curve" smooth="yes"/>
      <point x="1019" y="1163"/>
      <point x="1119" y="1086"/>
      <point x="1119" y="861" type="curve" smooth="yes"/>
      <point x="1119" y="781"/>
      <point x="1089" y="617"/>
      <point x="1069" y="505" type="curve"/>
      <point x="1052" y="403"/>
      <point x="1029" y="285"/>
      <point x="1025" y="196" type="curve"/>
      <point x="1024" y="148"/>
      <point x="1036" y="131"/>
      <point x="1055" y="131" type="curve" smooth="yes"/>
      <point x="1077" y="131"/>
      <point x="1100" y="141"/>
      <point x="1154" y="182" type="curve"/>
      <point x="1183" y="119" type="line"/>
      <point x="1165" y="91"/>
      <point x="1061" y="-21"/>
      <point x="911" y="-21" type="curve" smooth="yes"/>
      <point x="781" y="-21"/>
      <point x="745" y="39"/>
      <point x="748" y="131" type="curve" smooth="yes"/>
      <point x="750" y="206"/>
      <point x="775" y="331"/>
      <point x="795" y="443" type="curve" smooth="yes"/>
      <point x="816" y="555"/>
      <point x="847" y="717"/>
      <point x="846" y="838" type="curve" smooth="yes"/>
      <point x="845" y="965"/>
      <point x="806" y="985"/>
      <point x="749" y="985" type="curve" smooth="yes"/>
      <point x="657" y="985"/>
      <point x="534" y="874"/>
      <point x="453" y="736" type="curve"/>
      <point x="359" y="0" type="line"/>
    </contour>
  </outline>
</glyph>
<glyph name="j" format="1">
  <advance width="650"/>
  <unicode hex="006A"/>
  <outline>
    <contour>
      <point x="152" y="65" type="curve" smooth="yes"/>
      <point x="253" y="980" type="line"/>
      <point x="92" y="1031" type="line"/>
      <point x="112" y="1112" type="line"/>
      <point x="493" y="1163" type="line"/>
      <point x="543" y="1139" type="line"/>
      <point x="409" y="0" type="line" smooth="yes"/>
      <point x="368" y="-344"/>
      <point x="164" y="-523"/>
      <point x="-74" y="-523" type="curve" smooth="yes"/>
      <point x="-146" y="-523"/>
      <point x="-205" y="-511"/>
      <point x="-230" y="-486" type="curve"/>
      <point x="-193" y="-385" type="line"/>
      <point x="-175" y="-392"/>
      <point x="-132" y="-397"/>
      <point x="-121" y="-397" type="curve" smooth="yes"/>
      <point x="71" y="-397"/>
      <point x="125" y="-173"/>
    </contour>
    <contour>
      <point x="430" y="1363" type="curve" smooth="yes"/>
      <point x="353" y="1363"/>
      <point x="289" y="1433"/>
      <point x="291" y="1507" type="curve" smooth="yes"/>
      <point x="294" y="1600"/>
      <point x="369" y="1676"/>
      <point x="462" y="1676" type="curve" smooth="yes"/>
      <point x="554" y="1676"/>
      <point x="611" y="1609"/>
      <point x="608" y="1538" type="curve" smooth="yes"/>
      <point x="605" y="1444"/>
      <point x="540" y="1363"/>
    </contour>
  </outline>
</glyph>
<glyph name="m" format="1">
  <advance width="1918"/>
  <unicode hex="006D"/>
  <outline>
    <contour>
      <point x="106" y="0" type="line"/>
      <point x="237" y="962" type="line"/>
      <point x="134" y="1022" type="line"/>
      <point x="151" y="1111" type="line"/>
      <point x="458" y="1163" type="line"/>
      <point x="509" y="1139" type="line"/>
      <point x="491" y="930" type="line"/>
      <point x="587" y="1061"/>
      <point x="727" y="1163"/>
      <point x="876" y="1163" type="curve" smooth="yes"/>
      <point x="1011" y="1163"/>
      <point x="1105" y="1100"/>
      <point x="1121" y="919" type="curve"/>
      <point x="1217" y="1061"/>
      <point x="1360" y="1163"/>
      <point x="1518" y="1163" type="curve" smooth="yes"/>
      <point x="1661" y="1163"/>
      <point x="1764" y="1081"/>
      <point x="1764" y="861" type="curve" smooth="yes"/>
      <point x="1764" y="783"/>
      <point x="1735" y="620"/>
      <point x="1716" y="506" type="curve" smooth="yes"/>
      <point x="1699" y="402"/>
      <point x="1678" y="287"/>
      <point x="1674" y="197" type="curve"/>
      <point x="1673" y="149"/>
      <point x="1685" y="131"/>
      <point x="1704" y="131" type="curve" smooth="yes"/>
      <point x="1726" y="131"/>
      <point x="1749" y="142"/>
      <point x="1803" y="187" type="curve"/>
      <point x="1833" y="125" type="line"/>
      <point x="1812" y="96"/>
      <point x="1712" y="-21"/>
      <point x="1562" y="-21" type="curve" smooth="yes"/>
      <point x="1432" y="-21"/>
      <point x="1399" y="45"/>
      <point x="1401" y="130" type="curve" smooth="yes"/>
      <point x="1403" y="208"/>
      <point x="1425" y="332"/>
      <point x="1445" y="447" type="curve"/>
      <point x="1463" y="557"/>
      <point x="1492" y="717"/>
      <point x="1491" y="837" type="curve" smooth="yes"/>
      <point x="1490" y="964"/>
      <point x="1454" y="984"/>
      <point x="1401" y="984" type="curve" smooth="yes"/>
      <point x="1314" y="984"/>
      <point x="1201" y="890"/>
      <point x="1121" y="763" type="curve"/>
      <point x="1115" y="679"/>
      <point x="1104" y="584"/>
      <point x="1093" y="505" type="curve"/>
      <point x="1031" y="0" type="line"/>
      <point x="765" y="0" type="line"/>
      <point x="822" y="443" type="line"/>
      <point x="838" y="556"/>
      <point x="859" y="715"/>
      <point x="857" y="835" type="curve"/>
      <point x="856" y="970"/>
      <point x="823" y="985"/>
      <point x="756" y="985" type="curve" smooth="yes"/>
      <point x="670" y="985"/>
      <point x="549" y="882"/>
      <point x="468" y="752" type="curve"/>
      <point x="365" y="0" type="line"/>
    </contour>
  </outline>
</glyph>
<glyph name="q" format="1">
  <advance width="1191"/>
  <unicode hex="0071"/>
  <outline>
    <contour>
      <point x="409" y="-20" type="curve" smooth="yes"/>
      <point x="172" y="-20"/>
      <point x="72" y="167"/>
      <point x="72" y="407" type="curve" smooth="yes"/>
      <point x="72" y="755"/>
      <point x="297" y="1163"/>
      <point x="734" y="1163" type="curve" smooth="yes"/>
      <point x="812" y="1163"/>
      <point x="907" y="1140"/>
      <point x="966" y="1119" type="curve"/>
      <point x="967" y="1120" type="line"/>
      <point x="1095" y="1148" type="line"/>
      <point x="904" y="-293" type="line" smooth="yes"/>
      <point x="899" y="-328"/>
      <point x="910" y="-367"/>
      <point x="935" y="-367" type="curve" smooth="yes"/>
      <point x="957" y="-367"/>
      <point x="983" y="-354"/>
      <point x="1034" y="-311" type="curve"/>
      <point x="1063" y="-374" type="line"/>
      <point x="1044" y="-403"/>
      <point x="939" y="-518"/>
      <point x="789" y="-518" type="curve" smooth="yes"/>
      <point x="671" y="-518"/>
      <point x="626" y="-454"/>
      <point x="631" y="-366" type="curve"/>
      <point x="696" y="105" type="line"/>
      <point x="631" y="39"/>
      <point x="535" y="-20"/>
    </contour>
    <contour>
      <point x="496" y="138" type="curve" smooth="yes"/>
      <point x="587" y="138"/>
      <point x="669" y="207"/>
      <point x="719" y="274" type="curve"/>
      <point x="821" y="1011" type="line"/>
      <point x="788" y="1026"/>
      <point x="749" y="1032"/>
      <point x="707" y="1032" type="curve" smooth="yes"/>
      <point x="442" y="1032"/>
      <point x="345" y="675"/>
      <point x="345" y="420" type="curve" smooth="yes"/>
      <point x="345" y="240"/>
      <point x="402" y="138"/>
    </contour>
  </outline>
</glyph>
<glyph name="r" format="1">
  <advance width="840"/>
  <unicode hex="0072"/>
  <outline>
    <contour>
      <point x="108" y="0" type="line"/>
      <point x="235" y="962" type="line"/>
      <point x="131" y="1022" type="line"/>
      <point x="149" y="1111" type="line"/>
      <point x="434" y="1163" type="line"/>
      <point x="484" y="1139" type="line"/>
      <point x="484" y="889" type="line"/>
      <point x="526" y="1008"/>
      <point x="636" y="1163"/>
      <point x="812" y="1163" type="curve" smooth="yes"/>
      <point x="840" y="1163"/>
      <point x="867" y="1155"/>
      <point x="878" y="1146" type="curve"/>
      <point x="821" y="864" type="line"/>
      <point x="805" y="877"/>
      <point x="760" y="886"/>
      <point x="716" y="886" type="curve" smooth="yes"/>
      <point x="628" y="886"/>
      <point x="536" y="849"/>
      <point x="464" y="736" type="curve"/>
      <point x="367" y="0" type="line"/>
    </contour>
  </outline>
</glyph>
<glyph name="braceleft" format="1">
  <advance width="1034"/>
  <unicode hex="007B"/>
  <outline>
    <contour>
      <point x="254" y="-65" type="curve" smooth="yes"/>
      <point x="255" y="-36"/>
      <point x="346" y="579"/>
      <point x="346" y="579" type="curve"/>
      <point x="346" y="601"/>
      <point x="326" y="625"/>
      <point x="294" y="646" type="curve" smooth="yes"/>
      <point x="251" y="675"/>
      <point x="188" y="700"/>
      <point x="129" y="714" type="curve"/>
      <point x="147" y="838" type="line"/>
      <point x="212" y="854"/>
      <point x="287" y="876"/>
      <point x="339" y="903" type="curve" smooth="yes"/>
      <point x="375" y="922"/>
      <point x="400" y="943"/>
      <point x="404" y="966" type="curve" smooth="yes"/>
      <point x="485" y="1498" type="line" smooth="yes"/>
      <point x="516" y="1696"/>
      <point x="603" y="1750"/>
      <point x="760" y="1750" type="curve" smooth="yes"/>
      <point x="849" y="1750"/>
      <point x="1020" y="1703"/>
      <point x="1020" y="1703" type="curve"/>
      <point x="1020" y="1703"/>
      <point x="1004" y="1620"/>
      <point x="1003" y="1601" type="curve"/>
      <point x="727" y="1601" type="line"/>
      <point x="631" y="970" type="line" smooth="yes"/>
      <point x="623" y="916"/>
      <point x="586" y="879"/>
      <point x="533" y="846" type="curve" smooth="yes"/>
      <point x="504" y="829"/>
      <point x="388" y="776"/>
      <point x="388" y="776" type="curve"/>
      <point x="447" y="745"/>
      <point x="501" y="714"/>
      <point x="530" y="684" type="curve" smooth="yes"/>
      <point x="560" y="653"/>
      <point x="577" y="616"/>
      <point x="571" y="575" type="curve" smooth="yes"/>
      <point x="476" y="-55" type="line"/>
      <point x="751" y="-55" type="line"/>
      <point x="748" y="-70"/>
      <point x="737" y="-161"/>
      <point x="737" y="-161" type="curve"/>
      <point x="646" y="-187"/>
      <point x="572" y="-208"/>
      <point x="462" y="-208" type="curve" smooth="yes"/>
      <point x="337" y="-208"/>
      <point x="253" y="-175"/>
    </contour>
  </outline>
</glyph>
<glyph name="asciitilde" format="1">
  <advance width="1137"/>
  <unicode hex="007E"/>
  <outline>
    <contour>
      <point x="208" y="766" type="curve"/>
      <point x="130" y="862" type="line"/>
      <point x="162" y="958"/>
      <point x="291" y="1072"/>
      <point x="442" y="1072" type="curve" smooth="yes"/>
      <point x="610" y="1072"/>
      <point x="676" y="910"/>
      <point x="794" y="910" type="curve" smooth="yes"/>
      <point x="883" y="910"/>
      <point x="944" y="952"/>
      <point x="991" y="1022" type="curve"/>
      <point x="1079" y="926" type="line"/>
      <point x="1050" y="818"/>
      <point x="913" y="706"/>
      <point x="762" y="706" type="curve" smooth="yes"/>
      <point x="589" y="706"/>
      <point x="525" y="873"/>
      <point x="405" y="873" type="curve" smooth="yes"/>
      <point x="326" y="873"/>
      <point x="255" y="836"/>
    </contour>
  </outline>
</glyph>
<glyph name="cent" format="1">
  <advance width="1056"/>
  <unicode hex="00A2"/>
  <outline>
    <contour>
      <point x="403" y="-9" type="line"/>
      <point x="230" y="32"/>
      <point x="128" y="187"/>
      <point x="127" y="440" type="curve"/>
      <point x="124" y="727"/>
      <point x="287" y="1076"/>
      <point x="615" y="1149" type="curve"/>
      <point x="664" y="1358" type="line"/>
      <point x="814" y="1358" type="line"/>
      <point x="767" y="1162" type="line"/>
      <point x="840" y="1160"/>
      <point x="926" y="1145"/>
      <point x="982" y="1120" type="curve"/>
      <point x="910" y="867" type="line"/>
      <point x="853" y="903"/>
      <point x="757" y="1011"/>
      <point x="685" y="1011" type="curve" smooth="yes"/>
      <point x="546" y="1011"/>
      <point x="398" y="791"/>
      <point x="402" y="460" type="curve" smooth="yes"/>
      <point x="404" y="236"/>
      <point x="472" y="144"/>
      <point x="592" y="144" type="curve" smooth="yes"/>
      <point x="705" y="144"/>
      <point x="774" y="191"/>
      <point x="856" y="265" type="curve"/>
      <point x="907" y="173" type="line"/>
      <point x="859" y="107"/>
      <point x="736" y="0"/>
      <point x="551" y="-17" type="curve"/>
      <point x="515" y="-215" type="line"/>
      <point x="365" y="-215" type="line"/>
    </contour>
  </outline>
</glyph>
<glyph name="sterling" format="1">
  <advance width="1382"/>
  <unicode hex="00A3"/>
  <outline>
    <contour>
      <point x="39" y="-20" type="curve" smooth="yes"/>
      <point x="-12" y="-20"/>
      <point x="-58" y="3"/>
      <point x="-52" y="70" type="curve"/>
      <point x="-47" y="141"/>
      <point x="71" y="225"/>
      <point x="203" y="224" type="curve"/>
      <point x="239" y="275"/>
      <point x="276" y="378"/>
      <point x="288" y="458" type="curve"/>
      <point x="334" y="734" type="line"/>
      <point x="173" y="734" type="line"/>
      <point x="191" y="890" type="line"/>
      <point x="361" y="890" type="line"/>
      <point x="380" y="1002" type="line"/>
      <point x="425" y="1295"/>
      <point x="663" y="1566"/>
      <point x="961" y="1565" type="curve" smooth="yes"/>
      <point x="1072" y="1565"/>
      <point x="1179" y="1546"/>
      <point x="1245" y="1476" type="curve"/>
      <point x="1137" y="1287" type="line"/>
      <point x="1127" y="1310"/>
      <point x="1042" y="1415"/>
      <point x="900" y="1415" type="curve" smooth="yes"/>
      <point x="809" y="1415"/>
      <point x="697" y="1349"/>
      <point x="650" y="1055" type="curve" smooth="yes"/>
      <point x="647" y="1036"/>
      <point x="635" y="967"/>
      <point x="620" y="890" type="curve"/>
      <point x="904" y="890" type="line"/>
      <point x="887" y="734" type="line"/>
      <point x="591" y="734" type="line"/>
      <point x="582" y="685"/>
      <point x="576" y="646"/>
      <point x="574" y="634" type="curve" smooth="yes"/>
      <point x="533" y="386"/>
      <point x="436" y="273"/>
      <point x="383" y="193" type="curve"/>
      <point x="494" y="168"/>
      <point x="626" y="123"/>
      <point x="753" y="123" type="curve" smooth="yes"/>
      <point x="1003" y="123"/>
      <point x="1069" y="221"/>
      <point x="1069" y="340" type="curve" smooth="yes"/>
      <point x="1069" y="408"/>
      <point x="1018" y="471"/>
      <point x="981" y="500" type="curve"/>
      <point x="1153" y="654" type="line"/>
      <point x="1237" y="595"/>
      <point x="1315" y="477"/>
      <point x="1315" y="342" type="curve" smooth="yes"/>
      <point x="1315" y="169"/>
      <point x="1195" y="-20"/>
      <point x="812" y="-20" type="curve" smooth="yes"/>
      <point x="601" y="-20"/>
      <point x="438" y="50"/>
      <point x="276" y="93" type="curve"/>
      <point x="231" y="43"/>
      <point x="130" y="-20"/>
    </contour>
  </outline>
</glyph>
<glyph name="currency" format="1">
  <advance width="1540"/>
  <unicode hex="00A4"/>
  <outline>
    <contour>
      <point x="218" y="243" type="line"/>
      <point x="418" y="443" type="line"/>
      <point x="370" y="513"/>
      <point x="342" y="598"/>
      <point x="342" y="690" type="curve" smooth="yes"/>
      <point x="342" y="780"/>
      <point x="369" y="864"/>
      <point x="416" y="934" type="curve"/>
      <point x="215" y="1135" type="line"/>
      <point x="342" y="1263" type="line"/>
      <point x="545" y="1059" type="line"/>
      <point x="613" y="1102"/>
      <point x="694" y="1128"/>
      <point x="782" y="1128" type="curve" smooth="yes"/>
      <point x="874" y="1128"/>
      <point x="959" y="1100"/>
      <point x="1029" y="1052" type="curve"/>
      <point x="1228" y="1250" type="line"/>
      <point x="1355" y="1122" type="line"/>
      <point x="1155" y="922" type="line"/>
      <point x="1197" y="855"/>
      <point x="1222" y="775"/>
      <point x="1222" y="690" type="curve" smooth="yes"/>
      <point x="1222" y="601"/>
      <point x="1195" y="519"/>
      <point x="1150" y="450" type="curve"/>
      <point x="1353" y="248" type="line"/>
      <point x="1225" y="121" type="line"/>
      <point x="1023" y="323" type="line"/>
      <point x="954" y="278"/>
      <point x="871" y="252"/>
      <point x="782" y="252" type="curve" smooth="yes"/>
      <point x="696" y="252"/>
      <point x="616" y="276"/>
      <point x="548" y="318" type="curve"/>
      <point x="346" y="116" type="line"/>
    </contour>
    <contour>
      <point x="533" y="690" type="curve" smooth="yes"/>
      <point x="533" y="548"/>
      <point x="644" y="430"/>
      <point x="782" y="430" type="curve" smooth="yes"/>
      <point x="920" y="430"/>
      <point x="1031" y="548"/>
      <point x="1031" y="690" type="curve" smooth="yes"/>
      <point x="1031" y="833"/>
      <point x="920" y="951"/>
      <point x="782" y="951" type="curve" smooth="yes"/>
      <point x="644" y="951"/>
      <point x="533" y="833"/>
    </contour>
  </outline>
</glyph>
<glyph name="guillemotleft" format="1">
  <advance width="1878"/>
  <unicode hex="00AB"/>
  <outline>
    <contour>
      <point x="208" y="530" type="line"/>
      <point x="230" y="690" type="line"/>
      <point x="942" y="1091" type="line"/>
      <point x="990" y="946" type="line"/>
      <point x="505" y="610" type="line"/>
      <point x="899" y="279" type="line"/>
      <point x="814" y="147" type="line"/>
    </contour>
    <contour>
      <point x="884" y="530" type="line"/>
      <point x="906" y="690" type="line"/>
      <point x="1618" y="1091" type="line"/>
      <point x="1666" y="946" type="line"/>
      <point x="1181" y="610" type="line"/>
      <point x="1575" y="279" type="line"/>
      <point x="1490" y="147" type="line"/>
    </contour>
  </outline>
</glyph>
<glyph name="logicalnot" format="1">
  <advance width="1370"/>
  <unicode hex="00AC"/>
  <outline>
    <contour>
      <point x="211" y="711" type="line"/>
      <point x="228" y="863" type="line"/>
      <point x="1198" y="863" type="line"/>
      <point x="1136" y="322" type="line"/>
      <point x="939" y="322" type="line"/>
      <point x="984" y="711" type="line"/>
    </contour>
  </outline>
</glyph>
<glyph name="registered" format="1">
  <advance width="1768"/>
  <unicode hex="00AE"/>
  <outline>
    <contour>
      <point x="168" y="806" type="curve" smooth="yes"/>
      <point x="168" y="1230"/>
      <point x="512" y="1569"/>
      <point x="933" y="1569" type="curve" smooth="yes"/>
      <point x="1355" y="1569"/>
      <point x="1699" y="1230"/>
      <point x="1699" y="806" type="curve" smooth="yes"/>
      <point x="1699" y="382"/>
      <point x="1355" y="42"/>
      <point x="933" y="42" type="curve" smooth="yes"/>
      <point x="512" y="42"/>
      <point x="168" y="382"/>
    </contour>
    <contour>
      <point x="297" y="806" type="curve" smooth="yes"/>
      <point x="297" y="449"/>
      <point x="577" y="158"/>
      <point x="933" y="158" type="curve" smooth="yes"/>
      <point x="1290" y="158"/>
      <point x="1570" y="449"/>
      <point x="1570" y="806" type="curve" smooth="yes"/>
      <point x="1570" y="1162"/>
      <point x="1290" y="1454"/>
      <point x="933" y="1454" type="curve" smooth="yes"/>
      <point x="577" y="1454"/>
      <point x="297" y="1162"/>
    </contour>
    <contour>
      <point x="567" y="375" type="line"/>
      <point x="567" y="449" type="line"/>
      <point x="650" y="469" type="line"/>
      <point x="650" y="1134" type="line"/>
      <point x="567" y="1156" type="line"/>
      <point x="567" y="1240" type="line"/>
      <point x="716" y="1240" type="line"/>
      <point x="788" y="1238"/>
      <point x="804" y="1242"/>
      <point x="954" y="1245" type="curve"/>
      <point x="1165" y="1245"/>
      <point x="1276" y="1152"/>
      <point x="1280" y="1014" type="curve"/>
      <point x="1280" y="907"/>
      <point x="1253" y="802"/>
      <point x="1055" y="752" type="curve"/>
      <point x="1187" y="678"/>
      <point x="1202" y="520"/>
      <point x="1281" y="465" type="curve"/>
      <point x="1299" y="456"/>
      <point x="1317" y="453"/>
      <point x="1338" y="453" type="curve"/>
      <point x="1338" y="375" type="line"/>
      <point x="1153" y="375" type="line" smooth="yes"/>
      <point x="1075" y="375"/>
      <point x="1061" y="616"/>
      <point x="893" y="735" type="curve"/>
      <point x="815" y="735" type="line"/>
      <point x="815" y="469" type="line"/>
      <point x="912" y="449" type="line"/>
      <point x="912" y="375" type="line"/>
    </contour>
    <contour>
      <point x="815" y="843" type="line"/>
      <point x="850" y="836"/>
      <point x="896" y="835"/>
      <point x="947" y="835" type="curve" smooth="yes"/>
      <point x="1042" y="835"/>
      <point x="1098" y="906"/>
      <point x="1098" y="993" type="curve" smooth="yes"/>
      <point x="1098" y="1098"/>
      <point x="1029" y="1140"/>
      <point x="927" y="1140" type="curve" smooth="yes"/>
      <point x="886" y="1140"/>
      <point x="865" y="1142"/>
      <point x="815" y="1130" type="curve"/>
    </contour>
  </outline>
</glyph>
<glyph name="macron" format="1">
  <advance width="614"/>
  <unicode hex="00AF"/>
  <outline>
    <contour>
      <point x="26" y="1415" type="line"/>
      <point x="28" y="1594" type="line"/>
      <point x="568" y="1594" type="line"/>
      <point x="566" y="1415" type="line"/>
    </contour>
  </outline>
</glyph>
<glyph name="onesuperior" format="1">
  <advance width="1020"/>
  <unicode hex="00B9"/>
  <outline>
    <contour>
      <point x="242" y="636" type="line"/>
      <point x="253" y="734" type="line"/>
      <point x="469" y="760" type="line"/>
      <point x="553" y="1385" type="line"/>
      <point x="312" y="1338" type="line"/>
      <point x="303" y="1446" type="line"/>
      <point x="423" y="1481"/>
      <point x="663" y="1604"/>
      <point x="714" y="1645" type="curve"/>
      <point x="808" y="1624" type="line"/>
      <point x="689" y="760" type="line"/>
      <point x="909" y="733" type="line"/>
      <point x="898" y="636" type="line"/>
    </contour>
  </outline>
</glyph>
<glyph name="ordmasculine" format="1">
  <advance width="854"/>
  <unicode hex="00BA"/>
  <outline>
    <contour>
      <point x="413" y="733" type="curve" smooth="yes"/>
      <point x="213" y="735"/>
      <point x="73" y="872"/>
      <point x="73" y="1085" type="curve" smooth="yes"/>
      <point x="73" y="1409"/>
      <point x="325" y="1591"/>
      <point x="547" y="1589" type="curve" smooth="yes"/>
      <point x="767" y="1587"/>
      <point x="888" y="1440"/>
      <point x="888" y="1234" type="curve" smooth="yes"/>
      <point x="888" y="909"/>
      <point x="651" y="731"/>
    </contour>
    <contour>
      <point x="424" y="843" type="curve" smooth="yes"/>
      <point x="611" y="841"/>
      <point x="657" y="1041"/>
      <point x="657" y="1216" type="curve" smooth="yes"/>
      <point x="657" y="1375"/>
      <point x="608" y="1487"/>
      <point x="524" y="1486" type="curve" smooth="yes"/>
      <point x="352" y="1485"/>
      <point x="302" y="1263"/>
      <point x="302" y="1103" type="curve" smooth="yes"/>
      <point x="302" y="944"/>
      <point x="356" y="844"/>
    </contour>
  </outline>
</glyph>
<glyph name="guillemotright" format="1">
  <advance width="1878"/>
  <unicode hex="00BB"/>
  <outline>
    <contour>
      <point x="898" y="708" type="line"/>
      <point x="876" y="548" type="line"/>
      <point x="164" y="147" type="line"/>
      <point x="116" y="292" type="line"/>
      <point x="601" y="628" type="line"/>
      <point x="207" y="959" type="line"/>
      <point x="292" y="1091" type="line"/>
    </contour>
    <contour>
      <point x="1574" y="708" type="line"/>
      <point x="1552" y="548" type="line"/>
      <point x="840" y="147" type="line"/>
      <point x="792" y="292" type="line"/>
      <point x="1277" y="628" type="line"/>
      <point x="883" y="959" type="line"/>
      <point x="968" y="1091" type="line"/>
    </contour>
  </outline>
</glyph>
<glyph name="questiondown" format="1">
  <advance width="1021"/>
  <unicode hex="00BF"/>
  <outline>
    <contour>
      <point x="608" y="1119" type="curve" smooth="yes"/>
      <point x="530" y="1119"/>
      <point x="481" y="1174"/>
      <point x="481" y="1248" type="curve" smooth="yes"/>
      <point x="481" y="1363"/>
      <point x="583" y="1435"/>
      <point x="669" y="1435" type="curve" smooth="yes"/>
      <point x="750" y="1435"/>
      <point x="800" y="1375"/>
      <point x="800" y="1302" type="curve" smooth="yes"/>
      <point x="800" y="1189"/>
      <point x="694" y="1119"/>
    </contour>
    <contour>
      <point x="73" y="4" type="curve" smooth="yes"/>
      <point x="73" y="504"/>
      <point x="642" y="432"/>
      <point x="649" y="781" type="curve" smooth="yes"/>
      <point x="649" y="824"/>
      <point x="630" y="869"/>
      <point x="626" y="893" type="curve"/>
      <point x="784" y="946" type="line"/>
      <point x="799" y="945" type="line"/>
      <point x="835" y="905"/>
      <point x="864" y="818"/>
      <point x="864" y="734" type="curve" smooth="yes"/>
      <point x="864" y="582"/>
      <point x="711" y="482"/>
      <point x="547" y="387" type="curve"/>
      <point x="435" y="326"/>
      <point x="348" y="265"/>
      <point x="314" y="209" type="curve"/>
      <point x="304" y="181"/>
      <point x="295" y="144"/>
      <point x="294" y="112" type="curve" smooth="yes"/>
      <point x="290" y="-75"/>
      <point x="443" y="-212"/>
      <point x="653" y="-212" type="curve" smooth="yes"/>
      <point x="712" y="-212"/>
      <point x="790" y="-194"/>
      <point x="847" y="-166" type="curve"/>
      <point x="805" y="-346" type="line"/>
      <point x="775" y="-376"/>
      <point x="659" y="-409"/>
      <point x="575" y="-409" type="curve" smooth="yes"/>
      <point x="197" y="-409"/>
      <point x="73" y="-202"/>
    </contour>
  </outline>
</glyph>
<glyph name="Acircumflex" format="1">
  <advance width="1359"/>
  <unicode hex="00C2"/>
  <outline>
    <contour>
      <point x="7" y="125" type="line"/>
      <point x="687" y="1530" type="line"/>
      <point x="960" y="1530" type="line"/>
      <point x="1210" y="128" type="line"/>
      <point x="1368" y="96" type="line"/>
      <point x="1362" y="0" type="line"/>
      <point x="773" y="0" type="line"/>
      <point x="779" y="96" type="line"/>
      <point x="925" y="125" type="line"/>
      <point x="880" y="426" type="line"/>
      <point x="349" y="426" type="line"/>
      <point x="213" y="126" type="line"/>
      <point x="381" y="96" type="line"/>
      <point x="374" y="0" type="line"/>
      <point x="-141" y="0" type="line"/>
      <point x="-132" y="96" type="line"/>
    </contour>
    <contour>
      <point x="410" y="562" type="line"/>
      <point x="860" y="562" type="line"/>
      <point x="768" y="1177" type="line"/>
      <point x="758" y="1330" type="line"/>
    </contour>
    <contour>
      <point x="560" y="1607" type="line"/>
      <point x="476" y="1665" type="line"/>
      <point x="812" y="2007" type="line"/>
      <point x="990" y="2007" type="line"/>
      <point x="1201" y="1665" type="line"/>
      <point x="1105" y="1606" type="line"/>
      <point x="884" y="1824" type="line"/>
    </contour>
  </outline>
</glyph>
<glyph name="Atilde" format="1">
  <advance width="1359"/>
  <unicode hex="00C3"/>
  <outline>
    <contour>
      <point x="7" y="125" type="line"/>
      <point x="687" y="1530" type="line"/>
      <point x="960" y="1530" type="line"/>
      <point x="1210" y="128" type="line"/>
      <point x="1368" y="96" type="line"/>
      <point x="1362" y="0" type="line"/>
      <point x="773" y="0" type="line"/>
      <point x="779" y="96" type="line"/>
      <point x="925" y="125" type="line"/>
      <point x="880" y="426" type="line"/>
      <point x="349" y="426" type="line"/>
      <point x="213" y="126" type="line"/>
      <point x="381" y="96" type="line"/>
      <point x="374" y="0" type="line"/>
      <point x="-141" y="0" type="line"/>
      <point x="-132" y="96" type="line"/>
    </contour>
    <contour>
      <point x="410" y="562" type="line"/>
      <point x="860" y="562" type="line"/>
      <point x="768" y="1177" type="line"/>
      <point x="758" y="1330" type="line"/>
    </contour>
    <contour>
      <point x="559" y="1697" type="curve"/>
      <point x="497" y="1801" type="line"/>
      <point x="539" y="1886"/>
      <point x="647" y="1970"/>
      <point x="749" y="1970" type="curve" smooth="yes"/>
      <point x="893" y="1970"/>
      <point x="922" y="1825"/>
      <point x="1017" y="1825" type="curve" smooth="yes"/>
      <point x="1091" y="1825"/>
      <point x="1132" y="1882"/>
      <point x="1170" y="1930" type="curve"/>
      <point x="1243" y="1819" type="line"/>
      <point x="1209" y="1725"/>
      <point x="1101" y="1638"/>
      <point x="992" y="1638" type="curve" smooth="yes"/>
      <point x="822" y="1638"/>
      <point x="822" y="1781"/>
      <point x="706" y="1783" type="curve" smooth="yes"/>
      <point x="653" y="1784"/>
      <point x="597" y="1737"/>
    </contour>
  </outline>
</glyph>
<glyph name="Ccedilla" format="1">
  <advance width="1287"/>
  <unicode hex="00C7"/>
  <outline>
    <contour>
      <point x="364" y="-302" type="line"/>
      <point x="381" y="-311"/>
      <point x="408" y="-317"/>
      <point x="439" y="-317" type="curve" smooth="yes"/>
      <point x="531" y="-317"/>
      <point x="604" y="-273"/>
      <point x="615" y="-135" type="curve" smooth="yes"/>
      <point x="618" y="-86"/>
      <point x="617" y="-46"/>
      <point x="613" y="-15" type="curve"/>
      <point x="226" y="-4"/>
      <point x="79" y="308"/>
      <point x="77" y="632" type="curve" smooth="yes"/>
      <point x="72" y="1192"/>
      <point x="422" y="1548"/>
      <point x="889" y="1548" type="curve" smooth="yes"/>
      <point x="1090" y="1548"/>
      <point x="1178" y="1518"/>
      <point x="1246" y="1501" type="curve"/>
      <point x="1282" y="1491" type="line"/>
      <point x="1217" y="1107" type="line"/>
      <point x="1032" y="1107" type="line"/>
      <point x="1001" y="1392" type="line"/>
      <point x="963" y="1410"/>
      <point x="914" y="1424"/>
      <point x="849" y="1424" type="curve" smooth="yes"/>
      <point x="498" y="1424"/>
      <point x="370" y="969"/>
      <point x="377" y="653" type="curve" smooth="yes"/>
      <point x="384" y="353"/>
      <point x="470" y="123"/>
      <point x="686" y="123" type="curve" smooth="yes"/>
      <point x="755" y="123"/>
      <point x="870" y="138"/>
      <point x="928" y="212" type="curve"/>
      <point x="946" y="233"/>
      <point x="991" y="373"/>
      <point x="1002" y="411" type="curve"/>
      <point x="1163" y="411" type="line"/>
      <point x="1122" y="103" type="line"/>
      <point x="1061" y="68"/>
      <point x="945" y="9"/>
      <point x="759" y="-10" type="curve"/>
      <point x="775" y="-62"/>
      <point x="783" y="-142"/>
      <point x="780" y="-210" type="curve"/>
      <point x="768" y="-397"/>
      <point x="680" y="-472"/>
      <point x="497" y="-472" type="curve" smooth="yes"/>
      <point x="444" y="-472"/>
      <point x="351" y="-460"/>
      <point x="329" y="-444" type="curve"/>
    </contour>
  </outline>
</glyph>
<glyph name="Edieresis" format="1">
  <advance width="1274"/>
  <unicode hex="00CB"/>
  <outline>
    <contour>
      <point x="1006" y="1679" type="curve" smooth="yes"/>
      <point x="935" y="1679"/>
      <point x="880" y="1737"/>
      <point x="881" y="1812" type="curve" smooth="yes"/>
      <point x="882" y="1905"/>
      <point x="955" y="1972"/>
      <point x="1038" y="1972" type="curve" smooth="yes"/>
      <point x="1124" y="1972"/>
      <point x="1172" y="1915"/>
      <point x="1170" y="1843" type="curve" smooth="yes"/>
      <point x="1167" y="1749"/>
      <point x="1105" y="1679"/>
    </contour>
    <contour>
      <point x="571" y="1679" type="curve" smooth="yes"/>
      <point x="499" y="1679"/>
      <point x="444" y="1738"/>
      <point x="447" y="1812" type="curve"/>
      <point x="449" y="1905"/>
      <point x="519" y="1972"/>
      <point x="602" y="1972" type="curve" smooth="yes"/>
      <point x="688" y="1972"/>
      <point x="736" y="1915"/>
      <point x="734" y="1843" type="curve" smooth="yes"/>
      <point x="732" y="1749"/>
      <point x="669" y="1679"/>
    </contour>
    <contour>
      <point x="-14" y="0" type="line"/>
      <point x="-2" y="96" type="line"/>
      <point x="153" y="126" type="line"/>
      <point x="315" y="1400" type="line"/>
      <point x="176" y="1425" type="line"/>
      <point x="187" y="1530" type="line"/>
      <point x="1210" y="1530" type="line"/>
      <point x="1188" y="1190" type="line"/>
      <point x="1024" y="1190" type="line"/>
      <point x="983" y="1396" type="line"/>
      <point x="593" y="1416" type="line"/>
      <point x="521" y="868" type="line"/>
      <point x="962" y="883" type="line"/>
      <point x="944" y="696" type="line"/>
      <point x="505" y="717" type="line"/>
      <point x="425" y="126" type="line"/>
      <point x="935" y="156" type="line"/>
      <point x="1053" y="408" type="line"/>
      <point x="1211" y="385" type="line"/>
      <point x="1132" y="0" type="line"/>
    </contour>
  </outline>
</glyph>
<glyph name="Eth" format="1">
  <advance width="1467"/>
  <unicode hex="00D0"/>
  <outline>
    <contour>
      <point x="-13" y="2" type="line"/>
      <point x="-2" y="98" type="line"/>
      <point x="151" y="128" type="line"/>
      <point x="226" y="712" type="line"/>
      <point x="84" y="712" type="line"/>
      <point x="105" y="862" type="line"/>
      <point x="246" y="862" type="line"/>
      <point x="316" y="1402" type="line"/>
      <point x="178" y="1427" type="line"/>
      <point x="189" y="1532" type="line"/>
      <point x="496" y="1532" type="line"/>
      <point x="596" y="1533"/>
      <point x="701" y="1548"/>
      <point x="807" y="1548" type="curve" smooth="yes"/>
      <point x="1252" y="1549"/>
      <point x="1419" y="1284"/>
      <point x="1422" y="924" type="curve" smooth="yes"/>
      <point x="1427" y="384"/>
      <point x="1137" y="-20"/>
      <point x="584" y="-14" type="curve" smooth="yes"/>
      <point x="560" y="-14"/>
      <point x="515" y="-10"/>
      <point x="490" y="-7" type="curve" smooth="yes"/>
      <point x="442" y="-3"/>
      <point x="341" y="2"/>
      <point x="282" y="2" type="curve" smooth="yes"/>
    </contour>
    <contour>
      <point x="427" y="136" type="line"/>
      <point x="476" y="119"/>
      <point x="568" y="109"/>
      <point x="620" y="108" type="curve"/>
      <point x="997" y="122"/>
      <point x="1135" y="542"/>
      <point x="1132" y="898" type="curve" smooth="yes"/>
      <point x="1129" y="1280"/>
      <point x="1019" y="1427"/>
      <point x="761" y="1427" type="curve" smooth="yes"/>
      <point x="695" y="1427"/>
      <point x="618" y="1415"/>
      <point x="589" y="1404" type="curve"/>
      <point x="519" y="862" type="line"/>
      <point x="864" y="862" type="line"/>
      <point x="843" y="712" type="line"/>
      <point x="500" y="712" type="line"/>
    </contour>
  </outline>
</glyph>
<glyph name="Ograve" format="1">
  <advance width="1443"/>
  <unicode hex="00D2"/>
  <outline>
    <contour>
      <point x="869" y="1592" type="line"/>
      <point x="773" y="1628"/>
      <point x="577" y="1739"/>
      <point x="525" y="1846" type="curve"/>
      <point x="685" y="2007" type="line"/>
      <point x="955" y="1665" type="line"/>
    </contour>
    <contour>
      <point x="81" y="629" type="curve" smooth="yes"/>
      <point x="76" y="1127"/>
      <point x="363" y="1550"/>
      <point x="836" y="1550" type="curve" smooth="yes"/>
      <point x="1212" y="1550"/>
      <point x="1383" y="1247"/>
      <point x="1386" y="898" type="curve" smooth="yes"/>
      <point x="1390" y="411"/>
      <point x="1128" y="-20"/>
      <point x="639" y="-20" type="curve" smooth="yes"/>
      <point x="277" y="-20"/>
      <point x="85" y="242"/>
    </contour>
    <contour>
      <point x="668" y="101" type="curve" smooth="yes"/>
      <point x="936" y="100"/>
      <point x="1099" y="438"/>
      <point x="1095" y="873" type="curve" smooth="yes"/>
      <point x="1092" y="1224"/>
      <point x="1000" y="1426"/>
      <point x="805" y="1426" type="curve" smooth="yes"/>
      <point x="544" y="1426"/>
      <point x="370" y="1073"/>
      <point x="374" y="680" type="curve" smooth="yes"/>
      <point x="377" y="363"/>
      <point x="438" y="102"/>
    </contour>
  </outline>
</glyph>
<glyph name="Otilde" format="1">
  <advance width="1443"/>
  <unicode hex="00D5"/>
  <outline>
    <contour>
      <point x="594" y="1697" type="curve"/>
      <point x="532" y="1801" type="line"/>
      <point x="574" y="1886"/>
      <point x="682" y="1970"/>
      <point x="784" y="1970" type="curve" smooth="yes"/>
      <point x="928" y="1970"/>
      <point x="957" y="1825"/>
      <point x="1052" y="1825" type="curve" smooth="yes"/>
      <point x="1126" y="1825"/>
      <point x="1167" y="1882"/>
      <point x="1205" y="1930" type="curve"/>
      <point x="1278" y="1819" type="line"/>
      <point x="1244" y="1725"/>
      <point x="1136" y="1638"/>
      <point x="1027" y="1638" type="curve" smooth="yes"/>
      <point x="857" y="1638"/>
      <point x="857" y="1781"/>
      <point x="741" y="1783" type="curve" smooth="yes"/>
      <point x="688" y="1784"/>
      <point x="632" y="1737"/>
    </contour>
    <contour>
      <point x="81" y="629" type="curve" smooth="yes"/>
      <point x="76" y="1127"/>
      <point x="363" y="1550"/>
      <point x="836" y="1550" type="curve" smooth="yes"/>
      <point x="1212" y="1550"/>
      <point x="1383" y="1247"/>
      <point x="1386" y="898" type="curve" smooth="yes"/>
      <point x="1390" y="411"/>
      <point x="1128" y="-20"/>
      <point x="639" y="-20" type="curve" smooth="yes"/>
      <point x="277" y="-20"/>
      <point x="85" y="242"/>
    </contour>
    <contour>
      <point x="668" y="101" type="curve" smooth="yes"/>
      <point x="936" y="100"/>
      <point x="1099" y="438"/>
      <point x="1095" y="873" type="curve" smooth="yes"/>
      <point x="1092" y="1224"/>
      <point x="1000" y="1426"/>
      <point x="805" y="1426" type="curve" smooth="yes"/>
      <point x="544" y="1426"/>
      <point x="370" y="1073"/>
      <point x="374" y="680" type="curve" smooth="yes"/>
      <point x="377" y="363"/>
      <point x="438" y="102"/>
    </contour>
  </outline>
</glyph>
<glyph name="Odieresis" format="1">
  <advance width="1443"/>
  <unicode hex="00D6"/>
  <outline>
    <contour>
      <point x="1069" y="1679" type="curve" smooth="yes"/>
      <point x="998" y="1679"/>
      <point x="943" y="1737"/>
      <point x="944" y="1812" type="curve" smooth="yes"/>
      <point x="945" y="1905"/>
      <point x="1018" y="1972"/>
      <point x="1101" y="1972" type="curve" smooth="yes"/>
      <point x="1187" y="1972"/>
      <point x="1235" y="1915"/>
      <point x="1233" y="1843" type="curve" smooth="yes"/>
      <point x="1230" y="1749"/>
      <point x="1168" y="1679"/>
    </contour>
    <contour>
      <point x="634" y="1679" type="curve" smooth="yes"/>
      <point x="562" y="1679"/>
      <point x="507" y="1738"/>
      <point x="510" y="1812" type="curve"/>
      <point x="512" y="1905"/>
      <point x="582" y="1972"/>
      <point x="665" y="1972" type="curve" smooth="yes"/>
      <point x="751" y="1972"/>
      <point x="799" y="1915"/>
      <point x="797" y="1843" type="curve" smooth="yes"/>
      <point x="795" y="1749"/>
      <point x="732" y="1679"/>
    </contour>
    <contour>
      <point x="81" y="629" type="curve" smooth="yes"/>
      <point x="76" y="1127"/>
      <point x="363" y="1550"/>
      <point x="836" y="1550" type="curve" smooth="yes"/>
      <point x="1212" y="1550"/>
      <point x="1383" y="1247"/>
      <point x="1386" y="898" type="curve" smooth="yes"/>
      <point x="1390" y="411"/>
      <point x="1128" y="-20"/>
      <point x="639" y="-20" type="curve" smooth="yes"/>
      <point x="277" y="-20"/>
      <point x="85" y="242"/>
    </contour>
    <contour>
      <point x="668" y="101" type="curve" smooth="yes"/>
      <point x="936" y="100"/>
      <point x="1099" y="438"/>
      <point x="1095" y="873" type="curve" smooth="yes"/>
      <point x="1092" y="1224"/>
      <point x="1000" y="1426"/>
      <point x="805" y="1426" type="curve" smooth="yes"/>
      <point x="544" y="1426"/>
      <point x="370" y="1073"/>
      <point x="374" y="680" type="curve" smooth="yes"/>
      <point x="377" y="363"/>
      <point x="438" y="102"/>
    </contour>
  </outline>
</glyph>
<glyph name="Oslash" format="1">
  <advance width="1443"/>
  <unicode hex="00D8"/>
  <outline>
    <contour>
      <point x="84" y="-78" type="line"/>
      <point x="237" y="147" type="line"/>
      <point x="136" y="262"/>
      <point x="83" y="429"/>
      <point x="81" y="631" type="curve" smooth="yes"/>
      <point x="76" y="1129"/>
      <point x="363" y="1552"/>
      <point x="836" y="1552" type="curve" smooth="yes"/>
      <point x="950" y="1552"/>
      <point x="1046" y="1524"/>
      <point x="1123" y="1475" type="curve"/>
      <point x="1258" y="1670" type="line"/>
      <point x="1347" y="1621" type="line"/>
      <point x="1203" y="1411" type="line"/>
      <point x="1325" y="1289"/>
      <point x="1384" y="1103"/>
      <point x="1386" y="900" type="curve" smooth="yes"/>
      <point x="1390" y="413"/>
      <point x="1128" y="-18"/>
      <point x="639" y="-18" type="curve" smooth="yes"/>
      <point x="508" y="-18"/>
      <point x="399" y="16"/>
      <point x="313" y="78" type="curve"/>
      <point x="173" y="-127" type="line"/>
    </contour>
    <contour>
      <point x="405" y="367" type="curve"/>
      <point x="1002" y="1317" type="line"/>
      <point x="955" y="1389"/>
      <point x="890" y="1428"/>
      <point x="805" y="1428" type="curve" smooth="yes"/>
      <point x="544" y="1428"/>
      <point x="370" y="1075"/>
      <point x="374" y="682" type="curve" smooth="yes"/>
      <point x="375" y="566"/>
      <point x="383" y="458"/>
    </contour>
    <contour>
      <point x="448" y="247" type="line"/>
      <point x="493" y="158"/>
      <point x="563" y="103"/>
      <point x="668" y="103" type="curve" smooth="yes"/>
      <point x="936" y="102"/>
      <point x="1099" y="440"/>
      <point x="1095" y="875" type="curve" smooth="yes"/>
      <point x="1094" y="1008"/>
      <point x="1080" y="1119"/>
      <point x="1052" y="1207" type="curve"/>
    </contour>
  </outline>
</glyph>
<glyph name="Ugrave" format="1">
  <advance width="1413"/>
  <unicode hex="00D9"/>
  <outline>
    <contour>
      <point x="897" y="1592" type="line"/>
      <point x="801" y="1628"/>
      <point x="605" y="1739"/>
      <point x="553" y="1846" type="curve"/>
      <point x="713" y="2007" type="line"/>
      <point x="983" y="1665" type="line"/>
    </contour>
    <contour>
      <point x="137" y="428" type="curve" smooth="yes"/>
      <point x="136" y="480"/>
      <point x="138" y="534"/>
      <point x="144" y="593" type="curve"/>
      <point x="248" y="1401" type="line"/>
      <point x="109" y="1425" type="line"/>
      <point x="122" y="1530" type="line"/>
      <point x="715" y="1530" type="line"/>
      <point x="705" y="1426" type="line"/>
      <point x="531" y="1400" type="line"/>
      <point x="430" y="617" type="line"/>
      <point x="422" y="540"/>
      <point x="416" y="472"/>
      <point x="416" y="420" type="curve" smooth="yes"/>
      <point x="418" y="217"/>
      <point x="507" y="97"/>
      <point x="680" y="97" type="curve" smooth="yes"/>
      <point x="916" y="97"/>
      <point x="1032" y="294"/>
      <point x="1073" y="626" type="curve"/>
      <point x="1177" y="1400" type="line"/>
      <point x="1026" y="1425" type="line"/>
      <point x="1037" y="1530" type="line"/>
      <point x="1495" y="1530" type="line"/>
      <point x="1482" y="1425" type="line"/>
      <point x="1356" y="1401" type="line"/>
      <point x="1255" y="627" type="line"/>
      <point x="1195" y="156"/>
      <point x="988" y="-20"/>
      <point x="634" y="-20" type="curve" smooth="yes"/>
      <point x="279" y="-20"/>
      <point x="139" y="166"/>
    </contour>
  </outline>
</glyph>
<glyph name="Udieresis" format="1">
  <advance width="1413"/>
  <unicode hex="00DC"/>
  <outline>
    <contour>
      <point x="1097" y="1679" type="curve" smooth="yes"/>
      <point x="1026" y="1679"/>
      <point x="971" y="1737"/>
      <point x="972" y="1812" type="curve" smooth="yes"/>
      <point x="973" y="1905"/>
      <point x="1046" y="1972"/>
      <point x="1129" y="1972" type="curve" smooth="yes"/>
      <point x="1215" y="1972"/>
      <point x="1263" y="1915"/>
      <point x="1261" y="1843" type="curve" smooth="yes"/>
      <point x="1258" y="1749"/>
      <point x="1196" y="1679"/>
    </contour>
    <contour>
      <point x="662" y="1679" type="curve" smooth="yes"/>
      <point x="590" y="1679"/>
      <point x="535" y="1738"/>
      <point x="538" y="1812" type="curve"/>
      <point x="540" y="1905"/>
      <point x="610" y="1972"/>
      <point x="693" y="1972" type="curve" smooth="yes"/>
      <point x="779" y="1972"/>
      <point x="827" y="1915"/>
      <point x="825" y="1843" type="curve" smooth="yes"/>
      <point x="823" y="1749"/>
      <point x="760" y="1679"/>
    </contour>
    <contour>
      <point x="137" y="428" type="curve" smooth="yes"/>
      <point x="136" y="480"/>
      <point x="138" y="534"/>
      <point x="144" y="593" type="curve"/>
      <point x="248" y="1401" type="line"/>
      <point x="109" y="1425" type="line"/>
      <point x="122" y="1530" type="line"/>
      <point x="715" y="1530" type="line"/>
      <point x="705" y="1426" type="line"/>
      <point x="531" y="1400" type="line"/>
      <point x="430" y="617" type="line"/>
      <point x="422" y="540"/>
      <point x="416" y="472"/>
      <point x="416" y="420" type="curve" smooth="yes"/>
      <point x="418" y="217"/>
      <point x="507" y="97"/>
      <point x="680" y="97" type="curve" smooth="yes"/>
      <point x="916" y="97"/>
      <point x="1032" y="294"/>
      <point x="1073" y="626" type="curve"/>
      <point x="1177" y="1400" type="line"/>
      <point x="1026" y="1425" type="line"/>
      <point x="1037" y="1530" type="line"/>
      <point x="1495" y="1530" type="line"/>
      <point x="1482" y="1425" type="line"/>
      <point x="1356" y="1401" type="line"/>
      <point x="1255" y="627" type="line"/>
      <point x="1195" y="156"/>
      <point x="988" y="-20"/>
      <point x="634" y="-20" type="curve" smooth="yes"/>
      <point x="279" y="-20"/>
      <point x="139" y="166"/>
    </contour>
  </outline>
</glyph>
<glyph name="germandbls" format="1">
  <advance width="1194"/>
  <unicode hex="00DF"/>
  <outline>
    <contour>
      <point x="40" y="0" type="line"/>
      <point x="155" y="927" type="line"/>
      <point x="236" y="1527"/>
      <point x="547" y="1585"/>
      <point x="781" y="1585" type="curve" smooth="yes"/>
      <point x="977" y="1585"/>
      <point x="1143" y="1482"/>
      <point x="1143" y="1288" type="curve" smooth="yes"/>
      <point x="1143" y="994"/>
      <point x="860" y="996"/>
      <point x="860" y="841" type="curve" smooth="yes"/>
      <point x="860" y="794"/>
      <point x="897" y="743"/>
      <point x="972" y="646" type="curve"/>
      <point x="1033" y="564"/>
      <point x="1120" y="465"/>
      <point x="1120" y="325" type="curve" smooth="yes"/>
      <point x="1120" y="117"/>
      <point x="928" y="-16"/>
      <point x="689" y="-16" type="curve" smooth="yes"/>
      <point x="565" y="-16"/>
      <point x="480" y="8"/>
      <point x="434" y="31" type="curve"/>
      <point x="460" y="218" type="line"/>
      <point x="491" y="178"/>
      <point x="587" y="115"/>
      <point x="667" y="116" type="curve" smooth="yes"/>
      <point x="760" y="117"/>
      <point x="847" y="128"/>
      <point x="847" y="282" type="curve" smooth="yes"/>
      <point x="847" y="361"/>
      <point x="797" y="459"/>
      <point x="757" y="523" type="curve"/>
      <point x="702" y="593"/>
      <point x="635" y="706"/>
      <point x="635" y="793" type="curve" smooth="yes"/>
      <point x="635" y="888"/>
      <point x="680" y="934"/>
      <point x="741" y="999" type="curve"/>
      <point x="822" y="1081"/>
      <point x="877" y="1173"/>
      <point x="877" y="1287" type="curve" smooth="yes"/>
      <point x="877" y="1385"/>
      <point x="827" y="1464"/>
      <point x="723" y="1464" type="curve" smooth="yes"/>
      <point x="574" y="1464"/>
      <point x="463" y="1303"/>
      <point x="412" y="867" type="curve"/>
      <point x="304" y="0" type="line"/>
    </contour>
  </outline>
</glyph>
<glyph name="ccedilla" format="1">
  <advance width="924"/>
  <unicode hex="00E7"/>
  <outline>
    <contour>
      <point x="161" y="-304" type="line"/>
      <point x="178" y="-313"/>
      <point x="205" y="-319"/>
      <point x="236" y="-319" type="curve" smooth="yes"/>
      <point x="328" y="-319"/>
      <point x="401" y="-275"/>
      <point x="412" y="-137" type="curve" smooth="yes"/>
      <point x="415" y="-88"/>
      <point x="414" y="-49"/>
      <point x="410" y="-19" type="curve"/>
      <point x="201" y="-2"/>
      <point x="76" y="159"/>
      <point x="74" y="440" type="curve" smooth="yes"/>
      <point x="71" y="763"/>
      <point x="277" y="1163"/>
      <point x="691" y="1163" type="curve" smooth="yes"/>
      <point x="768" y="1163"/>
      <point x="867" y="1148"/>
      <point x="929" y="1120" type="curve"/>
      <point x="857" y="867" type="line"/>
      <point x="800" y="903"/>
      <point x="704" y="1011"/>
      <point x="632" y="1011" type="curve" smooth="yes"/>
      <point x="493" y="1011"/>
      <point x="345" y="791"/>
      <point x="349" y="460" type="curve" smooth="yes"/>
      <point x="351" y="236"/>
      <point x="419" y="144"/>
      <point x="539" y="144" type="curve" smooth="yes"/>
      <point x="652" y="144"/>
      <point x="721" y="191"/>
      <point x="803" y="265" type="curve"/>
      <point x="854" y="173" type="line"/>
      <point x="811" y="114"/>
      <point x="708" y="21"/>
      <point x="555" y="-9" type="curve"/>
      <point x="572" y="-61"/>
      <point x="581" y="-143"/>
      <point x="577" y="-212" type="curve" smooth="yes"/>
      <point x="565" y="-399"/>
      <point x="477" y="-474"/>
      <point x="294" y="-474" type="curve" smooth="yes"/>
      <point x="241" y="-474"/>
      <point x="148" y="-462"/>
      <point x="126" y="-446" type="curve"/>
    </contour>
  </outline>
</glyph>
<glyph name="edieresis" format="1">
  <advance width="1050"/>
  <unicode hex="00EB"/>
  <outline>
    <contour>
      <point x="896" y="1363" type="curve" smooth="yes"/>
      <point x="824" y="1363"/>
      <point x="765" y="1433"/>
      <point x="767" y="1507" type="curve" smooth="yes"/>
      <point x="770" y="1599"/>
      <point x="835" y="1676"/>
      <point x="928" y="1676" type="curve" smooth="yes"/>
      <point x="1013" y="1676"/>
      <point x="1066" y="1609"/>
      <point x="1064" y="1538" type="curve" smooth="yes"/>
      <point x="1061" y="1444"/>
      <point x="1000" y="1363"/>
    </contour>
    <contour>
      <point x="460" y="1363" type="curve" smooth="yes"/>
      <point x="388" y="1363"/>
      <point x="329" y="1433"/>
      <point x="331" y="1507" type="curve" smooth="yes"/>
      <point x="334" y="1599"/>
      <point x="399" y="1676"/>
      <point x="492" y="1676" type="curve" smooth="yes"/>
      <point x="577" y="1676"/>
      <point x="630" y="1609"/>
      <point x="628" y="1538" type="curve" smooth="yes"/>
      <point x="625" y="1444"/>
      <point x="564" y="1363"/>
    </contour>
    <contour>
      <point x="74" y="430" type="curve" smooth="yes"/>
      <point x="78" y="832"/>
      <point x="344" y="1163"/>
      <point x="693" y="1163" type="curve" smooth="yes"/>
      <point x="903" y="1163"/>
      <point x="997" y="1054"/>
      <point x="1000" y="913" type="curve" smooth="yes"/>
      <point x="1005" y="593"/>
      <point x="579" y="464"/>
      <point x="358" y="458" type="curve"/>
      <point x="351" y="290"/>
      <point x="410" y="139"/>
      <point x="559" y="139" type="curve" smooth="yes"/>
      <point x="688" y="139"/>
      <point x="794" y="202"/>
      <point x="878" y="290" type="curve"/>
      <point x="933" y="197" type="line"/>
      <point x="877" y="114"/>
      <point x="718" y="-20"/>
      <point x="493" y="-20" type="curve" smooth="yes"/>
      <point x="191" y="-20"/>
      <point x="71" y="202"/>
    </contour>
    <contour>
      <point x="360" y="573" type="curve"/>
      <point x="500" y="580"/>
      <point x="740" y="691"/>
      <point x="737" y="891" type="curve" smooth="yes"/>
      <point x="735" y="989"/>
      <point x="696" y="1036"/>
      <point x="633" y="1036" type="curve" smooth="yes"/>
      <point x="454" y="1036"/>
      <point x="376" y="750"/>
    </contour>
  </outline>
</glyph>
<glyph name="igrave" format="1">
  <advance width="655"/>
  <unicode hex="00EC"/>
  <outline>
    <contour>
      <point x="136" y="121" type="curve" smooth="yes"/>
      <point x="154" y="281"/>
      <point x="202" y="596"/>
      <point x="255" y="980" type="curve"/>
      <point x="99" y="1031" type="line"/>
      <point x="117" y="1112" type="line"/>
      <point x="491" y="1163" type="line"/>
      <point x="543" y="1139" type="line"/>
      <point x="409" y="207" type="line" smooth="yes"/>
      <point x="402" y="158"/>
      <point x="412" y="131"/>
      <point x="438" y="131" type="curve" smooth="yes"/>
      <point x="460" y="131"/>
      <point x="486" y="144"/>
      <point x="537" y="188" type="curve"/>
      <point x="567" y="125" type="line"/>
      <point x="546" y="95"/>
      <point x="445" y="-20"/>
      <point x="297" y="-20" type="curve" smooth="yes"/>
      <point x="186" y="-20"/>
      <point x="126" y="29"/>
    </contour>
    <contour>
      <point x="397" y="1246" type="line"/>
      <point x="314" y="1281"/>
      <point x="75" y="1459"/>
      <point x="11" y="1571" type="curve"/>
      <point x="189" y="1743" type="line"/>
      <point x="477" y="1311" type="line"/>
    </contour>
  </outline>
</glyph>
<glyph name="iacute" format="1">
  <advance width="655"/>
  <unicode hex="00ED"/>
  <outline>
    <contour>
      <point x="391" y="1241" type="curve"/>
      <point x="313" y="1312" type="line"/>
      <point x="630" y="1743" type="line"/>
      <point x="797" y="1566" type="line"/>
      <point x="761" y="1498"/>
      <point x="510" y="1287"/>
    </contour>
    <contour>
      <point x="136" y="121" type="curve" smooth="yes"/>
      <point x="154" y="281"/>
      <point x="202" y="596"/>
      <point x="255" y="980" type="curve"/>
      <point x="99" y="1031" type="line"/>
      <point x="117" y="1112" type="line"/>
      <point x="491" y="1163" type="line"/>
      <point x="543" y="1139" type="line"/>
      <point x="409" y="207" type="line" smooth="yes"/>
      <point x="402" y="158"/>
      <point x="412" y="131"/>
      <point x="438" y="131" type="curve" smooth="yes"/>
      <point x="460" y="131"/>
      <point x="486" y="144"/>
      <point x="537" y="188" type="curve"/>
      <point x="567" y="125" type="line"/>
      <point x="546" y="95"/>
      <point x="445" y="-20"/>
      <point x="297" y="-20" type="curve" smooth="yes"/>
      <point x="186" y="-20"/>
      <point x="126" y="29"/>
    </contour>
  </outline>
</glyph>
<glyph name="idieresis" format="1">
  <advance width="655"/>
  <unicode hex="00EF"/>
  <outline>
    <contour>
      <point x="646" y="1363" type="curve" smooth="yes"/>
      <point x="574" y="1363"/>
      <point x="515" y="1433"/>
      <point x="517" y="1507" type="curve" smooth="yes"/>
      <point x="520" y="1599"/>
      <point x="585" y="1676"/>
      <point x="678" y="1676" type="curve" smooth="yes"/>
      <point x="763" y="1676"/>
      <point x="816" y="1609"/>
      <point x="814" y="1538" type="curve" smooth="yes"/>
      <point x="811" y="1444"/>
      <point x="750" y="1363"/>
    </contour>
    <contour>
      <point x="210" y="1363" type="curve" smooth="yes"/>
      <point x="138" y="1363"/>
      <point x="79" y="1433"/>
      <point x="81" y="1507" type="curve" smooth="yes"/>
      <point x="84" y="1599"/>
      <point x="149" y="1676"/>
      <point x="242" y="1676" type="curve" smooth="yes"/>
      <point x="327" y="1676"/>
      <point x="380" y="1609"/>
      <point x="378" y="1538" type="curve" smooth="yes"/>
      <point x="375" y="1444"/>
      <point x="314" y="1363"/>
    </contour>
    <contour>
      <point x="136" y="121" type="curve" smooth="yes"/>
      <point x="154" y="281"/>
      <point x="202" y="596"/>
      <point x="255" y="980" type="curve"/>
      <point x="99" y="1031" type="line"/>
      <point x="117" y="1112" type="line"/>
      <point x="491" y="1163" type="line"/>
      <point x="543" y="1139" type="line"/>
      <point x="409" y="207" type="line" smooth="yes"/>
      <point x="402" y="158"/>
      <point x="412" y="131"/>
      <point x="438" y="131" type="curve" smooth="yes"/>
      <point x="460" y="131"/>
      <point x="486" y="144"/>
      <point x="537" y="188" type="curve"/>
      <point x="567" y="125" type="line"/>
      <point x="546" y="95"/>
      <point x="445" y="-20"/>
      <point x="297" y="-20" type="curve" smooth="yes"/>
      <point x="186" y="-20"/>
      <point x="126" y="29"/>
    </contour>
  </outline>
</glyph>
<glyph name="otilde" format="1">
  <advance width="1170"/>
  <unicode hex="00F5"/>
  <outline>
    <contour>
      <point x="74" y="439" type="curve"/>
      <point x="65" y="817"/>
      <point x="306" y="1163"/>
      <point x="670" y="1163" type="curve" smooth="yes"/>
      <point x="939" y="1163"/>
      <point x="1084" y="994"/>
      <point x="1091" y="703" type="curve" smooth="yes"/>
      <point x="1101" y="325"/>
      <point x="859" y="-20"/>
      <point x="494" y="-20" type="curve" smooth="yes"/>
      <point x="225" y="-20"/>
      <point x="82" y="148"/>
    </contour>
    <contour>
      <point x="534" y="105" type="curve" smooth="yes"/>
      <point x="738" y="105"/>
      <point x="813" y="446"/>
      <point x="807" y="705" type="curve"/>
      <point x="803" y="926"/>
      <point x="747" y="1033"/>
      <point x="635" y="1033" type="curve" smooth="yes"/>
      <point x="431" y="1033"/>
      <point x="350" y="693"/>
      <point x="356" y="438" type="curve" smooth="yes"/>
      <point x="361" y="216"/>
      <point x="414" y="105"/>
    </contour>
    <contour>
      <point x="378" y="1392" type="curve"/>
      <point x="316" y="1496" type="line"/>
      <point x="358" y="1581"/>
      <point x="466" y="1665"/>
      <point x="568" y="1665" type="curve" smooth="yes"/>
      <point x="712" y="1665"/>
      <point x="741" y="1520"/>
      <point x="836" y="1520" type="curve" smooth="yes"/>
      <point x="910" y="1520"/>
      <point x="951" y="1577"/>
      <point x="989" y="1625" type="curve"/>
      <point x="1062" y="1514" type="line"/>
      <point x="1028" y="1420"/>
      <point x="920" y="1333"/>
      <point x="811" y="1333" type="curve" smooth="yes"/>
      <point x="641" y="1333"/>
      <point x="641" y="1476"/>
      <point x="525" y="1478" type="curve" smooth="yes"/>
      <point x="472" y="1479"/>
      <point x="416" y="1432"/>
    </contour>
  </outline>
</glyph>
<glyph name="divide" format="1">
  <advance width="1370"/>
  <unicode hex="00F7"/>
  <outline>
    <contour>
      <point x="746" y="1031" type="curve" smooth="yes"/>
      <point x="673" y="1031"/>
      <point x="612" y="1089"/>
      <point x="616" y="1174" type="curve" smooth="yes"/>
      <point x="621" y="1278"/>
      <point x="716" y="1347"/>
      <point x="799" y="1347" type="curve" smooth="yes"/>
      <point x="895" y="1347"/>
      <point x="938" y="1279"/>
      <point x="934" y="1204" type="curve" smooth="yes"/>
      <point x="929" y="1093"/>
      <point x="832" y="1031"/>
    </contour>
    <contour>
      <point x="259" y="685" type="line"/>
      <point x="277" y="862" type="line"/>
      <point x="1181" y="862" type="line"/>
      <point x="1163" y="685" type="line"/>
    </contour>
    <contour>
      <point x="512" y="344" type="curve" smooth="yes"/>
      <point x="517" y="448"/>
      <point x="611" y="517"/>
      <point x="695" y="517" type="curve" smooth="yes"/>
      <point x="791" y="517"/>
      <point x="833" y="449"/>
      <point x="829" y="374" type="curve" smooth="yes"/>
      <point x="823" y="263"/>
      <point x="728" y="201"/>
      <point x="641" y="201" type="curve" smooth="yes"/>
      <point x="568" y="201"/>
      <point x="507" y="259"/>
    </contour>
  </outline>
</glyph>
<glyph name="oslash" format="1">
  <advance width="1170"/>
  <unicode hex="00F8"/>
  <outline>
    <contour>
      <point x="61" y="-83" type="line"/>
      <point x="189" y="99" type="line"/>
      <point x="117" y="178"/>
      <point x="78" y="293"/>
      <point x="74" y="441" type="curve" smooth="yes"/>
      <point x="65" y="819"/>
      <point x="306" y="1165"/>
      <point x="670" y="1165" type="curve" smooth="yes"/>
      <point x="751" y="1165"/>
      <point x="821" y="1149"/>
      <point x="879" y="1120" type="curve"/>
      <point x="1008" y="1303" type="line"/>
      <point x="1097" y="1254" type="line"/>
      <point x="962" y="1061" type="line"/>
      <point x="1043" y="982"/>
      <point x="1087" y="861"/>
      <point x="1091" y="705" type="curve" smooth="yes"/>
      <point x="1101" y="327"/>
      <point x="859" y="-18"/>
      <point x="494" y="-18" type="curve" smooth="yes"/>
      <point x="404" y="-18"/>
      <point x="329" y="0"/>
      <point x="268" y="36" type="curve"/>
      <point x="150" y="-132" type="line"/>
    </contour>
    <contour>
      <point x="362" y="338" type="curve"/>
      <point x="756" y="962" type="line"/>
      <point x="728" y="1011"/>
      <point x="688" y="1035"/>
      <point x="635" y="1035" type="curve" smooth="yes"/>
      <point x="431" y="1035"/>
      <point x="350" y="695"/>
      <point x="356" y="440" type="curve" smooth="yes"/>
      <point x="357" y="403"/>
      <point x="359" y="369"/>
    </contour>
    <contour>
      <point x="395" y="203" type="line"/>
      <point x="424" y="139"/>
      <point x="469" y="107"/>
      <point x="534" y="107" type="curve" smooth="yes"/>
      <point x="738" y="107"/>
      <point x="813" y="448"/>
      <point x="807" y="707" type="curve" smooth="yes"/>
      <point x="806" y="756"/>
      <point x="803" y="799"/>
      <point x="797" y="837" type="curve"/>
    </contour>
  </outline>
</glyph>
<glyph name="Abreve" format="1">
  <advance width="1359"/>
  <unicode hex="0102"/>
  <outline>
    <contour>
      <point x="7" y="125" type="line"/>
      <point x="687" y="1530" type="line"/>
      <point x="960" y="1530" type="line"/>
      <point x="1210" y="128" type="line"/>
      <point x="1368" y="96" type="line"/>
      <point x="1362" y="0" type="line"/>
      <point x="773" y="0" type="line"/>
      <point x="779" y="96" type="line"/>
      <point x="925" y="125" type="line"/>
      <point x="880" y="426" type="line"/>
      <point x="349" y="426" type="line"/>
      <point x="213" y="126" type="line"/>
      <point x="381" y="96" type="line"/>
      <point x="374" y="0" type="line"/>
      <point x="-141" y="0" type="line"/>
      <point x="-132" y="96" type="line"/>
    </contour>
    <contour>
      <point x="410" y="562" type="line"/>
      <point x="860" y="562" type="line"/>
      <point x="768" y="1177" type="line"/>
      <point x="758" y="1330" type="line"/>
    </contour>
    <contour>
      <point x="824" y="1631" type="curve" smooth="yes"/>
      <point x="612" y="1631"/>
      <point x="524" y="1799"/>
      <point x="524" y="1953" type="curve" smooth="yes"/>
      <point x="524" y="1968"/>
      <point x="525" y="1983"/>
      <point x="527" y="1997" type="curve"/>
      <point x="671" y="1997" type="line"/>
      <point x="673" y="1959" type="line"/>
      <point x="680" y="1894"/>
      <point x="708" y="1813"/>
      <point x="829" y="1813" type="curve" smooth="yes"/>
      <point x="976" y="1813"/>
      <point x="1008" y="1927"/>
      <point x="1021" y="1997" type="curve"/>
      <point x="1163" y="1997" type="line"/>
      <point x="1164" y="1986"/>
      <point x="1163" y="1974"/>
      <point x="1162" y="1963" type="curve" smooth="yes"/>
      <point x="1151" y="1806"/>
      <point x="1034" y="1631"/>
    </contour>
  </outline>
</glyph>
<glyph name="Aogonek" format="1">
  <advance width="1342"/>
  <unicode hex="0104"/>
  <outline>
    <contour>
      <point x="-120" y="0" type="line"/>
      <point x="-111" y="96" type="line"/>
      <point x="28" y="125" type="line"/>
      <point x="708" y="1530" type="line"/>
      <point x="981" y="1530" type="line"/>
      <point x="1231" y="128" type="line"/>
      <point x="1389" y="96" type="line"/>
      <point x="1383" y="0" type="line"/>
      <point x="1177" y="0" type="line"/>
      <point x="1077" y="-74"/>
      <point x="1001" y="-145"/>
      <point x="1000" y="-208" type="curve"/>
      <point x="998" y="-269"/>
      <point x="1029" y="-287"/>
      <point x="1060" y="-287" type="curve" smooth="yes"/>
      <point x="1106" y="-287"/>
      <point x="1146" y="-264"/>
      <point x="1202" y="-220" type="curve"/>
      <point x="1233" y="-324" type="line"/>
      <point x="1166" y="-389"/>
      <point x="1066" y="-448"/>
      <point x="936" y="-448" type="curve" smooth="yes"/>
      <point x="818" y="-448"/>
      <point x="761" y="-377"/>
      <point x="763" y="-293" type="curve" smooth="yes"/>
      <point x="764" y="-256"/>
      <point x="780" y="-204"/>
      <point x="806" y="-169" type="curve" smooth="yes"/>
      <point x="873" y="-75"/>
      <point x="944" y="-35"/>
      <point x="1011" y="0" type="curve"/>
      <point x="794" y="0" type="line"/>
      <point x="800" y="96" type="line"/>
      <point x="946" y="125" type="line"/>
      <point x="901" y="426" type="line"/>
      <point x="370" y="426" type="line"/>
      <point x="234" y="126" type="line"/>
      <point x="402" y="96" type="line"/>
      <point x="395" y="0" type="line"/>
    </contour>
    <contour>
      <point x="431" y="562" type="line"/>
      <point x="881" y="562" type="line"/>
      <point x="789" y="1177" type="line"/>
      <point x="779" y="1330" type="line"/>
    </contour>
  </outline>
</glyph>
<glyph name="aogonek" format="1">
  <advance width="1194"/>
  <unicode hex="0105"/>
  <outline>
    <contour>
      <point x="72" y="407" type="curve" smooth="yes"/>
      <point x="72" y="755"/>
      <point x="307" y="1163"/>
      <point x="739" y="1163" type="curve" smooth="yes"/>
      <point x="811" y="1163"/>
      <point x="898" y="1144"/>
      <point x="957" y="1124" type="curve"/>
      <point x="1092" y="1163" type="line"/>
      <point x="962" y="207" type="line"/>
      <point x="956" y="153"/>
      <point x="974" y="131"/>
      <point x="997" y="131" type="curve" smooth="yes"/>
      <point x="1015" y="131"/>
      <point x="1040" y="140"/>
      <point x="1087" y="177" type="curve"/>
      <point x="1117" y="114" type="line"/>
      <point x="1105" y="96"/>
      <point x="1065" y="51"/>
      <point x="1006" y="18" type="curve"/>
      <point x="895" y="-63"/>
      <point x="806" y="-140"/>
      <point x="805" y="-208" type="curve"/>
      <point x="803" y="-269"/>
      <point x="834" y="-287"/>
      <point x="865" y="-287" type="curve" smooth="yes"/>
      <point x="910" y="-287"/>
      <point x="950" y="-264"/>
      <point x="1006" y="-220" type="curve"/>
      <point x="1037" y="-324" type="line"/>
      <point x="971" y="-389"/>
      <point x="871" y="-448"/>
      <point x="740" y="-448" type="curve" smooth="yes"/>
      <point x="622" y="-448"/>
      <point x="566" y="-377"/>
      <point x="567" y="-293" type="curve" smooth="yes"/>
      <point x="568" y="-256"/>
      <point x="585" y="-204"/>
      <point x="610" y="-169" type="curve" smooth="yes"/>
      <point x="671" y="-84"/>
      <point x="736" y="-43"/>
      <point x="797" y="-10" type="curve"/>
      <point x="745" y="7"/>
      <point x="714" y="48"/>
      <point x="717" y="115" type="curve"/>
      <point x="715" y="118" type="line"/>
      <point x="650" y="47"/>
      <point x="547" y="-20"/>
      <point x="413" y="-20" type="curve" smooth="yes"/>
      <point x="176" y="-20"/>
      <point x="72" y="167"/>
    </contour>
    <contour>
      <point x="502" y="138" type="curve" smooth="yes"/>
      <point x="584" y="138"/>
      <point x="659" y="192"/>
      <point x="710" y="251" type="curve"/>
      <point x="812" y="1016" type="line"/>
      <point x="782" y="1027"/>
      <point x="748" y="1032"/>
      <point x="711" y="1032" type="curve" smooth="yes"/>
      <point x="447" y="1032"/>
      <point x="347" y="680"/>
      <point x="347" y="425" type="curve" smooth="yes"/>
      <point x="347" y="245"/>
      <point x="407" y="138"/>
    </contour>
  </outline>
</glyph>
<glyph name="Dcaron" format="1">
  <advance width="1467"/>
  <unicode hex="010E"/>
  <outline>
    <contour>
      <point x="751" y="1607" type="line"/>
      <point x="535" y="1949" type="line"/>
      <point x="630" y="2007" type="line"/>
      <point x="854" y="1804" type="line"/>
      <point x="1174" y="2007" type="line"/>
      <point x="1259" y="1950" type="line"/>
      <point x="927" y="1607" type="line"/>
    </contour>
    <contour>
      <point x="-13" y="0" type="line"/>
      <point x="-2" y="96" type="line"/>
      <point x="151" y="126" type="line"/>
      <point x="316" y="1400" type="line"/>
      <point x="178" y="1425" type="line"/>
      <point x="189" y="1530" type="line"/>
      <point x="496" y="1530" type="line"/>
      <point x="596" y="1531"/>
      <point x="701" y="1546"/>
      <point x="807" y="1546" type="curve" smooth="yes"/>
      <point x="1252" y="1547"/>
      <point x="1419" y="1282"/>
      <point x="1422" y="922" type="curve" smooth="yes"/>
      <point x="1427" y="382"/>
      <point x="1137" y="-22"/>
      <point x="584" y="-16" type="curve" smooth="yes"/>
      <point x="560" y="-16"/>
      <point x="515" y="-12"/>
      <point x="490" y="-9" type="curve" smooth="yes"/>
      <point x="442" y="-5"/>
      <point x="341" y="0"/>
      <point x="282" y="0" type="curve" smooth="yes"/>
    </contour>
    <contour>
      <point x="427" y="134" type="line"/>
      <point x="476" y="117"/>
      <point x="568" y="107"/>
      <point x="620" y="106" type="curve"/>
      <point x="997" y="120"/>
      <point x="1135" y="540"/>
      <point x="1132" y="896" type="curve" smooth="yes"/>
      <point x="1129" y="1278"/>
      <point x="1019" y="1425"/>
      <point x="761" y="1425" type="curve" smooth="yes"/>
      <point x="695" y="1425"/>
      <point x="618" y="1413"/>
      <point x="589" y="1402" type="curve"/>
    </contour>
  </outline>
</glyph>
<glyph name="dcaron" format="1">
  <advance width="1446"/>
  <unicode hex="010F"/>
  <outline>
    <contour>
      <point x="409" y="-20" type="curve" smooth="yes"/>
      <point x="172" y="-20"/>
      <point x="72" y="167"/>
      <point x="72" y="407" type="curve" smooth="yes"/>
      <point x="72" y="755"/>
      <point x="297" y="1163"/>
      <point x="734" y="1163" type="curve" smooth="yes"/>
      <point x="772" y="1163"/>
      <point x="814" y="1157"/>
      <point x="854" y="1149" type="curve"/>
      <point x="904" y="1482" type="line"/>
      <point x="764" y="1525" type="line"/>
      <point x="784" y="1608" type="line"/>
      <point x="1132" y="1650" type="line"/>
      <point x="1187" y="1623" type="line"/>
      <point x="982" y="208" type="line" smooth="yes"/>
      <point x="975" y="160"/>
      <point x="984" y="131"/>
      <point x="1010" y="131" type="curve" smooth="yes"/>
      <point x="1028" y="131"/>
      <point x="1051" y="140"/>
      <point x="1099" y="177" type="curve"/>
      <point x="1129" y="115" type="line"/>
      <point x="1109" y="89"/>
      <point x="1016" y="-20"/>
      <point x="878" y="-20" type="curve" smooth="yes"/>
      <point x="775" y="-20"/>
      <point x="729" y="33"/>
      <point x="730" y="144" type="curve"/>
      <point x="668" y="64"/>
      <point x="559" y="-20"/>
    </contour>
    <contour>
      <point x="496" y="138" type="curve" smooth="yes"/>
      <point x="590" y="138"/>
      <point x="674" y="212"/>
      <point x="724" y="281" type="curve"/>
      <point x="833" y="1006" type="line"/>
      <point x="797" y="1025"/>
      <point x="754" y="1032"/>
      <point x="707" y="1032" type="curve" smooth="yes"/>
      <point x="442" y="1032"/>
      <point x="345" y="675"/>
      <point x="345" y="420" type="curve" smooth="yes"/>
      <point x="345" y="240"/>
      <point x="402" y="138"/>
    </contour>
    <contour>
      <point x="1376" y="1010" type="curve"/>
      <point x="1281" y="1040" type="line"/>
      <point x="1275" y="1065" type="line"/>
      <point x="1297" y="1138"/>
      <point x="1315" y="1249"/>
      <point x="1321" y="1361" type="curve" smooth="yes"/>
      <point x="1325" y="1436"/>
      <point x="1314" y="1532"/>
      <point x="1294" y="1562" type="curve"/>
      <point x="1313" y="1604" type="line"/>
      <point x="1495" y="1650" type="line"/>
      <point x="1524" y="1618"/>
      <point x="1533" y="1529"/>
      <point x="1528" y="1441" type="curve" smooth="yes"/>
      <point x="1518" y="1275"/>
      <point x="1457" y="1101"/>
    </contour>
  </outline>
</glyph>
<glyph name="emacron" format="1">
  <advance width="1050"/>
  <unicode hex="0113"/>
  <outline>
    <contour>
      <point x="74" y="430" type="curve" smooth="yes"/>
      <point x="78" y="832"/>
      <point x="344" y="1163"/>
      <point x="693" y="1163" type="curve" smooth="yes"/>
      <point x="903" y="1163"/>
      <point x="997" y="1054"/>
      <point x="1000" y="913" type="curve" smooth="yes"/>
      <point x="1005" y="593"/>
      <point x="579" y="464"/>
      <point x="358" y="458" type="curve"/>
      <point x="351" y="290"/>
      <point x="410" y="139"/>
      <point x="559" y="139" type="curve" smooth="yes"/>
      <point x="688" y="139"/>
      <point x="794" y="202"/>
      <point x="878" y="290" type="curve"/>
      <point x="933" y="197" type="line"/>
      <point x="877" y="114"/>
      <point x="718" y="-20"/>
      <point x="493" y="-20" type="curve" smooth="yes"/>
      <point x="191" y="-20"/>
      <point x="71" y="202"/>
    </contour>
    <contour>
      <point x="360" y="573" type="curve"/>
      <point x="500" y="580"/>
      <point x="740" y="691"/>
      <point x="737" y="891" type="curve" smooth="yes"/>
      <point x="735" y="989"/>
      <point x="696" y="1036"/>
      <point x="633" y="1036" type="curve" smooth="yes"/>
      <point x="454" y="1036"/>
      <point x="376" y="750"/>
    </contour>
    <contour>
      <point x="384" y="1415" type="line"/>
      <point x="386" y="1594" type="line"/>
      <point x="926" y="1594" type="line"/>
      <point x="924" y="1415" type="line"/>
    </contour>
  </outline>
</glyph>
<glyph name="Eogonek" format="1">
  <advance width="1274"/>
  <unicode hex="0118"/>
  <outline>
    <contour>
      <point x="-14" y="0" type="line"/>
      <point x="-2" y="96" type="line"/>
      <point x="153" y="126" type="line"/>
      <point x="315" y="1400" type="line"/>
      <point x="176" y="1425" type="line"/>
      <point x="187" y="1530" type="line"/>
      <point x="1210" y="1530" type="line"/>
      <point x="1188" y="1190" type="line"/>
      <point x="1024" y="1190" type="line"/>
      <point x="983" y="1396" type="line"/>
      <point x="593" y="1416" type="line"/>
      <point x="521" y="868" type="line"/>
      <point x="962" y="883" type="line"/>
      <point x="944" y="696" type="line"/>
      <point x="505" y="717" type="line"/>
      <point x="425" y="126" type="line"/>
      <point x="935" y="156" type="line"/>
      <point x="1053" y="408" type="line"/>
      <point x="1211" y="385" type="line"/>
      <point x="1132" y="0" type="line"/>
      <point x="1033" y="0" type="line"/>
      <point x="933" y="-74"/>
      <point x="857" y="-145"/>
      <point x="856" y="-208" type="curve"/>
      <point x="854" y="-269"/>
      <point x="885" y="-287"/>
      <point x="916" y="-287" type="curve" smooth="yes"/>
      <point x="962" y="-287"/>
      <point x="1002" y="-264"/>
      <point x="1058" y="-220" type="curve"/>
      <point x="1089" y="-324" type="line"/>
      <point x="1022" y="-389"/>
      <point x="922" y="-448"/>
      <point x="792" y="-448" type="curve" smooth="yes"/>
      <point x="674" y="-448"/>
      <point x="617" y="-377"/>
      <point x="619" y="-293" type="curve" smooth="yes"/>
      <point x="620" y="-256"/>
      <point x="636" y="-204"/>
      <point x="662" y="-169" type="curve" smooth="yes"/>
      <point x="729" y="-75"/>
      <point x="800" y="-35"/>
      <point x="867" y="0" type="curve"/>
    </contour>
  </outline>
</glyph>
<glyph name="eogonek" format="1">
  <advance width="1050"/>
  <unicode hex="0119"/>
  <outline>
    <contour>
      <point x="400" y="-174" type="curve" smooth="yes"/>
      <point x="448" y="-104"/>
      <point x="503" y="-54"/>
      <point x="557" y="-16" type="curve"/>
      <point x="536" y="-18"/>
      <point x="515" y="-20"/>
      <point x="493" y="-20" type="curve" smooth="yes"/>
      <point x="191" y="-20"/>
      <point x="71" y="202"/>
      <point x="74" y="430" type="curve" smooth="yes"/>
      <point x="78" y="832"/>
      <point x="344" y="1163"/>
      <point x="693" y="1163" type="curve" smooth="yes"/>
      <point x="903" y="1163"/>
      <point x="997" y="1054"/>
      <point x="1000" y="913" type="curve" smooth="yes"/>
      <point x="1005" y="593"/>
      <point x="579" y="464"/>
      <point x="358" y="458" type="curve"/>
      <point x="351" y="290"/>
      <point x="410" y="139"/>
      <point x="559" y="139" type="curve" smooth="yes"/>
      <point x="688" y="139"/>
      <point x="794" y="202"/>
      <point x="878" y="290" type="curve"/>
      <point x="933" y="197" type="line"/>
      <point x="918" y="174"/>
      <point x="895" y="148"/>
      <point x="865" y="121" type="curve"/>
      <point x="867" y="122" type="line" smooth="yes"/>
      <point x="863" y="119"/>
      <point x="860" y="116"/>
      <point x="856" y="114" type="curve" smooth="yes"/>
      <point x="834" y="96" type="line"/>
      <point x="830" y="93" type="line" smooth="yes"/>
      <point x="762" y="43"/>
      <point x="670" y="-3"/>
      <point x="557" y="-16" type="curve"/>
      <point x="602" y="15"/>
      <point x="645" y="39"/>
      <point x="684" y="62" type="curve"/>
      <point x="741" y="101" type="line"/>
      <point x="865" y="121" type="line"/>
      <point x="856" y="114" type="line"/>
      <point x="834" y="96" type="line"/>
      <point x="830" y="93" type="line"/>
      <point x="719" y="2"/>
      <point x="601" y="-127"/>
      <point x="600" y="-203" type="curve"/>
      <point x="598" y="-264"/>
      <point x="629" y="-287"/>
      <point x="660" y="-287" type="curve" smooth="yes"/>
      <point x="705" y="-287"/>
      <point x="745" y="-264"/>
      <point x="801" y="-220" type="curve"/>
      <point x="832" y="-324" type="line"/>
      <point x="766" y="-389"/>
      <point x="666" y="-448"/>
      <point x="535" y="-448" type="curve" smooth="yes"/>
      <point x="417" y="-448"/>
      <point x="361" y="-377"/>
      <point x="362" y="-293" type="curve" smooth="yes"/>
      <point x="363" y="-257"/>
      <point x="377" y="-207"/>
    </contour>
    <contour>
      <point x="360" y="573" type="curve"/>
      <point x="500" y="580"/>
      <point x="740" y="691"/>
      <point x="737" y="891" type="curve" smooth="yes"/>
      <point x="735" y="989"/>
      <point x="696" y="1036"/>
      <point x="633" y="1036" type="curve" smooth="yes"/>
      <point x="454" y="1036"/>
      <point x="376" y="750"/>
    </contour>
  </outline>
</glyph>
<glyph name="Ecaron" format="1">
  <advance width="1274"/>
  <unicode hex="011A"/>
  <outline>
    <contour>
      <point x="695" y="1607" type="line"/>
      <point x="479" y="1949" type="line"/>
      <point x="574" y="2007" type="line"/>
      <point x="798" y="1804" type="line"/>
      <point x="1118" y="2007" type="line"/>
      <point x="1203" y="1950" type="line"/>
      <point x="871" y="1607" type="line"/>
    </contour>
    <contour>
      <point x="-14" y="0" type="line"/>
      <point x="-2" y="96" type="line"/>
      <point x="153" y="126" type="line"/>
      <point x="315" y="1400" type="line"/>
      <point x="176" y="1425" type="line"/>
      <point x="187" y="1530" type="line"/>
      <point x="1210" y="1530" type="line"/>
      <point x="1188" y="1190" type="line"/>
      <point x="1024" y="1190" type="line"/>
      <point x="983" y="1396" type="line"/>
      <point x="593" y="1416" type="line"/>
      <point x="521" y="868" type="line"/>
      <point x="962" y="883" type="line"/>
      <point x="944" y="696" type="line"/>
      <point x="505" y="717" type="line"/>
      <point x="425" y="126" type="line"/>
      <point x="935" y="156" type="line"/>
      <point x="1053" y="408" type="line"/>
      <point x="1211" y="385" type="line"/>
      <point x="1132" y="0" type="line"/>
    </contour>
  </outline>
</glyph>
<glyph name="Gbreve" format="1">
  <advance width="1396"/>
  <unicode hex="011E"/>
  <outline>
    <contour>
      <point x="878" y="1631" type="curve" smooth="yes"/>
      <point x="666" y="1631"/>
      <point x="578" y="1799"/>
      <point x="578" y="1953" type="curve" smooth="yes"/>
      <point x="578" y="1968"/>
      <point x="579" y="1983"/>
      <point x="581" y="1997" type="curve"/>
      <point x="725" y="1997" type="line"/>
      <point x="727" y="1959" type="line"/>
      <point x="734" y="1894"/>
      <point x="762" y="1813"/>
      <point x="883" y="1813" type="curve" smooth="yes"/>
      <point x="1030" y="1813"/>
      <point x="1062" y="1927"/>
      <point x="1075" y="1997" type="curve"/>
      <point x="1217" y="1997" type="line"/>
      <point x="1218" y="1986"/>
      <point x="1217" y="1974"/>
      <point x="1216" y="1963" type="curve" smooth="yes"/>
      <point x="1205" y="1806"/>
      <point x="1088" y="1631"/>
    </contour>
    <contour>
      <point x="619" y="-16" type="curve" smooth="yes"/>
      <point x="239" y="-16"/>
      <point x="87" y="302"/>
      <point x="81" y="627" type="curve" smooth="yes"/>
      <point x="71" y="1175"/>
      <point x="389" y="1548"/>
      <point x="869" y="1548" type="curve" smooth="yes"/>
      <point x="1096" y="1548"/>
      <point x="1206" y="1511"/>
      <point x="1286" y="1490" type="curve"/>
      <point x="1336" y="1479" type="line"/>
      <point x="1274" y="1153" type="line"/>
      <point x="1087" y="1153" type="line"/>
      <point x="1072" y="1373" type="line"/>
      <point x="1024" y="1404"/>
      <point x="957" y="1424"/>
      <point x="859" y="1424" type="curve" smooth="yes"/>
      <point x="482" y="1424"/>
      <point x="369" y="1006"/>
      <point x="372" y="653" type="curve" smooth="yes"/>
      <point x="374" y="376"/>
      <point x="463" y="118"/>
      <point x="682" y="118" type="curve" smooth="yes"/>
      <point x="781" y="118"/>
      <point x="869" y="129"/>
      <point x="941" y="170" type="curve"/>
      <point x="994" y="590" type="line"/>
      <point x="776" y="607" type="line"/>
      <point x="792" y="738" type="line"/>
      <point x="1288" y="738" type="line"/>
      <point x="1203" y="89" type="line"/>
      <point x="1162" y="85"/>
      <point x="1101" y="72"/>
      <point x="1044" y="56" type="curve" smooth="yes"/>
      <point x="935" y="26"/>
      <point x="792" y="-16"/>
    </contour>
  </outline>
</glyph>
<glyph name="Gdotaccent" format="1">
  <advance width="1396"/>
  <unicode hex="0120"/>
  <outline>
    <contour>
      <point x="870" y="1652" type="curve" smooth="yes"/>
      <point x="793" y="1652"/>
      <point x="724" y="1721"/>
      <point x="726" y="1795" type="curve" smooth="yes"/>
      <point x="729" y="1888"/>
      <point x="809" y="1965"/>
      <point x="902" y="1965" type="curve" smooth="yes"/>
      <point x="993" y="1965"/>
      <point x="1056" y="1898"/>
      <point x="1054" y="1826" type="curve" smooth="yes"/>
      <point x="1051" y="1732"/>
      <point x="980" y="1652"/>
    </contour>
    <contour>
      <point x="619" y="-16" type="curve" smooth="yes"/>
      <point x="239" y="-16"/>
      <point x="87" y="302"/>
      <point x="81" y="627" type="curve" smooth="yes"/>
      <point x="71" y="1175"/>
      <point x="389" y="1548"/>
      <point x="869" y="1548" type="curve" smooth="yes"/>
      <point x="1096" y="1548"/>
      <point x="1206" y="1511"/>
      <point x="1286" y="1490" type="curve"/>
      <point x="1336" y="1479" type="line"/>
      <point x="1274" y="1153" type="line"/>
      <point x="1087" y="1153" type="line"/>
      <point x="1072" y="1373" type="line"/>
      <point x="1024" y="1404"/>
      <point x="957" y="1424"/>
      <point x="859" y="1424" type="curve" smooth="yes"/>
      <point x="482" y="1424"/>
      <point x="369" y="1006"/>
      <point x="372" y="653" type="curve" smooth="yes"/>
      <point x="374" y="376"/>
      <point x="463" y="118"/>
      <point x="682" y="118" type="curve" smooth="yes"/>
      <point x="781" y="118"/>
      <point x="869" y="129"/>
      <point x="941" y="170" type="curve"/>
      <point x="994" y="590" type="line"/>
      <point x="776" y="607" type="line"/>
      <point x="792" y="738" type="line"/>
      <point x="1288" y="738" type="line"/>
      <point x="1203" y="89" type="line"/>
      <point x="1162" y="85"/>
      <point x="1101" y="72"/>
      <point x="1044" y="56" type="curve" smooth="yes"/>
      <point x="935" y="26"/>
      <point x="792" y="-16"/>
    </contour>
  </outline>
</glyph>
<glyph name="Gcommaaccent" format="1">
  <advance width="1396"/>
  <unicode hex="0122"/>
  <outline>
    <contour>
      <point x="541" y="-156" type="line"/>
      <point x="680" y="-44" type="line"/>
      <point x="770" y="-63"/>
      <point x="830" y="-159"/>
      <point x="825" y="-262" type="curve" smooth="yes"/>
      <point x="817" y="-423"/>
      <point x="687" y="-542"/>
      <point x="596" y="-560" type="curve"/>
      <point x="526" y="-505" type="line"/>
      <point x="529" y="-479" type="line"/>
      <point x="566" y="-453"/>
      <point x="599" y="-411"/>
      <point x="602" y="-339" type="curve" smooth="yes"/>
      <point x="605" y="-291"/>
      <point x="574" y="-236"/>
      <point x="533" y="-230" type="curve"/>
    </contour>
    <contour>
      <point x="619" y="-16" type="curve" smooth="yes"/>
      <point x="239" y="-16"/>
      <point x="87" y="302"/>
      <point x="81" y="627" type="curve" smooth="yes"/>
      <point x="71" y="1175"/>
      <point x="389" y="1548"/>
      <point x="869" y="1548" type="curve" smooth="yes"/>
      <point x="1096" y="1548"/>
      <point x="1206" y="1511"/>
      <point x="1286" y="1490" type="curve"/>
      <point x="1336" y="1479" type="line"/>
      <point x="1274" y="1153" type="line"/>
      <point x="1087" y="1153" type="line"/>
      <point x="1072" y="1373" type="line"/>
      <point x="1024" y="1404"/>
      <point x="957" y="1424"/>
      <point x="859" y="1424" type="curve" smooth="yes"/>
      <point x="482" y="1424"/>
      <point x="369" y="1006"/>
      <point x="372" y="653" type="curve" smooth="yes"/>
      <point x="374" y="376"/>
      <point x="463" y="118"/>
      <point x="682" y="118" type="curve" smooth="yes"/>
      <point x="781" y="118"/>
      <point x="869" y="129"/>
      <point x="941" y="170" type="curve"/>
      <point x="994" y="590" type="line"/>
      <point x="776" y="607" type="line"/>
      <point x="792" y="738" type="line"/>
      <point x="1288" y="738" type="line"/>
      <point x="1203" y="89" type="line"/>
      <point x="1162" y="85"/>
      <point x="1101" y="72"/>
      <point x="1044" y="56" type="curve" smooth="yes"/>
      <point x="935" y="26"/>
      <point x="792" y="-16"/>
    </contour>
  </outline>
</glyph>
<glyph name="Hcircumflex" format="1">
  <advance width="1593"/>
  <unicode hex="0124"/>
  <outline>
    <contour>
      <point x="5" y="0" type="line"/>
      <point x="15" y="96" type="line"/>
      <point x="158" y="126" type="line"/>
      <point x="321" y="1400" type="line"/>
      <point x="182" y="1425" type="line"/>
      <point x="195" y="1530" type="line"/>
      <point x="774" y="1530" type="line"/>
      <point x="763" y="1425" type="line"/>
      <point x="596" y="1400" type="line"/>
      <point x="525" y="849" type="line"/>
      <point x="1128" y="849" type="line"/>
      <point x="1199" y="1400" type="line"/>
      <point x="1036" y="1425" type="line"/>
      <point x="1047" y="1530" type="line"/>
      <point x="1632" y="1530" type="line"/>
      <point x="1620" y="1425" type="line"/>
      <point x="1474" y="1400" type="line"/>
      <point x="1311" y="127" type="line"/>
      <point x="1465" y="96" type="line"/>
      <point x="1455" y="0" type="line"/>
      <point x="848" y="0" type="line"/>
      <point x="859" y="97" type="line"/>
      <point x="1036" y="127" type="line"/>
      <point x="1110" y="709" type="line"/>
      <point x="507" y="709" type="line"/>
      <point x="433" y="126" type="line"/>
      <point x="598" y="97" type="line"/>
      <point x="590" y="0" type="line"/>
    </contour>
    <contour>
      <point x="675" y="1607" type="line"/>
      <point x="591" y="1665" type="line"/>
      <point x="927" y="2007" type="line"/>
      <point x="1105" y="2007" type="line"/>
      <point x="1316" y="1665" type="line"/>
      <point x="1220" y="1606" type="line"/>
      <point x="999" y="1824" type="line"/>
    </contour>
  </outline>
</glyph>
<glyph name="hcircumflex" format="1">
  <advance width="1271"/>
  <unicode hex="0125"/>
  <outline>
    <contour>
      <point x="96" y="0" type="line"/>
      <point x="282" y="1482" type="line"/>
      <point x="160" y="1525" type="line"/>
      <point x="176" y="1608" type="line"/>
      <point x="514" y="1650" type="line"/>
      <point x="567" y="1623" type="line"/>
      <point x="562" y="1584" type="line"/>
      <point x="777" y="1803" type="line"/>
      <point x="955" y="1803" type="line"/>
      <point x="1166" y="1461" type="line"/>
      <point x="1070" y="1402" type="line"/>
      <point x="849" y="1620" type="line"/>
      <point x="540" y="1413" type="line"/>
      <point x="477" y="916" type="line"/>
      <point x="573" y="1057"/>
      <point x="714" y="1163"/>
      <point x="874" y="1163" type="curve" smooth="yes"/>
      <point x="1020" y="1163"/>
      <point x="1120" y="1086"/>
      <point x="1120" y="861" type="curve" smooth="yes"/>
      <point x="1120" y="781"/>
      <point x="1090" y="617"/>
      <point x="1070" y="505" type="curve"/>
      <point x="1053" y="403"/>
      <point x="1030" y="285"/>
      <point x="1026" y="196" type="curve"/>
      <point x="1025" y="148"/>
      <point x="1037" y="131"/>
      <point x="1056" y="131" type="curve" smooth="yes"/>
      <point x="1078" y="131"/>
      <point x="1101" y="141"/>
      <point x="1155" y="182" type="curve"/>
      <point x="1184" y="119" type="line"/>
      <point x="1166" y="91"/>
      <point x="1062" y="-21"/>
      <point x="912" y="-21" type="curve" smooth="yes"/>
      <point x="782" y="-21"/>
      <point x="746" y="39"/>
      <point x="749" y="131" type="curve" smooth="yes"/>
      <point x="751" y="206"/>
      <point x="776" y="331"/>
      <point x="796" y="443" type="curve" smooth="yes"/>
      <point x="817" y="555"/>
      <point x="848" y="717"/>
      <point x="847" y="838" type="curve" smooth="yes"/>
      <point x="846" y="965"/>
      <point x="807" y="985"/>
      <point x="750" y="985" type="curve" smooth="yes"/>
      <point x="658" y="985"/>
      <point x="535" y="874"/>
      <point x="454" y="736" type="curve"/>
      <point x="360" y="0" type="line"/>
    </contour>
  </outline>
</glyph>
<glyph name="itilde" format="1">
  <advance width="655"/>
  <unicode hex="0129"/>
  <outline>
    <contour>
      <point x="136" y="121" type="curve" smooth="yes"/>
      <point x="154" y="281"/>
      <point x="202" y="596"/>
      <point x="255" y="980" type="curve"/>
      <point x="99" y="1031" type="line"/>
      <point x="117" y="1112" type="line"/>
      <point x="491" y="1163" type="line"/>
      <point x="543" y="1139" type="line"/>
      <point x="409" y="207" type="line" smooth="yes"/>
      <point x="402" y="158"/>
      <point x="412" y="131"/>
      <point x="438" y="131" type="curve" smooth="yes"/>
      <point x="460" y="131"/>
      <point x="486" y="144"/>
      <point x="537" y="188" type="curve"/>
      <point x="567" y="125" type="line"/>
      <point x="546" y="95"/>
      <point x="445" y="-20"/>
      <point x="297" y="-20" type="curve" smooth="yes"/>
      <point x="186" y="-20"/>
      <point x="126" y="29"/>
    </contour>
    <contour>
      <point x="126" y="1392" type="curve"/>
      <point x="64" y="1496" type="line"/>
      <point x="106" y="1581"/>
      <point x="214" y="1665"/>
      <point x="316" y="1665" type="curve" smooth="yes"/>
      <point x="460" y="1665"/>
      <point x="489" y="1520"/>
      <point x="584" y="1520" type="curve" smooth="yes"/>
      <point x="658" y="1520"/>
      <point x="699" y="1577"/>
      <point x="737" y="1625" type="curve"/>
      <point x="810" y="1514" type="line"/>
      <point x="776" y="1420"/>
      <point x="668" y="1333"/>
      <point x="559" y="1333" type="curve" smooth="yes"/>
      <point x="389" y="1333"/>
      <point x="389" y="1476"/>
      <point x="273" y="1478" type="curve" smooth="yes"/>
      <point x="220" y="1479"/>
      <point x="164" y="1432"/>
    </contour>
  </outline>
</glyph>
<glyph name="Imacron" format="1">
  <advance width="745"/>
  <unicode hex="012A"/>
  <outline>
    <contour>
      <point x="6" y="0" type="line"/>
      <point x="17" y="96" type="line"/>
      <point x="166" y="126" type="line"/>
      <point x="329" y="1400" type="line"/>
      <point x="189" y="1425" type="line"/>
      <point x="201" y="1530" type="line"/>
      <point x="778" y="1530" type="line"/>
      <point x="767" y="1425" type="line"/>
      <point x="604" y="1400" type="line"/>
      <point x="441" y="126" type="line"/>
      <point x="607" y="97" type="line"/>
      <point x="600" y="0" type="line"/>
    </contour>
    <contour>
      <point x="255" y="1718" type="line"/>
      <point x="257" y="1897" type="line"/>
      <point x="797" y="1897" type="line"/>
      <point x="795" y="1718" type="line"/>
    </contour>
  </outline>
</glyph>
<glyph name="imacron" format="1">
  <advance width="655"/>
  <unicode hex="012B"/>
  <outline>
    <contour>
      <point x="136" y="121" type="curve" smooth="yes"/>
      <point x="154" y="281"/>
      <point x="202" y="596"/>
      <point x="255" y="980" type="curve"/>
      <point x="99" y="1031" type="line"/>
      <point x="117" y="1112" type="line"/>
      <point x="491" y="1163" type="line"/>
      <point x="543" y="1139" type="line"/>
      <point x="409" y="207" type="line" smooth="yes"/>
      <point x="402" y="158"/>
      <point x="412" y="131"/>
      <point x="438" y="131" type="curve" smooth="yes"/>
      <point x="460" y="131"/>
      <point x="486" y="144"/>
      <point x="537" y="188" type="curve"/>
      <point x="567" y="125" type="line"/>
      <point x="546" y="95"/>
      <point x="445" y="-20"/>
      <point x="297" y="-20" type="curve" smooth="yes"/>
      <point x="186" y="-20"/>
      <point x="126" y="29"/>
    </contour>
    <contour>
      <point x="134" y="1415" type="line"/>
      <point x="136" y="1594" type="line"/>
      <point x="676" y="1594" type="line"/>
      <point x="674" y="1415" type="line"/>
    </contour>
  </outline>
</glyph>
<glyph name="Ibreve" format="1">
  <advance width="745"/>
  <unicode hex="012C"/>
  <outline>
    <contour>
      <point x="6" y="0" type="line"/>
      <point x="17" y="96" type="line"/>
      <point x="166" y="126" type="line"/>
      <point x="329" y="1400" type="line"/>
      <point x="189" y="1425" type="line"/>
      <point x="201" y="1530" type="line"/>
      <point x="778" y="1530" type="line"/>
      <point x="767" y="1425" type="line"/>
      <point x="604" y="1400" type="line"/>
      <point x="441" y="126" type="line"/>
      <point x="607" y="97" type="line"/>
      <point x="600" y="0" type="line"/>
    </contour>
    <contour>
      <point x="528" y="1631" type="curve" smooth="yes"/>
      <point x="316" y="1631"/>
      <point x="228" y="1799"/>
      <point x="228" y="1953" type="curve" smooth="yes"/>
      <point x="228" y="1968"/>
      <point x="229" y="1983"/>
      <point x="231" y="1997" type="curve"/>
      <point x="375" y="1997" type="line"/>
      <point x="377" y="1959" type="line"/>
      <point x="384" y="1894"/>
      <point x="412" y="1813"/>
      <point x="533" y="1813" type="curve" smooth="yes"/>
      <point x="680" y="1813"/>
      <point x="712" y="1927"/>
      <point x="725" y="1997" type="curve"/>
      <point x="867" y="1997" type="line"/>
      <point x="868" y="1986"/>
      <point x="867" y="1974"/>
      <point x="866" y="1963" type="curve" smooth="yes"/>
      <point x="855" y="1806"/>
      <point x="738" y="1631"/>
    </contour>
  </outline>
</glyph>
<glyph name="Iogonek" format="1">
  <advance width="706"/>
  <unicode hex="012E"/>
  <outline>
    <contour>
      <point x="-21" y="0" type="line"/>
      <point x="-10" y="96" type="line"/>
      <point x="139" y="126" type="line"/>
      <point x="302" y="1400" type="line"/>
      <point x="162" y="1425" type="line"/>
      <point x="174" y="1530" type="line"/>
      <point x="751" y="1530" type="line"/>
      <point x="740" y="1425" type="line"/>
      <point x="577" y="1400" type="line"/>
      <point x="414" y="126" type="line"/>
      <point x="580" y="97" type="line"/>
      <point x="573" y="0" type="line"/>
      <point x="365" y="0" type="line"/>
      <point x="266" y="-74"/>
      <point x="190" y="-145"/>
      <point x="189" y="-208" type="curve"/>
      <point x="187" y="-269"/>
      <point x="218" y="-287"/>
      <point x="249" y="-287" type="curve" smooth="yes"/>
      <point x="294" y="-287"/>
      <point x="334" y="-264"/>
      <point x="390" y="-220" type="curve"/>
      <point x="421" y="-324" type="line"/>
      <point x="355" y="-389"/>
      <point x="255" y="-448"/>
      <point x="124" y="-448" type="curve" smooth="yes"/>
      <point x="6" y="-448"/>
      <point x="-51" y="-377"/>
      <point x="-49" y="-293" type="curve" smooth="yes"/>
      <point x="-48" y="-256"/>
      <point x="-32" y="-204"/>
      <point x="-6" y="-169" type="curve" smooth="yes"/>
      <point x="61" y="-75"/>
      <point x="133" y="-35"/>
      <point x="200" y="0" type="curve"/>
    </contour>
  </outline>
</glyph>
<glyph name="iogonek" format="1">
  <advance width="654"/>
  <unicode hex="012F"/>
  <outline>
    <contour>
      <point x="426" y="1363" type="curve" smooth="yes"/>
      <point x="349" y="1363"/>
      <point x="285" y="1433"/>
      <point x="287" y="1507" type="curve" smooth="yes"/>
      <point x="290" y="1600"/>
      <point x="365" y="1676"/>
      <point x="458" y="1676" type="curve" smooth="yes"/>
      <point x="550" y="1676"/>
      <point x="607" y="1609"/>
      <point x="604" y="1538" type="curve" smooth="yes"/>
      <point x="601" y="1444"/>
      <point x="536" y="1363"/>
    </contour>
    <contour>
      <point x="48" y="-169" type="curve" smooth="yes"/>
      <point x="107" y="-86"/>
      <point x="170" y="-45"/>
      <point x="230" y="-12" type="curve"/>
      <point x="162" y="4"/>
      <point x="128" y="49"/>
      <point x="136" y="121" type="curve" smooth="yes"/>
      <point x="154" y="281"/>
      <point x="202" y="596"/>
      <point x="255" y="980" type="curve"/>
      <point x="99" y="1031" type="line"/>
      <point x="117" y="1112" type="line"/>
      <point x="491" y="1163" type="line"/>
      <point x="543" y="1139" type="line"/>
      <point x="409" y="207" type="line" smooth="yes"/>
      <point x="402" y="158"/>
      <point x="412" y="131"/>
      <point x="438" y="131" type="curve" smooth="yes"/>
      <point x="460" y="131"/>
      <point x="486" y="144"/>
      <point x="537" y="188" type="curve"/>
      <point x="567" y="125" type="line"/>
      <point x="554" y="107"/>
      <point x="512" y="58"/>
      <point x="449" y="22" type="curve"/>
      <point x="334" y="-60"/>
      <point x="243" y="-138"/>
      <point x="242" y="-208" type="curve"/>
      <point x="240" y="-269"/>
      <point x="271" y="-287"/>
      <point x="302" y="-287" type="curve" smooth="yes"/>
      <point x="348" y="-287"/>
      <point x="388" y="-264"/>
      <point x="444" y="-220" type="curve"/>
      <point x="475" y="-324" type="line"/>
      <point x="408" y="-389"/>
      <point x="308" y="-448"/>
      <point x="178" y="-448" type="curve" smooth="yes"/>
      <point x="60" y="-448"/>
      <point x="3" y="-377"/>
      <point x="5" y="-293" type="curve" smooth="yes"/>
      <point x="6" y="-256"/>
      <point x="22" y="-204"/>
    </contour>
  </outline>
</glyph>
<glyph name="IJ" format="1">
  <advance width="1484"/>
  <unicode hex="0132"/>
  <outline>
    <contour>
      <point x="6" y="0" type="line"/>
      <point x="17" y="96" type="line"/>
      <point x="166" y="126" type="line"/>
      <point x="329" y="1400" type="line"/>
      <point x="189" y="1425" type="line"/>
      <point x="201" y="1530" type="line"/>
      <point x="778" y="1530" type="line"/>
      <point x="767" y="1425" type="line"/>
      <point x="604" y="1400" type="line"/>
      <point x="441" y="126" type="line"/>
      <point x="607" y="97" type="line"/>
      <point x="600" y="0" type="line"/>
    </contour>
    <contour>
      <point x="905" y="86" type="curve" smooth="yes"/>
      <point x="985" y="476"/>
      <point x="1027" y="965"/>
      <point x="1077" y="1400" type="curve"/>
      <point x="930" y="1425" type="line"/>
      <point x="944" y="1530" type="line"/>
      <point x="1519" y="1530" type="line"/>
      <point x="1508" y="1425" type="line"/>
      <point x="1347" y="1401" type="line"/>
      <point x="1276" y="785"/>
      <point x="1208" y="170"/>
      <point x="1176" y="75" type="curve" smooth="yes"/>
      <point x="1092" y="-179"/>
      <point x="850" y="-309"/>
      <point x="610" y="-345" type="curve"/>
      <point x="566" y="-247" type="line"/>
      <point x="765" y="-188"/>
      <point x="878" y="-45"/>
    </contour>
  </outline>
</glyph>
<glyph name="kgreenlandic" format="1">
  <advance width="1145"/>
  <unicode hex="0138"/>
  <outline>
    <contour>
      <point x="110" y="0" type="line"/>
      <point x="239" y="972" type="line"/>
      <point x="127" y="1024" type="line"/>
      <point x="146" y="1110" type="line"/>
      <point x="462" y="1157" type="line"/>
      <point x="514" y="1132" type="line"/>
      <point x="368" y="0" type="line"/>
    </contour>
    <contour>
      <point x="672" y="95" type="curve" smooth="yes"/>
      <point x="455" y="596" type="line"/>
      <point x="890" y="1142" type="line"/>
      <point x="1141" y="1142" type="line"/>
      <point x="686" y="623" type="line"/>
      <point x="891" y="240" type="line" smooth="yes"/>
      <point x="923" y="181"/>
      <point x="966" y="144"/>
      <point x="997" y="144" type="curve" smooth="yes"/>
      <point x="1017" y="144"/>
      <point x="1054" y="156"/>
      <point x="1091" y="177" type="curve"/>
      <point x="1123" y="118" type="line"/>
      <point x="1087" y="72"/>
      <point x="973" y="-19"/>
      <point x="842" y="-19" type="curve" smooth="yes"/>
      <point x="756" y="-19"/>
      <point x="705" y="19"/>
    </contour>
  </outline>
</glyph>
<glyph name="Lacute" format="1">
  <advance width="1220"/>
  <unicode hex="0139"/>
  <outline>
    <contour>
      <point x="546" y="1594" type="curve"/>
      <point x="462" y="1667" type="line"/>
      <point x="738" y="2009" type="line"/>
      <point x="893" y="1848" type="line"/>
      <point x="841" y="1742"/>
      <point x="642" y="1630"/>
    </contour>
    <contour>
      <point x="0" y="0" type="line"/>
      <point x="10" y="97" type="line"/>
      <point x="153" y="126" type="line"/>
      <point x="316" y="1400" type="line"/>
      <point x="176" y="1425" type="line"/>
      <point x="189" y="1530" type="line"/>
      <point x="787" y="1530" type="line"/>
      <point x="776" y="1425" type="line"/>
      <point x="591" y="1400" type="line"/>
      <point x="427" y="123" type="line"/>
      <point x="836" y="138" type="line"/>
      <point x="999" y="527" type="line"/>
      <point x="1148" y="504" type="line"/>
      <point x="1058" y="0" type="line"/>
    </contour>
  </outline>
</glyph>
<glyph name="Lcommaaccent" format="1">
  <advance width="1220"/>
  <unicode hex="013B"/>
  <outline>
    <contour>
      <point x="438" y="-154" type="line"/>
      <point x="577" y="-42" type="line"/>
      <point x="667" y="-61"/>
      <point x="727" y="-157"/>
      <point x="722" y="-260" type="curve" smooth="yes"/>
      <point x="714" y="-421"/>
      <point x="584" y="-540"/>
      <point x="493" y="-558" type="curve"/>
      <point x="423" y="-503" type="line"/>
      <point x="426" y="-477" type="line"/>
      <point x="463" y="-451"/>
      <point x="496" y="-409"/>
      <point x="499" y="-337" type="curve" smooth="yes"/>
      <point x="502" y="-289"/>
      <point x="471" y="-234"/>
      <point x="430" y="-228" type="curve"/>
    </contour>
    <contour>
      <point x="0" y="0" type="line"/>
      <point x="10" y="97" type="line"/>
      <point x="153" y="126" type="line"/>
      <point x="316" y="1400" type="line"/>
      <point x="176" y="1425" type="line"/>
      <point x="189" y="1530" type="line"/>
      <point x="787" y="1530" type="line"/>
      <point x="776" y="1425" type="line"/>
      <point x="591" y="1400" type="line"/>
      <point x="427" y="123" type="line"/>
      <point x="836" y="138" type="line"/>
      <point x="999" y="527" type="line"/>
      <point x="1148" y="504" type="line"/>
      <point x="1058" y="0" type="line"/>
    </contour>
  </outline>
</glyph>
<glyph name="lcaron" format="1">
  <advance width="757"/>
  <unicode hex="013E"/>
  <outline>
    <contour>
      <point x="113" y="117" type="curve" smooth="yes"/>
      <point x="113" y="138"/>
      <point x="117" y="174"/>
      <point x="120" y="194" type="curve" smooth="yes"/>
      <point x="297" y="1484" type="line"/>
      <point x="170" y="1527" type="line"/>
      <point x="190" y="1610" type="line"/>
      <point x="524" y="1652" type="line"/>
      <point x="574" y="1625" type="line"/>
      <point x="381" y="209" type="line" smooth="yes"/>
      <point x="374" y="162"/>
      <point x="383" y="133"/>
      <point x="409" y="133" type="curve" smooth="yes"/>
      <point x="429" y="133"/>
      <point x="453" y="142"/>
      <point x="509" y="189" type="curve"/>
      <point x="538" y="127" type="line"/>
      <point x="519" y="98"/>
      <point x="419" y="-18"/>
      <point x="278" y="-18" type="curve" smooth="yes"/>
      <point x="184" y="-18"/>
      <point x="114" y="20"/>
    </contour>
    <contour>
      <point x="778" y="1010" type="curve"/>
      <point x="683" y="1040" type="line"/>
      <point x="677" y="1065" type="line"/>
      <point x="699" y="1138"/>
      <point x="717" y="1249"/>
      <point x="723" y="1361" type="curve" smooth="yes"/>
      <point x="727" y="1436"/>
      <point x="716" y="1532"/>
      <point x="696" y="1562" type="curve"/>
      <point x="715" y="1604" type="line"/>
      <point x="897" y="1650" type="line"/>
      <point x="926" y="1618"/>
      <point x="935" y="1529"/>
      <point x="930" y="1441" type="curve" smooth="yes"/>
      <point x="920" y="1275"/>
      <point x="859" y="1101"/>
    </contour>
  </outline>
</glyph>
<glyph name="Ldot" format="1">
  <advance width="1220"/>
  <unicode hex="013F"/>
  <outline>
    <contour>
      <point x="0" y="0" type="line"/>
      <point x="10" y="97" type="line"/>
      <point x="153" y="126" type="line"/>
      <point x="316" y="1400" type="line"/>
      <point x="176" y="1425" type="line"/>
      <point x="189" y="1530" type="line"/>
      <point x="787" y="1530" type="line"/>
      <point x="776" y="1425" type="line"/>
      <point x="591" y="1400" type="line"/>
      <point x="427" y="123" type="line"/>
      <point x="836" y="138" type="line"/>
      <point x="999" y="527" type="line"/>
      <point x="1148" y="504" type="line"/>
      <point x="1058" y="0" type="line"/>
    </contour>
    <contour>
      <point x="854" y="895" type="curve" smooth="yes"/>
      <point x="860" y="999"/>
      <point x="946" y="1069"/>
      <point x="1029" y="1069" type="curve" smooth="yes"/>
      <point x="1126" y="1069"/>
      <point x="1167" y="1001"/>
      <point x="1163" y="926" type="curve" smooth="yes"/>
      <point x="1157" y="813"/>
      <point x="1065" y="752"/>
      <point x="978" y="752" type="curve" smooth="yes"/>
      <point x="905" y="752"/>
      <point x="849" y="810"/>
    </contour>
  </outline>
</glyph>
<glyph name="ldot" format="1">
  <advance width="810"/>
  <unicode hex="0140"/>
  <outline>
    <contour>
      <point x="113" y="115" type="curve" smooth="yes"/>
      <point x="113" y="136"/>
      <point x="117" y="172"/>
      <point x="120" y="192" type="curve" smooth="yes"/>
      <point x="297" y="1482" type="line"/>
      <point x="170" y="1525" type="line"/>
      <point x="190" y="1608" type="line"/>
      <point x="524" y="1650" type="line"/>
      <point x="574" y="1623" type="line"/>
      <point x="381" y="207" type="line" smooth="yes"/>
      <point x="374" y="160"/>
      <point x="383" y="131"/>
      <point x="409" y="131" type="curve" smooth="yes"/>
      <point x="429" y="131"/>
      <point x="453" y="140"/>
      <point x="509" y="187" type="curve"/>
      <point x="538" y="125" type="line"/>
      <point x="519" y="96"/>
      <point x="419" y="-20"/>
      <point x="278" y="-20" type="curve" smooth="yes"/>
      <point x="184" y="-20"/>
      <point x="114" y="18"/>
    </contour>
    <contour>
      <point x="576" y="768" type="curve" smooth="yes"/>
      <point x="582" y="872"/>
      <point x="668" y="942"/>
      <point x="751" y="942" type="curve" smooth="yes"/>
      <point x="848" y="942"/>
      <point x="889" y="874"/>
      <point x="885" y="799" type="curve" smooth="yes"/>
      <point x="879" y="686"/>
      <point x="787" y="625"/>
      <point x="700" y="625" type="curve" smooth="yes"/>
      <point x="627" y="625"/>
      <point x="571" y="683"/>
    </contour>
  </outline>
</glyph>
<glyph name="Lslash" format="1">
  <advance width="1220"/>
  <unicode hex="0141"/>
  <outline>
    <contour>
      <point x="1" y="2" type="line"/>
      <point x="11" y="99" type="line"/>
      <point x="154" y="128" type="line"/>
      <point x="207" y="545" type="line"/>
      <point x="54" y="483" type="line"/>
      <point x="18" y="601" type="line"/>
      <point x="225" y="688" type="line"/>
      <point x="317" y="1402" type="line"/>
      <point x="177" y="1427" type="line"/>
      <point x="190" y="1532" type="line"/>
      <point x="788" y="1532" type="line"/>
      <point x="777" y="1427" type="line"/>
      <point x="592" y="1402" type="line"/>
      <point x="515" y="809" type="line"/>
      <point x="869" y="957" type="line"/>
      <point x="904" y="830" type="line"/>
      <point x="497" y="664" type="line"/>
      <point x="428" y="125" type="line"/>
      <point x="837" y="140" type="line"/>
      <point x="1000" y="529" type="line"/>
      <point x="1149" y="506" type="line"/>
      <point x="1059" y="2" type="line"/>
    </contour>
  </outline>
</glyph>
<glyph name="Eng" format="1">
  <advance width="1531"/>
  <unicode hex="014A"/>
  <outline>
    <contour>
      <point x="0" y="0" type="line"/>
      <point x="8" y="96" type="line"/>
      <point x="151" y="125" type="line"/>
      <point x="328" y="1400" type="line"/>
      <point x="167" y="1425" type="line"/>
      <point x="184" y="1530" type="line"/>
      <point x="633" y="1530" type="line"/>
      <point x="1066" y="519" type="line"/>
      <point x="1132" y="298" type="line"/>
      <point x="1261" y="1401" type="line"/>
      <point x="1105" y="1425" type="line"/>
      <point x="1117" y="1530" type="line"/>
      <point x="1591" y="1530" type="line"/>
      <point x="1581" y="1425" type="line"/>
      <point x="1446" y="1400" type="line"/>
      <point x="1244" y="0" type="line" smooth="yes"/>
      <point x="1209" y="-239"/>
      <point x="995" y="-398"/>
      <point x="747" y="-425" type="curve"/>
      <point x="705" y="-322" type="line"/>
      <point x="839" y="-286"/>
      <point x="1000" y="-169"/>
      <point x="1006" y="0" type="curve"/>
      <point x="534" y="1062" type="line"/>
      <point x="466" y="1280" type="line"/>
      <point x="346" y="126" type="line"/>
      <point x="518" y="97" type="line"/>
      <point x="508" y="0" type="line"/>
    </contour>
  </outline>
</glyph>
<glyph name="eng" format="1">
  <advance width="1276"/>
  <unicode hex="014B"/>
  <outline>
    <contour>
      <point x="109" y="0" type="line"/>
      <point x="238" y="954" type="line"/>
      <point x="135" y="1014" type="line"/>
      <point x="152" y="1103" type="line"/>
      <point x="460" y="1155" type="line"/>
      <point x="510" y="1131" type="line"/>
      <point x="494" y="931" type="line"/>
      <point x="586" y="1057"/>
      <point x="722" y="1162"/>
      <point x="885" y="1162" type="curve" smooth="yes"/>
      <point x="1028" y="1162"/>
      <point x="1145" y="1091"/>
      <point x="1131" y="861" type="curve"/>
      <point x="1110" y="547"/>
      <point x="1073" y="235"/>
      <point x="1026" y="0" type="curve" smooth="yes"/>
      <point x="948" y="-390"/>
      <point x="805" y="-523"/>
      <point x="542" y="-523" type="curve" smooth="yes"/>
      <point x="474" y="-523"/>
      <point x="409" y="-510"/>
      <point x="387" y="-486" type="curve"/>
      <point x="423" y="-385" type="line"/>
      <point x="441" y="-393"/>
      <point x="484" y="-397"/>
      <point x="495" y="-397" type="curve" smooth="yes"/>
      <point x="670" y="-397"/>
      <point x="730" y="-213"/>
      <point x="769" y="33" type="curve"/>
      <point x="787" y="155"/>
      <point x="835" y="538"/>
      <point x="858" y="838" type="curve"/>
      <point x="864" y="953"/>
      <point x="829" y="985"/>
      <point x="762" y="985" type="curve" smooth="yes"/>
      <point x="678" y="985"/>
      <point x="558" y="892"/>
      <point x="470" y="745" type="curve"/>
      <point x="368" y="0" type="line"/>
    </contour>
  </outline>
</glyph>
<glyph name="OE" format="1">
  <advance width="2278"/>
  <unicode hex="0152"/>
  <outline>
    <contour>
      <point x="632" y="-20" type="curve" smooth="yes"/>
      <point x="270" y="-20"/>
      <point x="82" y="242"/>
      <point x="79" y="629" type="curve" smooth="yes"/>
      <point x="74" y="1127"/>
      <point x="357" y="1549"/>
      <point x="830" y="1549" type="curve" smooth="yes"/>
      <point x="1055" y="1549"/>
      <point x="1187" y="1437"/>
      <point x="1256" y="1270" type="curve"/>
      <point x="1289" y="1530" type="line"/>
      <point x="2161" y="1530" type="line"/>
      <point x="2140" y="1190" type="line"/>
      <point x="1981" y="1190" type="line"/>
      <point x="1940" y="1396" type="line"/>
      <point x="1545" y="1416" type="line"/>
      <point x="1475" y="868" type="line"/>
      <point x="1916" y="883" type="line"/>
      <point x="1898" y="696" type="line"/>
      <point x="1459" y="717" type="line"/>
      <point x="1379" y="126" type="line"/>
      <point x="1897" y="156" type="line"/>
      <point x="2015" y="408" type="line"/>
      <point x="2173" y="385" type="line"/>
      <point x="2094" y="0" type="line"/>
      <point x="1098" y="0" type="line"/>
      <point x="1124" y="212" type="line"/>
      <point x="1012" y="70"/>
      <point x="849" y="-20"/>
    </contour>
    <contour>
      <point x="660" y="101" type="curve" smooth="yes"/>
      <point x="928" y="100"/>
      <point x="1092" y="438"/>
      <point x="1089" y="873" type="curve" smooth="yes"/>
      <point x="1086" y="1235"/>
      <point x="995" y="1424"/>
      <point x="800" y="1424" type="curve" smooth="yes"/>
      <point x="539" y="1424"/>
      <point x="363" y="1073"/>
      <point x="366" y="680" type="curve"/>
      <point x="370" y="363"/>
      <point x="430" y="102"/>
    </contour>
  </outline>
</glyph>
<glyph name="oe" format="1">
  <advance width="1761"/>
  <unicode hex="0153"/>
  <outline>
    <contour>
      <point x="74" y="439" type="curve" smooth="yes"/>
      <point x="64" y="817"/>
      <point x="303" y="1163"/>
      <point x="673" y="1163" type="curve" smooth="yes"/>
      <point x="832" y="1163"/>
      <point x="944" y="1103"/>
      <point x="1009" y="994" type="curve"/>
      <point x="1115" y="1099"/>
      <point x="1252" y="1163"/>
      <point x="1405" y="1163" type="curve" smooth="yes"/>
      <point x="1615" y="1163"/>
      <point x="1709" y="1054"/>
      <point x="1711" y="913" type="curve" smooth="yes"/>
      <point x="1717" y="593"/>
      <point x="1290" y="464"/>
      <point x="1069" y="458" type="curve"/>
      <point x="1062" y="290"/>
      <point x="1121" y="139"/>
      <point x="1270" y="139" type="curve" smooth="yes"/>
      <point x="1400" y="139"/>
      <point x="1505" y="202"/>
      <point x="1589" y="290" type="curve"/>
      <point x="1644" y="197" type="line"/>
      <point x="1588" y="114"/>
      <point x="1430" y="-20"/>
      <point x="1204" y="-20" type="curve" smooth="yes"/>
      <point x="1045" y="-20"/>
      <point x="937" y="41"/>
      <point x="870" y="132" type="curve"/>
      <point x="771" y="38"/>
      <point x="640" y="-20"/>
      <point x="492" y="-20" type="curve" smooth="yes"/>
      <point x="223" y="-20"/>
      <point x="82" y="148"/>
    </contour>
    <contour>
      <point x="1072" y="573" type="curve"/>
      <point x="1211" y="580"/>
      <point x="1452" y="691"/>
      <point x="1448" y="891" type="curve" smooth="yes"/>
      <point x="1447" y="989"/>
      <point x="1408" y="1036"/>
      <point x="1344" y="1036" type="curve" smooth="yes"/>
      <point x="1165" y="1036"/>
      <point x="1087" y="750"/>
    </contour>
    <contour>
      <point x="532" y="105" type="curve" smooth="yes"/>
      <point x="669" y="105"/>
      <point x="750" y="255"/>
      <point x="785" y="441" type="curve"/>
      <point x="787" y="500"/>
      <point x="793" y="556"/>
      <point x="805" y="611" type="curve"/>
      <point x="814" y="816"/>
      <point x="793" y="1033"/>
      <point x="634" y="1033" type="curve" smooth="yes"/>
      <point x="430" y="1033"/>
      <point x="350" y="691"/>
      <point x="356" y="436" type="curve" smooth="yes"/>
      <point x="361" y="224"/>
      <point x="412" y="105"/>
    </contour>
  </outline>
</glyph>
<glyph name="racute" format="1">
  <advance width="840"/>
  <unicode hex="0155"/>
  <outline>
    <contour>
      <point x="427" y="1241" type="curve"/>
      <point x="349" y="1312" type="line"/>
      <point x="666" y="1743" type="line"/>
      <point x="833" y="1566" type="line"/>
      <point x="797" y="1498"/>
      <point x="546" y="1287"/>
    </contour>
    <contour>
      <point x="108" y="0" type="line"/>
      <point x="235" y="962" type="line"/>
      <point x="131" y="1022" type="line"/>
      <point x="149" y="1111" type="line"/>
      <point x="434" y="1163" type="line"/>
      <point x="484" y="1139" type="line"/>
      <point x="484" y="889" type="line"/>
      <point x="526" y="1008"/>
      <point x="636" y="1163"/>
      <point x="812" y="1163" type="curve" smooth="yes"/>
      <point x="840" y="1163"/>
      <point x="867" y="1155"/>
      <point x="878" y="1146" type="curve"/>
      <point x="821" y="864" type="line"/>
      <point x="805" y="877"/>
      <point x="760" y="886"/>
      <point x="716" y="886" type="curve" smooth="yes"/>
      <point x="628" y="886"/>
      <point x="536" y="849"/>
      <point x="464" y="736" type="curve"/>
      <point x="367" y="0" type="line"/>
    </contour>
  </outline>
</glyph>
<glyph name="rcommaaccent" format="1">
  <advance width="840"/>
  <unicode hex="0157"/>
  <outline>
    <contour>
      <point x="78" y="-156" type="line"/>
      <point x="217" y="-44" type="line"/>
      <point x="307" y="-63"/>
      <point x="367" y="-159"/>
      <point x="362" y="-262" type="curve" smooth="yes"/>
      <point x="354" y="-423"/>
      <point x="224" y="-542"/>
      <point x="133" y="-560" type="curve"/>
      <point x="63" y="-505" type="line"/>
      <point x="66" y="-479" type="line"/>
      <point x="103" y="-453"/>
      <point x="136" y="-411"/>
      <point x="139" y="-339" type="curve" smooth="yes"/>
      <point x="142" y="-291"/>
      <point x="111" y="-236"/>
      <point x="70" y="-230" type="curve"/>
    </contour>
    <contour>
      <point x="108" y="0" type="line"/>
      <point x="235" y="962" type="line"/>
      <point x="131" y="1022" type="line"/>
      <point x="149" y="1111" type="line"/>
      <point x="434" y="1163" type="line"/>
      <point x="484" y="1139" type="line"/>
      <point x="484" y="889" type="line"/>
      <point x="526" y="1008"/>
      <point x="636" y="1163"/>
      <point x="812" y="1163" type="curve" smooth="yes"/>
      <point x="840" y="1163"/>
      <point x="867" y="1155"/>
      <point x="878" y="1146" type="curve"/>
      <point x="821" y="864" type="line"/>
      <point x="805" y="877"/>
      <point x="760" y="886"/>
      <point x="716" y="886" type="curve" smooth="yes"/>
      <point x="628" y="886"/>
      <point x="536" y="849"/>
      <point x="464" y="736" type="curve"/>
      <point x="367" y="0" type="line"/>
    </contour>
  </outline>
</glyph>
<glyph name="Rcaron" format="1">
  <advance width="1394"/>
  <unicode hex="0158"/>
  <outline>
    <contour>
      <point x="750" y="1607" type="line"/>
      <point x="534" y="1949" type="line"/>
      <point x="629" y="2007" type="line"/>
      <point x="853" y="1804" type="line"/>
      <point x="1173" y="2007" type="line"/>
      <point x="1258" y="1950" type="line"/>
      <point x="926" y="1607" type="line"/>
    </contour>
    <contour>
      <point x="9" y="0" type="line"/>
      <point x="18" y="96" type="line"/>
      <point x="153" y="126" type="line"/>
      <point x="316" y="1400" type="line"/>
      <point x="177" y="1425" type="line"/>
      <point x="189" y="1530" type="line"/>
      <point x="438" y="1530" type="line" smooth="yes"/>
      <point x="552" y="1530"/>
      <point x="629" y="1546"/>
      <point x="767" y="1546" type="curve" smooth="yes"/>
      <point x="1122" y="1546"/>
      <point x="1278" y="1418"/>
      <point x="1280" y="1181" type="curve"/>
      <point x="1283" y="954"/>
      <point x="1159" y="774"/>
      <point x="936" y="700" type="curve"/>
      <point x="1004" y="645"/>
      <point x="1057" y="494"/>
      <point x="1089" y="409" type="curve"/>
      <point x="1181" y="180"/>
      <point x="1219" y="101"/>
      <point x="1350" y="102" type="curve"/>
      <point x="1343" y="-1" type="line"/>
      <point x="1022" y="1" type="line"/>
      <point x="986" y="0"/>
      <point x="941" y="83"/>
      <point x="882" y="247" type="curve"/>
      <point x="820" y="427"/>
      <point x="746" y="649"/>
      <point x="672" y="667" type="curve"/>
      <point x="672" y="667"/>
      <point x="547" y="666"/>
      <point x="486" y="666" type="curve"/>
      <point x="422" y="126" type="line"/>
      <point x="606" y="97" type="line"/>
      <point x="599" y="0" type="line"/>
    </contour>
    <contour>
      <point x="503" y="795" type="line"/>
      <point x="544" y="792"/>
      <point x="654" y="790"/>
      <point x="687" y="792" type="curve" smooth="yes"/>
      <point x="902" y="800"/>
      <point x="1012" y="945"/>
      <point x="1004" y="1186" type="curve" smooth="yes"/>
      <point x="999" y="1343"/>
      <point x="921" y="1424"/>
      <point x="718" y="1424" type="curve" smooth="yes"/>
      <point x="692" y="1424"/>
      <point x="624" y="1417"/>
      <point x="585" y="1409" type="curve"/>
    </contour>
  </outline>
</glyph>
<glyph name="sacute" format="1">
  <advance width="879"/>
  <unicode hex="015B"/>
  <outline>
    <contour>
      <point x="519" y="1241" type="curve"/>
      <point x="441" y="1312" type="line"/>
      <point x="758" y="1743" type="line"/>
      <point x="925" y="1566" type="line"/>
      <point x="889" y="1498"/>
      <point x="638" y="1287"/>
    </contour>
    <contour>
      <point x="25" y="44" type="curve"/>
      <point x="67" y="220" type="line"/>
      <point x="111" y="185"/>
      <point x="215" y="125"/>
      <point x="335" y="125" type="curve" smooth="yes"/>
      <point x="413" y="125"/>
      <point x="513" y="146"/>
      <point x="513" y="258" type="curve" smooth="yes"/>
      <point x="513" y="354"/>
      <point x="435" y="415"/>
      <point x="335" y="487" type="curve" smooth="yes"/>
      <point x="254" y="546"/>
      <point x="133" y="659"/>
      <point x="133" y="833" type="curve" smooth="yes"/>
      <point x="133" y="1046"/>
      <point x="326" y="1163"/>
      <point x="559" y="1163" type="curve" smooth="yes"/>
      <point x="667" y="1163"/>
      <point x="784" y="1141"/>
      <point x="817" y="1126" type="curve"/>
      <point x="777" y="939" type="line"/>
      <point x="758" y="963"/>
      <point x="678" y="1027"/>
      <point x="561" y="1027" type="curve" smooth="yes"/>
      <point x="477" y="1027"/>
      <point x="395" y="994"/>
      <point x="388" y="901" type="curve" smooth="yes"/>
      <point x="382" y="808"/>
      <point x="452" y="738"/>
      <point x="557" y="660" type="curve" smooth="yes"/>
      <point x="662" y="581"/>
      <point x="770" y="479"/>
      <point x="770" y="310" type="curve" smooth="yes"/>
      <point x="770" y="82"/>
      <point x="558" y="-20"/>
      <point x="333" y="-20" type="curve" smooth="yes"/>
      <point x="208" y="-20"/>
      <point x="62" y="14"/>
    </contour>
  </outline>
</glyph>
<glyph name="Scedilla" format="1">
  <advance width="1138"/>
  <unicode hex="015E"/>
  <outline>
    <contour>
      <point x="41" y="70" type="curve"/>
      <point x="91" y="368" type="line"/>
      <point x="252" y="368" type="line"/>
      <point x="270" y="167" type="line"/>
      <point x="323" y="129"/>
      <point x="398" y="99"/>
      <point x="487" y="99" type="curve" smooth="yes"/>
      <point x="649" y="99"/>
      <point x="767" y="176"/>
      <point x="772" y="322" type="curve" smooth="yes"/>
      <point x="776" y="468"/>
      <point x="680" y="555"/>
      <point x="519" y="658" type="curve" smooth="yes"/>
      <point x="350" y="766"/>
      <point x="188" y="899"/>
      <point x="186" y="1112" type="curve" smooth="yes"/>
      <point x="184" y="1389"/>
      <point x="411" y="1550"/>
      <point x="705" y="1550" type="curve" smooth="yes"/>
      <point x="909" y="1550"/>
      <point x="1032" y="1507"/>
      <point x="1091" y="1470" type="curve"/>
      <point x="1041" y="1188" type="line"/>
      <point x="893" y="1188" type="line"/>
      <point x="864" y="1375" type="line"/>
      <point x="817" y="1409"/>
      <point x="755" y="1428"/>
      <point x="679" y="1428" type="curve" smooth="yes"/>
      <point x="547" y="1428"/>
      <point x="447" y="1367"/>
      <point x="443" y="1221" type="curve"/>
      <point x="440" y="1066"/>
      <point x="545" y="975"/>
      <point x="713" y="869" type="curve" smooth="yes"/>
      <point x="877" y="766"/>
      <point x="1033" y="642"/>
      <point x="1035" y="436" type="curve" smooth="yes"/>
      <point x="1037" y="189"/>
      <point x="856" y="3"/>
      <point x="548" y="-20" type="curve"/>
      <point x="563" y="-72"/>
      <point x="570" y="-147"/>
      <point x="567" y="-212" type="curve"/>
      <point x="555" y="-399"/>
      <point x="467" y="-474"/>
      <point x="284" y="-474" type="curve" smooth="yes"/>
      <point x="231" y="-474"/>
      <point x="138" y="-462"/>
      <point x="116" y="-446" type="curve"/>
      <point x="151" y="-304" type="line"/>
      <point x="168" y="-313"/>
      <point x="195" y="-319"/>
      <point x="226" y="-319" type="curve" smooth="yes"/>
      <point x="318" y="-319"/>
      <point x="391" y="-275"/>
      <point x="402" y="-137" type="curve" smooth="yes"/>
      <point x="405" y="-89"/>
      <point x="404" y="-50"/>
      <point x="400" y="-20" type="curve"/>
      <point x="229" y="-8"/>
      <point x="81" y="38"/>
    </contour>
  </outline>
</glyph>
<glyph name="scedilla" format="1">
  <advance width="879"/>
  <unicode hex="015F"/>
  <outline>
    <contour>
      <point x="25" y="44" type="curve"/>
      <point x="67" y="220" type="line"/>
      <point x="111" y="185"/>
      <point x="215" y="125"/>
      <point x="335" y="125" type="curve" smooth="yes"/>
      <point x="413" y="125"/>
      <point x="513" y="146"/>
      <point x="513" y="258" type="curve" smooth="yes"/>
      <point x="513" y="354"/>
      <point x="435" y="415"/>
      <point x="335" y="487" type="curve" smooth="yes"/>
      <point x="254" y="546"/>
      <point x="133" y="659"/>
      <point x="133" y="833" type="curve" smooth="yes"/>
      <point x="133" y="1046"/>
      <point x="326" y="1163"/>
      <point x="559" y="1163" type="curve" smooth="yes"/>
      <point x="667" y="1163"/>
      <point x="784" y="1141"/>
      <point x="817" y="1126" type="curve"/>
      <point x="777" y="939" type="line"/>
      <point x="758" y="963"/>
      <point x="678" y="1027"/>
      <point x="561" y="1027" type="curve" smooth="yes"/>
      <point x="477" y="1027"/>
      <point x="395" y="994"/>
      <point x="388" y="901" type="curve" smooth="yes"/>
      <point x="382" y="808"/>
      <point x="452" y="738"/>
      <point x="557" y="660" type="curve" smooth="yes"/>
      <point x="662" y="581"/>
      <point x="770" y="479"/>
      <point x="770" y="310" type="curve" smooth="yes"/>
      <point x="770" y="124"/>
      <point x="629" y="22"/>
      <point x="455" y="-9" type="curve"/>
      <point x="472" y="-61"/>
      <point x="481" y="-143"/>
      <point x="477" y="-212" type="curve" smooth="yes"/>
      <point x="465" y="-399"/>
      <point x="377" y="-474"/>
      <point x="194" y="-474" type="curve" smooth="yes"/>
      <point x="141" y="-474"/>
      <point x="48" y="-462"/>
      <point x="26" y="-446" type="curve"/>
      <point x="61" y="-304" type="line"/>
      <point x="78" y="-313"/>
      <point x="105" y="-319"/>
      <point x="136" y="-319" type="curve" smooth="yes"/>
      <point x="228" y="-319"/>
      <point x="301" y="-275"/>
      <point x="312" y="-137" type="curve" smooth="yes"/>
      <point x="315" y="-89"/>
      <point x="314" y="-50"/>
      <point x="310" y="-19" type="curve"/>
      <point x="191" y="-16"/>
      <point x="60" y="16"/>
    </contour>
  </outline>
</glyph>
<glyph name="uni0162" format="1">
  <advance width="1323"/>
  <unicode hex="0162"/>
  <outline>
    <contour>
      <point x="204" y="0" type="line"/>
      <point x="215" y="100" type="line"/>
      <point x="462" y="126" type="line"/>
      <point x="634" y="1409" type="line"/>
      <point x="353" y="1382" type="line"/>
      <point x="233" y="1049" type="line"/>
      <point x="82" y="1048" type="line"/>
      <point x="160" y="1530" type="line"/>
      <point x="1415" y="1530" type="line"/>
      <point x="1355" y="1049" type="line"/>
      <point x="1210" y="1041" type="line"/>
      <point x="1187" y="1383" type="line"/>
      <point x="910" y="1409" type="line"/>
      <point x="737" y="126" type="line"/>
      <point x="1003" y="100" type="line"/>
      <point x="995" y="0" type="line"/>
      <point x="660" y="0" type="line"/>
      <point x="679" y="-51"/>
      <point x="689" y="-138"/>
      <point x="685" y="-212" type="curve" smooth="yes"/>
      <point x="673" y="-399"/>
      <point x="585" y="-474"/>
      <point x="402" y="-474" type="curve" smooth="yes"/>
      <point x="349" y="-474"/>
      <point x="256" y="-462"/>
      <point x="234" y="-446" type="curve"/>
      <point x="269" y="-304" type="line"/>
      <point x="286" y="-313"/>
      <point x="313" y="-319"/>
      <point x="344" y="-319" type="curve" smooth="yes"/>
      <point x="436" y="-319"/>
      <point x="509" y="-275"/>
      <point x="520" y="-137" type="curve" smooth="yes"/>
      <point x="524" y="-78"/>
      <point x="521" y="-32"/>
      <point x="516" y="0" type="curve"/>
    </contour>
  </outline>
</glyph>
<glyph name="Tcaron" format="1">
  <advance width="1323"/>
  <unicode hex="0164"/>
  <outline>
    <contour>
      <point x="713" y="1607" type="line"/>
      <point x="497" y="1949" type="line"/>
      <point x="592" y="2007" type="line"/>
      <point x="816" y="1804" type="line"/>
      <point x="1136" y="2007" type="line"/>
      <point x="1221" y="1950" type="line"/>
      <point x="889" y="1607" type="line"/>
    </contour>
    <contour>
      <point x="204" y="0" type="line"/>
      <point x="215" y="100" type="line"/>
      <point x="462" y="126" type="line"/>
      <point x="634" y="1409" type="line"/>
      <point x="353" y="1382" type="line"/>
      <point x="233" y="1049" type="line"/>
      <point x="82" y="1048" type="line"/>
      <point x="160" y="1530" type="line"/>
      <point x="1415" y="1530" type="line"/>
      <point x="1355" y="1049" type="line"/>
      <point x="1210" y="1041" type="line"/>
      <point x="1187" y="1383" type="line"/>
      <point x="910" y="1409" type="line"/>
      <point x="737" y="126" type="line"/>
      <point x="1003" y="100" type="line"/>
      <point x="995" y="0" type="line"/>
    </contour>
  </outline>
</glyph>
<glyph name="tcaron" format="1">
  <advance width="746"/>
  <unicode hex="0165"/>
  <outline>
    <contour>
      <point x="128" y="159" type="curve" smooth="yes"/>
      <point x="128" y="172"/>
      <point x="128" y="195"/>
      <point x="148" y="345" type="curve" smooth="yes"/>
      <point x="234" y="1005" type="line"/>
      <point x="114" y="1005" type="line"/>
      <point x="136" y="1103" type="line"/>
      <point x="259" y="1150" type="line"/>
      <point x="311" y="1200"/>
      <point x="368" y="1321"/>
      <point x="406" y="1416" type="curve"/>
      <point x="548" y="1416" type="line"/>
      <point x="514" y="1155" type="line"/>
      <point x="749" y="1155" type="line"/>
      <point x="728" y="1005" type="line"/>
      <point x="495" y="1005" type="line"/>
      <point x="412" y="390" type="line" smooth="yes"/>
      <point x="403" y="320"/>
      <point x="396" y="268"/>
      <point x="396" y="232" type="curve" smooth="yes"/>
      <point x="396" y="168"/>
      <point x="415" y="145"/>
      <point x="475" y="145" type="curve" smooth="yes"/>
      <point x="526" y="145"/>
      <point x="609" y="178"/>
      <point x="655" y="215" type="curve"/>
      <point x="677" y="136" type="line"/>
      <point x="624" y="74"/>
      <point x="481" y="-20"/>
      <point x="316" y="-20" type="curve" smooth="yes"/>
      <point x="217" y="-20"/>
      <point x="128" y="22"/>
    </contour>
    <contour>
      <point x="768" y="1250" type="curve"/>
      <point x="673" y="1280" type="line"/>
      <point x="667" y="1305" type="line"/>
      <point x="689" y="1378"/>
      <point x="707" y="1489"/>
      <point x="713" y="1601" type="curve" smooth="yes"/>
      <point x="717" y="1676"/>
      <point x="706" y="1772"/>
      <point x="686" y="1802" type="curve"/>
      <point x="705" y="1844" type="line"/>
      <point x="887" y="1890" type="line"/>
      <point x="916" y="1858"/>
      <point x="925" y="1769"/>
      <point x="920" y="1681" type="curve" smooth="yes"/>
      <point x="910" y="1515"/>
      <point x="849" y="1341"/>
    </contour>
  </outline>
</glyph>
<glyph name="Tbar" format="1">
  <advance width="1225"/>
  <unicode hex="0166"/>
  <outline>
    <contour>
      <point x="159" y="0" type="line"/>
      <point x="170" y="100" type="line"/>
      <point x="417" y="126" type="line"/>
      <point x="494" y="701" type="line"/>
      <point x="257" y="701" type="line"/>
      <point x="273" y="841" type="line"/>
      <point x="513" y="841" type="line"/>
      <point x="589" y="1409" type="line"/>
      <point x="308" y="1382" type="line"/>
      <point x="188" y="1049" type="line"/>
      <point x="37" y="1048" type="line"/>
      <point x="115" y="1530" type="line"/>
      <point x="1370" y="1530" type="line"/>
      <point x="1310" y="1049" type="line"/>
      <point x="1165" y="1041" type="line"/>
      <point x="1142" y="1383" type="line"/>
      <point x="865" y="1409" type="line"/>
      <point x="788" y="841" type="line"/>
      <point x="1049" y="841" type="line"/>
      <point x="1033" y="701" type="line"/>
      <point x="769" y="701" type="line"/>
      <point x="692" y="126" type="line"/>
      <point x="958" y="100" type="line"/>
      <point x="950" y="0" type="line"/>
    </contour>
  </outline>
</glyph>
<glyph name="tbar" format="1">
  <advance width="730"/>
  <unicode hex="0167"/>
  <outline>
    <contour>
      <point x="128" y="159" type="curve" smooth="yes"/>
      <point x="128" y="172"/>
      <point x="128" y="195"/>
      <point x="148" y="345" type="curve" smooth="yes"/>
      <point x="184" y="621" type="line"/>
      <point x="74" y="621" type="line"/>
      <point x="90" y="751" type="line"/>
      <point x="201" y="751" type="line"/>
      <point x="234" y="1005" type="line"/>
      <point x="114" y="1005" type="line"/>
      <point x="136" y="1103" type="line"/>
      <point x="259" y="1150" type="line"/>
      <point x="311" y="1200"/>
      <point x="368" y="1321"/>
      <point x="406" y="1416" type="curve"/>
      <point x="548" y="1416" type="line"/>
      <point x="514" y="1155" type="line"/>
      <point x="749" y="1155" type="line"/>
      <point x="728" y="1005" type="line"/>
      <point x="495" y="1005" type="line"/>
      <point x="460" y="751" type="line"/>
      <point x="672" y="751" type="line"/>
      <point x="656" y="621" type="line"/>
      <point x="443" y="621" type="line"/>
      <point x="412" y="390" type="line" smooth="yes"/>
      <point x="403" y="320"/>
      <point x="396" y="268"/>
      <point x="396" y="232" type="curve" smooth="yes"/>
      <point x="396" y="168"/>
      <point x="415" y="145"/>
      <point x="475" y="145" type="curve" smooth="yes"/>
      <point x="526" y="145"/>
      <point x="609" y="178"/>
      <point x="655" y="215" type="curve"/>
      <point x="677" y="136" type="line"/>
      <point x="624" y="74"/>
      <point x="481" y="-20"/>
      <point x="316" y="-20" type="curve" smooth="yes"/>
      <point x="217" y="-20"/>
      <point x="128" y="22"/>
    </contour>
  </outline>
</glyph>
<glyph name="utilde" format="1">
  <advance width="1242"/>
  <unicode hex="0169"/>
  <outline>
    <contour>
      <point x="137" y="245" type="curve" smooth="yes"/>
      <point x="136" y="336"/>
      <point x="158" y="476"/>
      <point x="175" y="597" type="curve" smooth="yes"/>
      <point x="228" y="962" type="line"/>
      <point x="115" y="1032" type="line"/>
      <point x="132" y="1121" type="line"/>
      <point x="455" y="1163" type="line"/>
      <point x="505" y="1139" type="line"/>
      <point x="436" y="589" type="line" smooth="yes"/>
      <point x="421" y="470"/>
      <point x="402" y="364"/>
      <point x="402" y="284" type="curve" smooth="yes"/>
      <point x="402" y="167"/>
      <point x="445" y="133"/>
      <point x="521" y="133" type="curve" smooth="yes"/>
      <point x="607" y="133"/>
      <point x="691" y="187"/>
      <point x="747" y="247" type="curve"/>
      <point x="869" y="1155" type="line"/>
      <point x="1128" y="1155" type="line"/>
      <point x="1002" y="208" type="line" smooth="yes"/>
      <point x="995" y="156"/>
      <point x="1007" y="132"/>
      <point x="1033" y="132" type="curve" smooth="yes"/>
      <point x="1055" y="132"/>
      <point x="1076" y="143"/>
      <point x="1132" y="189" type="curve"/>
      <point x="1161" y="126" type="line"/>
      <point x="1143" y="95"/>
      <point x="1037" y="-19"/>
      <point x="898" y="-19" type="curve" smooth="yes"/>
      <point x="783" y="-19"/>
      <point x="736" y="43"/>
      <point x="751" y="135" type="curve"/>
      <point x="681" y="59"/>
      <point x="575" y="-20"/>
      <point x="410" y="-20" type="curve" smooth="yes"/>
      <point x="273" y="-20"/>
      <point x="138" y="44"/>
    </contour>
    <contour>
      <point x="394" y="1392" type="curve"/>
      <point x="332" y="1496" type="line"/>
      <point x="374" y="1581"/>
      <point x="482" y="1665"/>
      <point x="584" y="1665" type="curve" smooth="yes"/>
      <point x="728" y="1665"/>
      <point x="757" y="1520"/>
      <point x="852" y="1520" type="curve" smooth="yes"/>
      <point x="926" y="1520"/>
      <point x="967" y="1577"/>
      <point x="1005" y="1625" type="curve"/>
      <point x="1078" y="1514" type="line"/>
      <point x="1044" y="1420"/>
      <point x="936" y="1333"/>
      <point x="827" y="1333" type="curve" smooth="yes"/>
      <point x="657" y="1333"/>
      <point x="657" y="1476"/>
      <point x="541" y="1478" type="curve" smooth="yes"/>
      <point x="488" y="1479"/>
      <point x="432" y="1432"/>
    </contour>
  </outline>
</glyph>
<glyph name="Ubreve" format="1">
  <advance width="1413"/>
  <unicode hex="016C"/>
  <outline>
    <contour>
      <point x="887" y="1631" type="curve" smooth="yes"/>
      <point x="675" y="1631"/>
      <point x="587" y="1799"/>
      <point x="587" y="1953" type="curve" smooth="yes"/>
      <point x="587" y="1968"/>
      <point x="588" y="1983"/>
      <point x="590" y="1997" type="curve"/>
      <point x="734" y="1997" type="line"/>
      <point x="736" y="1959" type="line"/>
      <point x="743" y="1894"/>
      <point x="771" y="1813"/>
      <point x="892" y="1813" type="curve" smooth="yes"/>
      <point x="1039" y="1813"/>
      <point x="1071" y="1927"/>
      <point x="1084" y="1997" type="curve"/>
      <point x="1226" y="1997" type="line"/>
      <point x="1227" y="1986"/>
      <point x="1226" y="1974"/>
      <point x="1225" y="1963" type="curve" smooth="yes"/>
      <point x="1214" y="1806"/>
      <point x="1097" y="1631"/>
    </contour>
    <contour>
      <point x="137" y="428" type="curve" smooth="yes"/>
      <point x="136" y="480"/>
      <point x="138" y="534"/>
      <point x="144" y="593" type="curve"/>
      <point x="248" y="1401" type="line"/>
      <point x="109" y="1425" type="line"/>
      <point x="122" y="1530" type="line"/>
      <point x="715" y="1530" type="line"/>
      <point x="705" y="1426" type="line"/>
      <point x="531" y="1400" type="line"/>
      <point x="430" y="617" type="line"/>
      <point x="422" y="540"/>
      <point x="416" y="472"/>
      <point x="416" y="420" type="curve" smooth="yes"/>
      <point x="418" y="217"/>
      <point x="507" y="97"/>
      <point x="680" y="97" type="curve" smooth="yes"/>
      <point x="916" y="97"/>
      <point x="1032" y="294"/>
      <point x="1073" y="626" type="curve"/>
      <point x="1177" y="1400" type="line"/>
      <point x="1026" y="1425" type="line"/>
      <point x="1037" y="1530" type="line"/>
      <point x="1495" y="1530" type="line"/>
      <point x="1482" y="1425" type="line"/>
      <point x="1356" y="1401" type="line"/>
      <point x="1255" y="627" type="line"/>
      <point x="1195" y="156"/>
      <point x="988" y="-20"/>
      <point x="634" y="-20" type="curve" smooth="yes"/>
      <point x="279" y="-20"/>
      <point x="139" y="166"/>
    </contour>
  </outline>
</glyph>
<glyph name="Uogonek" format="1">
  <advance width="1379"/>
  <unicode hex="0172"/>
  <outline>
    <contour>
      <point x="120" y="428" type="curve" smooth="yes"/>
      <point x="119" y="480"/>
      <point x="121" y="534"/>
      <point x="127" y="593" type="curve"/>
      <point x="231" y="1401" type="line"/>
      <point x="92" y="1425" type="line"/>
      <point x="105" y="1530" type="line"/>
      <point x="698" y="1530" type="line"/>
      <point x="688" y="1426" type="line"/>
      <point x="514" y="1400" type="line"/>
      <point x="413" y="617" type="line"/>
      <point x="405" y="540"/>
      <point x="399" y="472"/>
      <point x="399" y="420" type="curve" smooth="yes"/>
      <point x="401" y="217"/>
      <point x="490" y="97"/>
      <point x="663" y="97" type="curve" smooth="yes"/>
      <point x="899" y="97"/>
      <point x="1015" y="294"/>
      <point x="1056" y="626" type="curve"/>
      <point x="1160" y="1400" type="line"/>
      <point x="1009" y="1425" type="line"/>
      <point x="1020" y="1530" type="line"/>
      <point x="1478" y="1530" type="line"/>
      <point x="1465" y="1425" type="line"/>
      <point x="1339" y="1401" type="line"/>
      <point x="1238" y="627" type="line" smooth="yes"/>
      <point x="1190" y="256"/>
      <point x="1052" y="68"/>
      <point x="822" y="5" type="curve"/>
      <point x="749" y="-69"/>
      <point x="689" y="-150"/>
      <point x="689" y="-203" type="curve"/>
      <point x="687" y="-264"/>
      <point x="718" y="-287"/>
      <point x="749" y="-287" type="curve" smooth="yes"/>
      <point x="794" y="-287"/>
      <point x="836" y="-264"/>
      <point x="890" y="-220" type="curve"/>
      <point x="921" y="-324" type="line"/>
      <point x="858" y="-389"/>
      <point x="755" y="-448"/>
      <point x="624" y="-448" type="curve" smooth="yes"/>
      <point x="506" y="-448"/>
      <point x="450" y="-377"/>
      <point x="451" y="-293" type="curve" smooth="yes"/>
      <point x="452" y="-257"/>
      <point x="466" y="-207"/>
      <point x="489" y="-174" type="curve" smooth="yes"/>
      <point x="535" y="-106"/>
      <point x="589" y="-57"/>
      <point x="641" y="-19" type="curve"/>
      <point x="633" y="-19"/>
      <point x="625" y="-20"/>
      <point x="617" y="-20" type="curve" smooth="yes"/>
      <point x="262" y="-20"/>
      <point x="122" y="166"/>
    </contour>
  </outline>
</glyph>
<glyph name="uogonek" format="1">
  <advance width="1242"/>
  <unicode hex="0173"/>
  <outline>
    <contour>
      <point x="137" y="245" type="curve" smooth="yes"/>
      <point x="136" y="336"/>
      <point x="158" y="476"/>
      <point x="175" y="597" type="curve" smooth="yes"/>
      <point x="228" y="962" type="line"/>
      <point x="115" y="1032" type="line"/>
      <point x="132" y="1121" type="line"/>
      <point x="455" y="1163" type="line"/>
      <point x="505" y="1139" type="line"/>
      <point x="436" y="589" type="line" smooth="yes"/>
      <point x="421" y="470"/>
      <point x="402" y="364"/>
      <point x="402" y="284" type="curve" smooth="yes"/>
      <point x="402" y="167"/>
      <point x="445" y="133"/>
      <point x="521" y="133" type="curve" smooth="yes"/>
      <point x="607" y="133"/>
      <point x="691" y="187"/>
      <point x="747" y="247" type="curve"/>
      <point x="869" y="1155" type="line"/>
      <point x="1128" y="1155" type="line"/>
      <point x="1002" y="208" type="line" smooth="yes"/>
      <point x="995" y="156"/>
      <point x="1007" y="132"/>
      <point x="1033" y="132" type="curve" smooth="yes"/>
      <point x="1055" y="132"/>
      <point x="1076" y="143"/>
      <point x="1132" y="189" type="curve"/>
      <point x="1161" y="126" type="line"/>
      <point x="1149" y="105"/>
      <point x="1099" y="49"/>
      <point x="1026" y="13" type="curve"/>
      <point x="918" y="-65"/>
      <point x="832" y="-141"/>
      <point x="831" y="-208" type="curve"/>
      <point x="829" y="-269"/>
      <point x="860" y="-287"/>
      <point x="891" y="-287" type="curve" smooth="yes"/>
      <point x="937" y="-287"/>
      <point x="977" y="-264"/>
      <point x="1033" y="-220" type="curve"/>
      <point x="1064" y="-324" type="line"/>
      <point x="997" y="-389"/>
      <point x="897" y="-448"/>
      <point x="767" y="-448" type="curve" smooth="yes"/>
      <point x="649" y="-448"/>
      <point x="592" y="-377"/>
      <point x="594" y="-293" type="curve" smooth="yes"/>
      <point x="595" y="-256"/>
      <point x="611" y="-204"/>
      <point x="637" y="-169" type="curve" smooth="yes"/>
      <point x="699" y="-83"/>
      <point x="764" y="-41"/>
      <point x="826" y="-8" type="curve"/>
      <point x="764" y="13"/>
      <point x="740" y="65"/>
      <point x="751" y="135" type="curve"/>
      <point x="681" y="59"/>
      <point x="575" y="-20"/>
      <point x="410" y="-20" type="curve" smooth="yes"/>
      <point x="273" y="-20"/>
      <point x="138" y="44"/>
    </contour>
  </outline>
</glyph>
<glyph name="ycircumflex" format="1">
  <advance width="1078"/>
  <unicode hex="0177"/>
  <outline>
    <contour>
      <point x="-74" y="-289" type="line"/>
      <point x="-50" y="-304"/>
      <point x="40" y="-355"/>
      <point x="147" y="-355" type="curve" smooth="yes"/>
      <point x="252" y="-355"/>
      <point x="362" y="-283"/>
      <point x="469" y="-62" type="curve"/>
      <point x="341" y="-62" type="line"/>
      <point x="151" y="945" type="line"/>
      <point x="141" y="986"/>
      <point x="131" y="1001"/>
      <point x="110" y="1001" type="curve" smooth="yes"/>
      <point x="94" y="1001"/>
      <point x="71" y="997"/>
      <point x="31" y="963" type="curve"/>
      <point x="2" y="1033" type="line"/>
      <point x="20" y="1060"/>
      <point x="124" y="1163"/>
      <point x="245" y="1163" type="curve" smooth="yes"/>
      <point x="358" y="1163"/>
      <point x="396" y="1110"/>
      <point x="411" y="1026" type="curve"/>
      <point x="436" y="895"/>
      <point x="500" y="398"/>
      <point x="521" y="267" type="curve"/>
      <point x="540" y="51" type="line"/>
      <point x="650" y="271" type="line"/>
      <point x="741" y="471"/>
      <point x="797" y="620"/>
      <point x="812" y="818" type="curve"/>
      <point x="816" y="922"/>
      <point x="779" y="956"/>
      <point x="779" y="1040" type="curve" smooth="yes"/>
      <point x="779" y="1115"/>
      <point x="827" y="1163"/>
      <point x="907" y="1163" type="curve" smooth="yes"/>
      <point x="1019" y="1163"/>
      <point x="1057" y="1083"/>
      <point x="1057" y="960" type="curve" smooth="yes"/>
      <point x="1057" y="755"/>
      <point x="927" y="500"/>
      <point x="829" y="310" type="curve"/>
      <point x="634" y="-76"/>
      <point x="555" y="-211"/>
      <point x="477" y="-313" type="curve"/>
      <point x="410" y="-409"/>
      <point x="294" y="-512"/>
      <point x="98" y="-512" type="curve" smooth="yes"/>
      <point x="17" y="-512"/>
      <point x="-86" y="-489"/>
      <point x="-123" y="-476" type="curve"/>
    </contour>
    <contour>
      <point x="324" y="1229" type="line"/>
      <point x="242" y="1286" type="line"/>
      <point x="589" y="1660" type="line"/>
      <point x="767" y="1660" type="line"/>
      <point x="967" y="1286" type="line"/>
      <point x="868" y="1228" type="line"/>
      <point x="652" y="1462" type="line"/>
    </contour>
  </outline>
</glyph>
<glyph name="florin" format="1">
  <advance width="1058"/>
  <unicode hex="0192"/>
  <outline>
    <contour>
      <point x="209" y="-356" type="line"/>
      <point x="380" y="985" type="line"/>
      <point x="174" y="985" type="line"/>
      <point x="184" y="1090" type="line"/>
      <point x="395" y="1148" type="line"/>
      <point x="402" y="1203" type="line"/>
      <point x="435" y="1500"/>
      <point x="703" y="1690"/>
      <point x="880" y="1690" type="curve" smooth="yes"/>
      <point x="987" y="1690"/>
      <point x="1032" y="1680"/>
      <point x="1048" y="1673" type="curve"/>
      <point x="1035" y="1468" type="line"/>
      <point x="1013" y="1478"/>
      <point x="968" y="1504"/>
      <point x="854" y="1504" type="curve" smooth="yes"/>
      <point x="763" y="1504"/>
      <point x="669" y="1480"/>
      <point x="650" y="1285" type="curve"/>
      <point x="634" y="1148" type="line"/>
      <point x="915" y="1148" type="line"/>
      <point x="902" y="985" type="line"/>
      <point x="614" y="985" type="line"/>
      <point x="447" y="-356" type="line"/>
    </contour>
  </outline>
</glyph>
